<svg xmlns="http://www.w3.org/2000/svg" viewBox="0 0 1024 1024" width="1024" height="1024"><g id="line" fill="none" stroke="#1F1F1F" stroke-width="6" stroke-linecap="round" stroke-linejoin="round"><path d="M139.2 443.3L130.5 445.4L124.5 446.3L116.3 447L100.4 446.8L100.1 452.3"/><path d="M225.9 402.1L189.9 421.7L175.3 429.1L163.3 434.6L169.8 449.5"/><path d="M294.7 469.6L300.4 466.6M323.7 357.5L304.1 364.1L293.4 368.5M252 424.9L274.9 467.1"/><path d="M334.7 354.5L324.1 357.3L326 363.5M329.8 376.3L350.5 445.5L357.2 443.8"/><path d="M507.7 335.8L508.1 352.9"/><path d="M843.4 404.3L826.9 403.7L811.1 401.6"/><path d="M877.9 402.5L859.6 403.9L843.8 404.3L843.9 407.3"/><path d="M24.9 163.5L47.5 154.6L65.5 148.2L83.2 142.7L97.9 138.8L112.3 135.9M93.8 29.5L87.6 30.7M52.6 39.2L44.5 41.6"/><path d="M315 85L315.2 84.5L303.6 80.6L289.1 75L237.7 52.4L219.5 44.9L199.8 37.8L189.3 34.5L181.9 32.6L170.6 29.9L158.7 27.9L146 26.5L137.8 26L129.1 26L116.8 26.6L105.4 27.8L94.3 29.4L94.8 32.3M98.4 53.8L112.3 135.9L125.4 134.3L136.2 134.1L143.2 134.8L149.1 135.8L161.7 139L173.1 142.8L187.5 148.4L219.3 162.4"/><path d="M422.1 184.1L430.7 180.8L446.8 173.8L462 166.4L476.4 158.9L519.2 134.8M465.4 41.2L430.1 61.1L408.4 72.5L390 80.8L381.2 84.1L372.8 86.8L367.1 88.3L359.8 89.7L352.7 90.4L346 90.4L332.3 88.8L323.9 86.9L315.2 84.5L294.9 150.8"/><path d="M658.6 94.3L678.2 97.2M495.4 24.6L465.8 40.9L469.8 47.9M491.8 86.6L519.2 134.8L546.7 119.6L558.7 113.4L568.1 108.9L583.6 102.3"/><path d="M899.5 43.1L867.6 36.4L849.2 32L822.9 24.6M692 24.7L686.2 56.4M682.8 74.9L678.7 97.3L699.5 101.7L720.9 107.1L794.6 128.9L822.1 136.5L832.6 139.1"/><path d="M936.3 51.1L899.5 43.1L898.8 46.3"/><path d="M841.1 663L827.7 660.4L811 655.5"/><path d="M902.6 754.1L926.9 751.2M873 664L861.5 664.3L854.1 664.1L841.1 663L840.9 664.5"/><path d="M995.4 645.3L965.9 651.4M915.5 668L926.9 751.2L927.4 751.1"/><path d="M999.3 644.5L995.9 645.2L999.3 661.2"/><path d="M25 573.4L31.9 570.6M42.8 566.2L62 558.9M55.7 463.9L37.7 469.9L24.9 474.6"/><path d="M156.9 448.7L142.7 448.5L131.6 448.8L120.4 449.6L109.4 451L85.1 455.8L72 459.1L56.2 463.7L81.6 545.9"/><path d="M249.1 462.5L216.3 456.2L194.2 452.5L174.2 450L156.9 448.7L154.2 510"/><path d="M325.2 471.6L310.9 471.3L292.9 469.7L274.2 467L249.1 462.5L244.2 487.7"/><path d="M357 468.2L348.9 469.7L341.9 470.6L325.7 471.6L325.8 480"/><path d="M530 405.4L523.9 407.3L495.1 417.9"/><path d="M660.2 387.6L638.2 387.4"/><path d="M681.1 388.6L660.2 387.6L660.1 390.1"/><path d="M811 496.4L826 498.1M835.4 406.6L811 403.8"/><path d="M867.4 409.1L835.4 406.6L835.3 408.1M826.8 494.8L826.5 498.2L845.5 499.8L913.7 504.5"/><path d="M950 506.9L999.1 510.1M999.2 417.9L946.1 414.4M919.6 424L914.2 504.5L918.2 504.7"/><path d="M41.3 574.4L55.1 563.8"/><path d="M82.2 600.3L55.5 563.4L73.4 551.1L92 539.7L111.1 529.3L130.4 520.2"/><path d="M149.3 561.5L130.8 520L150.9 511.6L171.4 504.4L192.3 498.2L213 493.2"/><path d="M223 537.6L213.5 493.1L234.9 489.1L245.2 487.8"/><path d="M301 530L300 530L300 484L325.3 484.9"/><path d="M28.3 655.4L25 652.4L38.4 638.4L52.4 625L67.2 612.5L82.1 601"/><path d="M109.3 637.5L82.5 600.7L98.5 589.7L115 579.6L132 570.3L149.1 562.2"/><path d="M184.8 548.4L204.2 542.6L222.6 538.2M150.1 563.4L149.5 562L167.4 554.6L172 553"/><path d="M223.8 541.5L223.1 538.1L242.1 534.6L261.3 532L280.6 530.5L300 530"/><path d="M300 576L300 530L319.4 530.5L338.7 532L356.9 534.4"/><path d="M24.6 729.5L28.3 723.5L37.9 709.6L48.2 696.1L58.9 683.6"/><path d="M93 713.6L59.2 683.2L70.9 670.9L83.2 659.2L96.1 648.2L109.2 638.2"/><path d="M136.3 674.7L109.6 637.9L123.5 628.3L138 619.4L152.9 611.3L167.8 604.2"/><path d="M169.2 606.3L168.2 604L183.9 597.5L198.5 592.4"/><path d="M246.8 580.5L266.1 577.8"/><path d="M300 596L300 576L317 576.4L333.9 577.8L350.7 580L357.1 581.2"/><path d="M65.2 764.4L59.2 761L66.8 748.6L75.1 736.6L84 725L93.1 714.4"/><path d="M127.2 744.4L93.4 714L103.4 703.4L114 693.4L125 684L136.2 675.4"/><path d="M163.3 711.9L136.6 675.1L148.6 666.8L161 659.2L173.8 652.3L186.5 646.2"/><path d="M205.4 687.6L186.9 646L200.4 640.5L214.1 635.6L233.2 630.2"/><path d="M273.4 623.3L285.5 622.4L300 622M251.7 672.6L243 632"/><path d="M301.9 668L300 668L300 622L314.5 622.4L329.1 623.5L343.5 625.4L356.8 627.9"/><path d="M350.3 663.1L357.2 631"/><path d="M117.4 757L127.3 745.1"/><path d="M143.2 758.8L135.4 751.8M130.2 747.1L127.6 744.8L136 736L144.8 727.6L154 719.7L163.3 712.6"/><path d="M190.4 749.1L163.6 712.3L173.6 705.4L184 699.1L194.7 693.3L205.2 688.3"/><path d="M224.1 729.6L205.6 688.1L216.9 683.4L228.3 679.4L240 675.9L251.3 673.2"/><path d="M261.2 717.6L251.8 673.1L263.7 670.9L275.7 669.3L287.9 668.3L300 668"/><path d="M301.5 714L300 714L300 668L312.1 668.3L324.3 669.3L336.3 670.9L348.2 673.1L348.1 673.5"/><path d="M347.6 676L348.2 673.1L356.9 675.1"/><path d="M200.1 762.5L190.7 749.5L198.7 744L207 738.9L223.9 730.3"/><path d="M225.7 733.2L224.3 730.1L233.3 726.4L242.5 723.1L251.9 720.3L260.9 718.2"/><path d="M261.8 720.5L261.3 718.1L270.9 716.3L280.6 715L300 714"/><path d="M300 746L300 714L301.5 714"/><path d="M335.9 731L338.7 718.1L350.9 721.2"/><path d="M530 297L530 288.6"/><path d="M530 347.4L530 297.4L583.6 297.4"/><path d="M584 312.7L584 297.4L585 297.4M638 302.8L638 347.8"/><path d="M530 375.3L530 347.8L543.1 347.8"/><path d="M567.8 397.8L567.8 392.4"/><path d="M635.5 347.8L638 347.8L638 398.2M607.4 397.8L607.4 388.3"/><path d="M530 446.4L530 402.6M567.7 398.2L583.6 398.2"/><path d="M584 417.6L584 398.2L599 398.2M606.5 398.2L638 398.2L638 399.2"/><path d="M542.6 353.7L542.9 349.6L543.7 344.8"/><path d="M584 353.7L584 312.7L585.2 312.8"/><path d="M584 395.5L579.1 395.2L574.6 394.4L570.3 393.2L565.4 391.1L560.8 388.4L557.2 385.7L553.9 382.5L550.5 378.4L548.5 375.4L546.8 372.3L544.5 366.4L543.1 360.3L542.6 354.1L583.6 354.1"/><path d="M584 354.1L625.4 354.1L625.1 358.6L623.8 365.6L622.6 369L619.5 375.4L615.2 381.3L612.8 383.9L607.2 388.4L601 391.9L594.2 394.2L587.2 395.4L584 395.5Z"/><path d="M584 110.2L584 77.8L586.2 77L589.8 75.9L594.2 75L598.6 74.6L603.8 74.5L613.5 75.5L636.5 79.6L647.5 81L653.7 81.2L659.1 81.1L664.7 80.6L670.4 79.6L653.1 101.2L670.4 119.2L664.7 120.2L659.1 120.7L653.7 120.8L647.5 120.6L636.5 119.2L613.5 115.1L603.8 114.1L599.3 114.1L594.9 114.5L590.5 115.3L586.5 116.4"/><path d="M591.2 72.4L591 74.2L590.3 75.8L588.7 77.9L586.4 79.2L583.8 79.6L581.2 79L579 77.6L577.5 75.4L576.8 72.8L577.1 70.2L578.4 67.9L580.4 66.2L582 65.5L583.8 65.2L586.4 65.6L588.7 66.9L590.3 69L591 70.6Z" fill="#1F1F1F" stroke="none"/><path d="M561.6 163.2L572.1 139.8L578.2 125.3L584 110.2L595.9 139.8L602 153.8L608.6 167.8"/><path d="M537.1 208.8L548.5 189.1L559.4 167.8L560.4 167.8"/><path d="M584 208.8L584 167.8L608.6 167.8L619.6 189.1L631.2 209.2"/><path d="M507.6 250.3L514.9 241.2L522.2 231.4L529.7 220.4L536.8 209.2L556.5 209.2"/><path d="M556.4 211.1L556.9 209.2L610.6 209.2"/><path d="M611.6 211.1L611.1 209.2L631.2 209.2L638.3 220.4L645.8 231.4L653.1 241.2L660.7 250.6"/><path d="M520.3 283.4L496.4 278.9L483.2 275.8L495.3 264.1L507.3 250.6L532.3 250.6"/><path d="M529.4 284.7L520.7 283.5L522 279.8M531.7 253.3L532.7 250.6L583.6 250.6"/><path d="M647.3 283.5L634.6 285.3L622.3 286.6L596.8 288.2L584 288.4L584 250.6L634.8 250.6"/><path d="M636.3 253.3L635.3 250.6L660.7 250.6L672.7 264.1L684.8 275.8L660.1 281.2L647.3 283.5L646 279.8"/><path d="M490.4 460.8L490.4 418L509.3 418M525.7 418L528.2 418L528.2 446.8L536.3 446.8"/><path d="M537.2 460.8L537.2 450.8M581.9 418L590.3 418"/><path d="M591.2 460.8L591.2 422M639.8 420.5L639.8 418L650.2 418"/><path d="M650.6 460.8L650.6 418L652.1 418"/><path d="M486.8 461.2L509.3 461.2"/><path d="M510.2 504L510.2 464.7M533 461.2L565.6 461.2"/><path d="M566 463.2L566 461.2L623.2 461.2"/><path d="M623.6 467.5L623.6 461.2L680.8 461.2"/><path d="M490.4 543.6L490.4 504.4L515.2 504.4"/><path d="M558.8 504.4L590.8 504.4"/><path d="M591.2 507.3L591.2 504.4L608.8 504.4"/><path d="M650.6 547.2L650.6 520.6M652.4 504.4L680.8 504.4"/><path d="M515.6 547.6L554.8 547.6"/><path d="M612.8 547.6L623.2 547.6"/><path d="M623.6 574.2L623.6 547.6L624.1 547.6"/><path d="M515.6 520.6L515.7 486.5L516.9 480.9L519.4 476L522.5 472.4L525.6 470L529.2 468.1L533 467L537.2 466.6L541.4 467L545.2 468.1L549.4 470.4L553 473.5L555.4 476.6L557.3 480.2L558.4 484L558.8 488.2L558.8 520.6Z"/><path d="M609.2 520.6L609.3 486.5L610.5 480.9L613 476L616.1 472.4L619.2 470L622.8 468.1L626.6 467L630.8 466.6L635 467L638.8 468.1L643 470.4L646.6 473.5L649 476.6L650.9 480.2L652 484L652.4 488.2L652.4 520.6Z"/><path d="M486.8 544L497.2 544"/><path d="M497.6 546.5L497.6 544L515.6 544L515.6 549.4"/><path d="M548 586.8L548 574.6L549.3 574.6M555.2 550.4L555.2 544L605.2 544"/><path d="M605.6 545.5L605.6 544L612.8 544L612.8 550.4M622.7 574.6L631.1 574.6M651.9 574.6L652.4 574.6L652.4 544L657.3 544"/><path d="M657.8 586.8L657.8 544L680.8 544"/><path d="M486.8 587.2L526 587.2"/><path d="M526.4 630L526.4 587.2L580 587.2"/><path d="M580.4 607L580.4 587.2L632.2 587.2"/><path d="M632.6 625L632.6 617.5M632.6 589.2L632.6 587.2L680.8 587.2"/><path d="M486.8 630.4L497.2 630.4"/><path d="M497.6 673.2L497.6 630.4L498.1 630.4"/><path d="M657.8 673.2L657.8 630.4L680.8 630.4"/><path d="M486.8 673.6L510.2 673.6"/><path d="M657.8 673.6L680.8 673.6"/><path d="M497.6 738.4L497.6 716.8L509.8 716.8"/><path d="M657.8 748.3L657.8 740.9"/><path d="M510.2 680.4L510.4 675L511.1 669.3L512.2 663.6L513.8 658L515.8 652.6L518.2 647.3L521.1 642.2L524.1 637.8"/><path d="M527.5 639.7L524.3 637.4L529.2 631.5"/><path d="M561.7 612L561.2 610.6L566.8 609L578.2 607.2L584 607L589.8 607.2L595.5 607.9L601.2 609L606.8 610.6L606.7 611"/><path d="M596.9 641L606.8 610.6L612.2 612.6L617.5 615L622.6 617.9L627.4 621.1L636.2 628.6L643.7 637.4"/><path d="M639.7 640.3L643.7 637.4L646.9 642.2L649.8 647.3L652.2 652.6L654.2 658L655.8 663.6L657.6 675L657.8 680.8"/><path d="M510.2 748.3L510.2 740.9M510.2 719L510.2 680.8L542.2 680.8"/><path d="M625.4 683.3L625.4 680.8L657.8 680.8L657.8 719M657.8 740.9L657.8 748.3"/><path d="M542.6 753.7L542.6 680.8L542.8 676.6L543.4 672.4L545.2 666.2L548.4 659.7L552.6 653.9L557.6 648.9L560.9 646.5L563.6 644.8L570.1 641.7L574 640.6L577.3 639.9L584 639.4"/><path d="M584 738L584 639.4L590.8 639.9L597.9 641.7L604.4 644.8L607.1 646.5L610.4 648.9L615.4 653.9L619.6 659.7L622.8 666.2L624.6 672.4L625.2 676.6L625.4 683.3"/><path d="M576.8 715L576.5 716.8L575.7 718.3L573.6 719.9L571.8 720.4L569.2 719.9L567.7 719L566.3 716.8L566 715L566.3 713.2L567.1 711.7L569.2 710.1L571 709.6L572.7 709.8L575.1 711L576.1 712.4Z" fill="#1F1F1F" stroke="none"/><path d="M602 715L601.7 716.8L600.9 718.3L598.8 719.9L597 720.4L595.3 720.2L592.9 719L591.9 717.6L591.2 715L591.5 713.2L592.3 711.7L594.4 710.1L596.2 709.6L598.8 710.1L600.3 711L601.7 713.2Z" fill="#1F1F1F" stroke="none"/><path d="M486.8 410.5L486.8 463.5M486.8 496.9L486.8 546.3M486.8 583.8L486.8 633.2M486.8 669.6L486.8 676.1"/><path d="M357.2 412.2L357.2 381.1"/><path d="M443.6 408.2L443.6 385.2"/><path d="M357.2 455.4L357.2 442M357.2 414.1L357.2 412.6L362.1 412.6"/><path d="M402.5 412.6L409.9 412.6"/><path d="M440 418.5L440 412.6L443.5 412.6M484.8 412.6L486.8 412.6L486.8 455.8"/><path d="M357.2 498.6L357.2 455.8L400 455.8"/><path d="M400.4 498.6L400.4 472"/><path d="M443.6 498.6L443.6 455.8L486.8 455.8L486.8 463.2"/><path d="M357.2 541.8L357.2 499L392.8 499"/><path d="M393.2 541.8L393.2 499L400.1 499"/><path d="M440 541.8L440 499L486.8 499L486.8 542.2"/><path d="M357.2 585L357.2 542.2L400 542.2"/><path d="M400.4 585L400.4 542.2L443.2 542.2"/><path d="M443.6 585L443.6 542.2L486.8 542.2L486.8 546.1"/><path d="M357.2 628.2L357.2 585.4L392.8 585.4"/><path d="M393.2 628.2L393.2 585.4L439.6 585.4"/><path d="M440 628.2L440 585.4L486.8 585.4L486.8 628.6"/><path d="M357.2 671.4L357.2 628.6L400 628.6"/><path d="M400.4 671.4L400.4 628.6L404 628.6"/><path d="M443.6 671.4L443.6 628.6L486.8 628.6L486.8 633"/><path d="M357.2 714.6L357.2 671.8L392.8 671.8"/><path d="M393.2 714.6L393.2 671.8L401.8 671.8"/><path d="M441.8 671.8L486.8 671.8L486.8 676.2M440 714.6L440 679"/><path d="M357.2 718.6L357.2 715L400 715"/><path d="M443.6 733.9L443.6 719"/><path d="M400.4 472L400.4 429.8L401.2 424.9L403 420.4L405.1 417.1L408.5 413.7L411.8 411.6L415.5 410L419.5 409.1L423.7 409.1L427.7 409.8L432.2 411.6L436.1 414.3L439.3 417.7L441.7 421.8L443.2 426.4L443.6 430.6L443.6 472Z"/><path d="M402.2 679L402.2 636.8L402.8 632.7L404.2 629L406.2 625.7L408.8 622.8L412 620.5L415.6 618.9L419.5 618L422.8 617.8L426.9 618.4L430.6 619.8L434.6 622.3L437.8 625.7L440.2 629.7L441.4 633.5L441.8 637.6L441.8 679Z"/><path d="M422 207.4L422 160.6"/><path d="M357.3 203.3L365.1 203.6L372.6 203L379.8 201.7L396.5 198.1L405.2 197L410.1 197L414.3 197.6L418.5 198.7L422 200.2L422 164.2L417.8 162.5L413.6 161.4L407.3 160.9L400.9 161.4L394.3 162.5L377.5 166.2L367.7 167.5L363.4 167.6L359 167.5L354.6 166.9L350 166L364.4 185.8L361.5 189"/><path d="M429.2 158.8L428.7 161.4L427.3 163.7L425.2 165.2L422.7 166L420 165.7L417.7 164.5L415.9 162.6L415.1 161L414.8 159.2L415.1 156.6L415.9 155L417 153.6L419.2 152.2L421.8 151.6L424.4 152L426.7 153.3L427.9 154.6L428.7 156.2Z" fill="#1F1F1F" stroke="none"/><path d="M401.8 253.4L416.8 220.4L422 207.4L433.1 233.8L444.3 257.8"/><path d="M376 300.6L387.8 280.5L393.7 269.7L399.3 258.6"/><path d="M422 300.6L422 257.8L444.3 257.8L450.4 269.7L456.2 280.5L462.1 290.9L468.3 301"/><path d="M344.6 343.9L352.3 334.5L360.3 324L368.1 312.8L375.7 301L394.6 301"/><path d="M394.3 303.4L395 301L448.6 301"/><path d="M449.7 303.4L449 301L468.3 301L475.9 312.8L483.7 324L499.7 344.2"/><path d="M354.9 380.6L329 376L315.8 373L330.5 359.3L344.3 344.2L368.9 344.2"/><path d="M422 385.6L396 384.9L368.7 382.5L355.3 380.7L356.9 376.6M368.5 346.5L369.4 344.2L421.6 344.2"/><path d="M488.5 380.2L488.7 380.7L475.3 382.5L462.1 383.8L435.7 385.4L422 385.6L422 344.2L474.2 344.2"/><path d="M475.6 346.5L474.7 344.2L499.7 344.2L513.5 359.3L528.2 373L515 376L488.7 380.7L486.8 375.7"/><path d="M810.8 381.1L810.8 718.6"/><path d="M681.2 390.3L681.2 381.1"/><path d="M810.8 381.1L810.8 412.6M767.6 408.2L767.6 385.2"/><path d="M727 412.6L733.8 412.6"/><path d="M764 418.5L764 412.6L767.5 412.6M808.8 412.6L810.8 412.6L810.8 455.8"/><path d="M681.2 463.3L681.2 455.8L724 455.8"/><path d="M724.4 498.6L724.4 472"/><path d="M767.6 498.6L767.6 455.8L810.8 455.8L810.8 499"/><path d="M681.2 507.5L681.2 499L716.8 499"/><path d="M717.2 541.8L717.2 499L724.1 499"/><path d="M764 541.8L764 499L810.8 499L810.8 542.2"/><path d="M681.2 546.2L681.2 542.2L724 542.2"/><path d="M724.4 585L724.4 542.2L767.2 542.2"/><path d="M767.6 585L767.6 542.2L810.8 542.2L810.8 585.4"/><path d="M681.2 628.2L681.2 585.4L716.8 585.4"/><path d="M717.2 628.2L717.2 585.4L763.6 585.4"/><path d="M764 628.2L764 585.4L810.8 585.4L810.8 628.6"/><path d="M681.2 633.1L681.2 628.6L724 628.6"/><path d="M724.4 671.4L724.4 628.6L728 628.6"/><path d="M767.6 671.4L767.6 628.6L810.8 628.6L810.8 671.8"/><path d="M681.2 676.3L681.2 671.8L716.8 671.8"/><path d="M717.2 714.6L717.2 671.8L725.8 671.8"/><path d="M765.8 671.8L810.8 671.8L810.8 715M764 714.6L764 679"/><path d="M714.5 715L724 715"/><path d="M724.4 733.9L724.4 715"/><path d="M767.6 720.9L767.6 715L810.8 715L810.8 718.6"/><path d="M724.4 472L724.4 429.8L725.2 424.9L727 420.4L729.1 417.1L732.5 413.7L735.8 411.6L739.5 410L743.5 409.1L747.7 409.1L751.7 409.8L756.2 411.6L760.1 414.3L763.3 417.7L765.7 421.8L767.2 426.4L767.6 430.6L767.6 472Z"/><path d="M726.2 679L726.2 636.8L726.8 632.7L728.2 629L730.2 625.7L732.8 622.8L736 620.5L739.6 618.9L743.5 618L746.8 617.8L750.9 618.4L754.6 619.8L758.6 622.3L761.8 625.7L764.2 629.7L765.4 633.5L765.8 637.6L765.8 679Z"/><path d="M746 207.4L746 200.2"/><path d="M746 164.2L749.5 162.7L753 161.7L757.2 161L761.4 160.9L770 161.8L789.7 166L798.7 167.3L803.7 167.6L809 167.5L818 166L803.6 185.8L818 202L809 203.5L803.7 203.6L798.7 203.3L789.7 202L770 197.8L761.4 196.9L757.2 197L753 197.7L749.5 198.7L746 200.2Z"/><path d="M753.2 158.8L752.7 161.4L751.3 163.7L749.2 165.2L746.7 166L744.9 165.9L743.2 165.4L741 164L739.5 161.8L738.8 159.2L739.1 156.6L739.9 155L741 153.6L743.2 152.2L745.8 151.6L748.4 152L750.7 153.3L751.9 154.6L752.7 156.2Z" fill="#1F1F1F" stroke="none"/><path d="M725.8 253.4L740.8 220.4L746 207.4L757.1 233.8L768.3 257.8"/><path d="M700 300.6L711.8 280.5L717.7 269.7L723.3 258.6"/><path d="M746 300.6L746 257.8L768.3 257.8L774.4 269.7L780.2 280.5L786.1 290.9L792.3 301"/><path d="M668.6 343.9L676.3 334.5L684.3 324L692.1 312.8L699.7 301L718.6 301"/><path d="M718.3 303.4L719 301L772.6 301"/><path d="M773.7 303.4L773 301L792.3 301L799.9 312.8L807.7 324L823.7 344.2"/><path d="M645.5 374.3L639.8 373L654.5 359.3L668.3 344.2L692.9 344.2"/><path d="M746 385.6L720 384.9L706.8 383.9L692.7 382.5L679.3 380.7L679.7 379.8M692.5 346.5L693.4 344.2L745.6 344.2"/><path d="M812.7 380.7L799.3 382.5L772.9 384.8L759.7 385.4L746 385.6L746 344.2L798.2 344.2"/><path d="M799.6 346.5L798.7 344.2L823.7 344.2L837.5 359.3L852.2 373L839 376L812.7 380.7L811.1 376.6"/><path d="M259.5 758.4L263.2 755.8L266.6 753.7L273.8 750.3L281.4 747.8L289.3 746.4L297.2 746L305.2 746.7L313 748.5L316.8 749.7L321 751.4"/><path d="M901 753.5L908.5 758.4L915.6 764.7"/><path d="M317.3 763.6L318.5 758.7L321.3 751.3L323.3 747.2L325.6 743.4L330.4 737L333.8 733.3L339.1 728.7M348.7 722.6L356.6 719.2L361.4 717.8L369.3 716.4L378.2 716L382.2 716.3L391.1 717.9L399.6 720.8L403.2 722.5L410.9 727.2L418.5 733.7L423.8 739.7L426.6 743.8"/><path d="M741.4 743.8L743.9 740.1L746.4 737L752 731.3L755.1 728.7L759.2 725.8L766.1 721.9L773.6 718.9L781.3 717L785.3 716.4L789.8 716L794.2 716L798.2 716.3L802.2 716.9L807.1 717.9L814.7 720.4L821.9 724L825.3 726.1L828.9 728.7L832.3 731.6L835.2 734.4L840.4 740.5L842.9 744.2L845.1 748.1L848.4 755.4"/><path d="M416.4 754.8L421.6 748.7L426.8 744L433.3 739.3L439.4 736L445.9 733.4L453.6 731.3L460.5 730.2L468.5 730.1L476.4 730.9L483.2 732.4L490.3 735L497 738.3L502.8 742.1L508.9 747.3L514.3 753.2L517.3 757.4"/><path d="M647.1 763.2L651.3 756.4L656.9 749.4L662.8 744L666 741.5L674.1 736.6L678.2 734.8L685.7 732.2L689.6 731.3L694.5 730.5L702.5 730L711.5 730.7L719.2 732.4L726.8 735.2L730.8 737.1L734.7 739.3L741.6 744.3L743.3 745.9"/><path d="M539.7 756.8L542.5 753.9L548 749.5L553.9 745.8L560.2 742.8L566.8 740.4L573.6 738.9L580.5 738.1L587.5 738.1L595.4 739.1L602.2 740.7L608.8 743.2L615 746.3L620.8 750.1L626.2 754.6L631.1 759.6L635.6 765.6"/><path d="M24.8 764.3L27.8 766.1L30.5 768.2"/><path d="M24.8 772.4L28.9 769.5L33.3 767.1L37.9 765.4L42.8 764.3L47.8 764L52.7 764.3L57.6 765.3L62.3 766.9"/><path d="M62.1 767.3L66.7 763.5L71.9 760.4L77.4 758.3L83.8 757L90.2 756.8L96.2 757.6L101.9 759.4L107.2 762.1"/><path d="M96.2 804.9L94.1 799.3L93.1 793.4L93.1 787.4L94.1 781.5L96.2 775.8L99.1 770.6L102.9 766L107.4 762.1L112.6 759L118.1 756.8L124 755.6L130 755.4L135.9 756.3L141.6 758.1L146.9 760.9L149.4 762.7L152 764.9"/><path d="M134.9 811.5L133.1 806.3L132.2 801L132.1 795L133 789.1L134.7 783.9L137.1 779L140.6 774.1L144.8 769.9L149.3 766.7L154.2 764.2L159.9 762.4L165.8 761.5L171.7 761.7L177.6 762.8L183.2 764.8L188 767.5"/><path d="M175.3 816.3L173.1 811.2L171.6 805.4L171 799.5L171.4 793.5L172.8 787.7L174.6 783.1L177.6 777.9L181.4 773.3L185.9 769.3L190.5 766.4L195.5 764.2L201.3 762.6L207.3 762L213.2 762.4L219.1 763.7L224.1 765.7"/><path d="M217.5 808.7L215 803.3L213.5 797.5L213 792.5L213.4 786.5L214.7 780.7L217 775.2L220.3 770.1L224.3 765.7L229.1 762.1L234.4 759.3L240.1 757.4L245 756.6L251 756.6L256.9 757.7L262.5 759.7L265.3 761.2"/><path d="M255.5 807.3L253.2 801.3L252.2 795.4L252.1 789.4L253 783.5L255.1 777.4L258.2 771.7L261.9 767.1L265.4 764"/><path d="M293.8 813.4L292 807.7L291.1 801.8L291.2 795.8L292.2 789.9L293.8 785.2L296.5 779.9L300.1 775L304.3 770.9L309.2 767.4L314.6 764.8L320.3 763.1L326.3 762.3L332.2 762.5L337.1 763.4L342.8 765.4L348.1 768.2"/><path d="M337.3 813.8L335 808.7L333.7 803.9L333.1 799L333.2 793L334.3 787.6L336.2 782.4L338.8 777.6L342.2 773.3L346.6 769.3L350.8 766.5L355.8 764.2L361 762.7L366 762L372 762.2L376.9 763.1L382.1 764.9"/><path d="M377.1 808.7L374.5 803.3L372.7 797.1L372 790.7L372.4 784.7L373.8 778.9L376.4 773L380 767.6L384.1 763.3L388.9 759.7L394.2 757L397.9 755.6L400.8 754.9L406.8 754.2L412.7 754.5L419 755.9L425 758.5L430 761.7"/><path d="M413.6 807.9L411.8 801.7L411 795.8L411.1 792.3L411.4 788.8L412.8 783L415 777.4L416.5 774.8L418.8 771.5L422.8 767.1L427.5 763.4L432.8 760.5L436.5 759.1L439.4 758.3L445.3 757.4L451.2 757.4L457.1 758.4L460 759.3L463.7 760.8L468.9 763.7L473.9 767.8"/><path d="M455.8 813.6L454.1 808.9L453.2 803.5L453.1 798L453.7 793L455 788.2L457 783.7L459.7 779.4L463.6 774.9L467.4 771.7L472.1 768.8L477.2 766.7L482 765.5L487 765L493 765.4L497.9 766.4L503 768.4"/><path d="M497.9 814.2L495.3 809.4L493.2 803.8L492.2 797.9L492.1 792L493 786.1L494.7 780.9L497.1 776L500.6 771.1L504.8 766.9L509.7 763.4L515.1 760.9L517.5 760.2"/><path d="M534.8 806.5L532.5 800.5L531.8 797.6L531.2 793.6L531.1 787.6L531.4 784.7L532.2 780.8L534.4 774.7L537.6 769L542.2 763.8M589.7 760.2L594.6 764.4"/><path d="M575 808.6L573.7 803.7L573 797.8L573.4 791.8L574.6 786.5L576.6 781.4L579.7 776.2L582.9 772.4L587.4 768.5L592.6 765.4L597.2 763.5L603 762.2L608 761.8L613 762.2L618.8 763.5L624.3 765.8L629 768.8"/><path d="M616.4 816.6L614.1 811.6L612.6 805.8L612 799.9L612.3 794.9L613.2 790L615.3 784.4L617.6 780L621.3 775.3L624.8 771.8L629.7 768.4L634.6 766L639.9 764.3L644.8 763.5L650.7 763.5L656.1 764.3L661.4 766"/><path d="M656.3 811.1L653.4 805.2L651.8 799.5L651.2 796.1L651 792.6L651.4 786.6L652.9 780.3L655.5 774.4L658.8 769.4L662.8 765L667.5 761.3L673.2 758.2L679.4 756.1L685.3 755.2L691.2 755.2L697.1 756.2L700 757.1L703.7 758.6L708.9 761.5"/><path d="M695.8 805L693.9 799.3L693.1 793.4L693.2 787.4L694.4 781.5L696.6 775.9L699.7 770.8L703.6 766.3L708.2 762.5L713.5 759.5L719.1 757.5L725 756.5L731 756.5L736.9 757.5L742.5 759.5L747.8 762.5L752.4 766.3"/><path d="M735.1 813.4L733.2 808.2L732.2 802.3L732.1 796.4L732.8 791.4L734.5 785.7L737.1 780.4L740.3 775.9L744.1 772L748 768.9L753.3 766L758.9 764L764.3 763.1L769.7 762.9L775.7 763.7L781.4 765.4L785.9 767.6"/><path d="M775.8 815.8L773.4 810.8L771.8 805.1L771 799.1L771.3 793.2L772.5 787.3L774.4 782.2L777 777.4L780.7 772.7L785.1 768.6L790.1 765.3L795.5 762.8L801.3 761.3L807.3 760.7L813.2 761L819.1 762.3L824.1 764.4"/><path d="M817.3 807.2L815 802.2L813.5 796.4L813 790.5L813.5 784.5L815 778.7L817.5 773.2L820.9 768.3L825.1 764L829.9 760.5L835.3 757.8L841 756.1L847 755.5L853 755.8L858.8 757.2L864.3 759.5L869 762.4"/><path d="M855.1 808L853 801.9L852.1 796L852.2 790L853.2 784.2L855.3 778.6L858.2 773.3L861.9 768.7L866.4 764.7L869.7 762.5L872.3 761.1L877.9 759L883.8 757.8L889.7 757.6L895.7 758.4L901.4 760.1L906.7 762.8L911.5 766.3"/><path d="M894.2 814.9L892.2 809.3L891.2 803.9L891 798.4L891.8 792.5L893.4 786.8L895.8 781.8L898.8 777.2L902.8 772.8L907.5 769.1L912.3 766.4L917.4 764.5L923.3 763.2L929.2 762.9L935.2 763.6L940.9 765.3L945.9 767.6"/><path d="M937.5 812.4L935.4 807.9L933.7 802.2L933 796.7L933.2 791.2L934.3 785.8L936.2 780.7L939.1 775.4L942.2 771.5L946.2 767.8L950.8 764.7L955.3 762.6L961 760.9L966.5 760.2L972 760.4L977.9 761.6L983 763.6"/><path d="M983 764.2L988 760.1L991.5 758L995.1 756.4L999.4 755.1"/><path d="M25 814.3L30 814.3L35.4 815L40.7 816.6L45.2 818.7"/><path d="M45.3 819.4L47.2 817.8L51.9 814.9L57 812.9L61.8 811.7L66.8 811.2L71.7 811.3L76.6 812.2L81.8 813.9"/><path d="M74.6 856.2L72.3 850.1L71.2 843.7L71.1 837.7L72 831.8L73.8 826.1L75.5 822.5L77 820L80.7 815.3L83.6 812.5L85.9 810.6L88.8 808.6L91.9 807L97.4 804.8L103.3 803.5L109.2 803.3L115.2 803.9L118.6 804.8L121.9 805.9L127.2 808.6L132.4 812.5"/><path d="M119.4 864.3L117.5 861.3L116.2 858.6L114.1 853L113.4 849.1L113.1 846.1L113.2 840.1L114.4 834.2L116.6 828.6L118 826L120.3 822.7L124.3 818.3L127 816.1L129.9 814.1L135.3 811.5L138.1 810.5L141.5 809.7L145 809.2L148 809.1L151 809.2L154.5 809.7L157.9 810.5L160.7 811.5L166.1 814.1L168.6 815.8L171.3 818"/><path d="M154.9 864.1L153.2 859.4L152.2 854L152 848.5L152.6 843.6L153.8 838.7L156.1 833.2L158.8 829L162.6 824.4L166.8 820.9L171.5 818L176 816L181.8 814.5L186.8 814L192.7 814.3L197.6 815.3L202.7 817.2"/><path d="M192.9 856.4L191.6 851.1L191 845.1L191.4 839.2L192.5 834.3L194.6 828.7L197 824.4L200.7 819.6L204.3 816.2L208.4 813.3L213.7 810.5L219.4 808.6L224.3 807.8L229.2 807.6L235.2 808.3L240.9 810L246.4 812.5"/><path d="M238.6 859L235.8 853.7L233.9 848L233.4 845.1L233 841.6L233.1 838.1L233.4 835.1L234.7 829.3L236.2 825.6L237.5 822.9L240.9 817.9L242.9 815.7L245.5 813.3L248.2 811.2L250.8 809.6L256.2 807.1L260.1 806L263 805.5L269 805.1L272.5 805.4L275.9 806L281.6 807.9L286.9 810.7L291.7 814.3"/><path d="M277.1 865.1L275.5 862.1L274.1 858.8L272.6 853.1L272 847.1L272.4 841.2L273.8 835.4L276.1 829.9L279.4 824.8L283.7 820.1L288.9 816.1L294.2 813.4L299.9 811.6L305.8 810.7L311.7 810.8L318.1 812.1L324.1 814.4L329.2 817.5"/><path d="M312.9 861.2L311.6 855.9L311 851L311.3 845L312.2 840.1L313.8 835.4L316.5 830L319.7 825.6L323.6 821.7L328.4 818.1L332.8 815.8L337.4 814L343.3 812.8L349.2 812.5L354.2 813L359.1 814.2L364.1 816.2"/><path d="M356.2 856.7L354.3 851.6L353.2 846.2L353.1 840.2L353.7 835.3L355 830.4L357.5 825L360.3 820.8L364.3 816.4L368.7 813L373.5 810.4L378.1 808.6L384 807.4L390 807.3L395.9 808.1L401.6 810L406.1 812.2"/><path d="M397.9 861L394.9 855.3L393.7 852L392.8 848.7L392.2 844.7L392 841.7L392.4 835.8L394 829.5L396.6 823.6L400.3 818.3L404.8 813.7L410.1 810L416 807.3L419.9 806.2L422.8 805.6L428.7 805.3L431.7 805.4L435.7 806.1L441.4 807.8L445 809.5L447.6 811L452.6 815"/><path d="M434.8 865.1L432.5 859.1L431.3 853.2L431 847.3L431.8 841.3L433.4 835.6L436 830.2L439.4 825.3L443.6 821L448.4 817.4L451.4 815.7L454.6 814.3L460.3 812.6L466.3 811.8L472.2 812L478.1 813.2L483.7 815.3L488.9 818.2"/><path d="M475.2 860L473.7 854.7L473.1 849.8L473.1 844.8L473.9 839.9L475.4 835.1L477.5 830.6L480.3 826.4L483.6 822.7L487.4 819.5L491.7 816.8L496.2 814.8L501.5 813.4L507 812.8L512 813L516.9 813.9L521.6 815.5"/><path d="M515.7 856.4L513.5 850.8L512.3 845L512 839L512.8 833.1L514.5 827.4L517.1 822L520.6 817.2L524.8 813L529.7 809.5L535.1 806.9L540.8 805.2L546.8 804.5L552.7 804.8L558.6 806.1L564.1 808.3L569.2 811.4"/><path d="M556.5 862.8L555 860.2L553.4 856.5L551.8 850.8L551.2 847.3L551 843.9L551.1 840.9L551.6 836.9L553.3 830.7L556 824.8L557.6 822.3L560.1 819.1L562.1 816.9L565.1 814.3L568.4 812L571 810.5L574.6 808.9L577.4 807.9L580.3 807.2L584.3 806.6L590.2 806.4L593.7 806.8L597.1 807.5L603.2 809.7L608.9 812.8L611.7 814.9L614.3 817.3"/><path d="M596.6 865.3L594.6 860.2L593.4 854.9L593 848.9L593.5 843.9L594.7 839.1L597 833.6L599.7 829.3L603.3 825.2L607.4 821.6L611.7 818.9L617.2 816.6L622 815.4L627 814.9L633 815.3L638.3 816.5L643.4 818.5"/><path d="M634.1 857.6L632.8 852.8L632.1 847.9L632.2 841.9L633 837L634.9 831.3L637.1 826.9L640 822.8L643.3 819.1L647.2 816L652.3 813L657 811.1L661.8 809.9L666.8 809.4L672.7 809.7L677.6 810.7L682.7 812.5"/><path d="M675.3 857.3L672.8 851.3L671.9 847.9L671.3 844.5L671 840.5L671.1 837.5L672 831.6L673.8 825.9L675.5 822.3L677 819.7L680.7 815L683.6 812.2L685.9 810.3L689.2 808.1L691.9 806.7L697.4 804.6L700.3 803.8L704.3 803.2L710.2 803.1L713.7 803.5L717.1 804.2L722.8 806.1L726.4 807.9L728.9 809.5L733.9 813.6"/><path d="M719.1 865.7L716.2 860.5L714.1 854.8L713.5 851.9L713.1 848.4L713 844.9L713.2 841.9L714.4 836.1L715.4 833.2L716.8 830L718.6 827L720.3 824.5L724.3 820.1L729.1 816.5L734.4 813.7L737.2 812.6L740.6 811.7L744 811.1L747 810.9L753 811.3L758.8 812.6L764.3 815L766.9 816.5L769.8 818.5"/><path d="M754.5 862.9L753 858.1L752.2 853.2L752.1 847.3L752.8 842.3L754.1 837.5L756.6 832.1L759.4 828L762.6 824.2L766.4 821L771 818L776 815.8L780.8 814.5L786.8 813.8L791.7 814L796.6 814.8L801.8 816.5"/><path d="M793.4 856L791.8 850.3L791 844.4L791.3 838.4L792.3 833L794.2 827.8L797 822.6L800.7 817.9L805.1 813.8L810.1 810.5L814.6 808.4L820.3 806.7L826.3 805.9L831.2 806L837.1 807L842.8 808.9L848.1 811.8"/><path d="M839.4 861L837.5 858L836.2 855.3L834.1 849.7L833.5 846.8L833.1 843.3L833 839.8L833.2 836.8L833.7 833.8L834.6 830.5L835.8 827.2L837 824.5L838.6 821.9L840.6 819L842.9 816.4L845.1 814.3L849.9 810.8L853 809.2L856.2 807.8L859.1 806.9L863 806.2L869 805.8L872 806L875.4 806.6L878.8 807.5L881.6 808.6L884.8 810.1L887.8 811.9L892.4 815.7"/><path d="M876.4 865.4L874.1 860.4L872.6 854.7L872 848.7L872.4 842.8L873.8 837L876.1 831.5L879.4 826.4L883.3 822L888 818.3L893.3 815.4L898.9 813.4L904.8 812.4L910.7 812.3L916.6 813.3L922.3 815.2L927.1 817.7"/><path d="M912.8 859.7L911.4 853.8L911 848.9L911.3 843.4L912.5 838L914.4 832.9L917 828.1L920.1 824.1L923.6 820.6L928.4 817L932.8 814.7L937.4 812.9L943.3 811.7L949.2 811.4L954.2 811.9L959.1 813.1L964.1 815.1"/><path d="M956.8 856.8L954.7 851.7L953.5 846.9L953 841.9L953.2 836.9L954.3 831.5L956.2 826.4L958.6 822L961.5 818L965.5 814.1L969.9 810.9L974.4 808.7L979.1 807.1L984 806.1L989 805.9L994 806.4L999.3 807.8"/><path d="M997.9 862.4L995.3 857.7L993.2 852L992.4 847.6M992.5 837.5L994.1 830.5L996.6 825L999.4 820.9"/><path d="M24.8 864.8L29.7 861.3L34.2 859.1L39.9 857.3L44.8 856.5L49.7 856.4L55.7 857.2L61.4 858.9L65.9 861.1"/><path d="M66.1 861.5L67.5 860.3L72.8 857.4L76 856.1L79.4 855.2L85.8 854.2L92.2 854.4L98.6 855.7L104.6 858.1L110.5 861.8L114.9 865.8"/><path d="M95 910.4L93.7 905.6L93 899.6L93.2 894.7L94.3 889.3L96.2 884.1L98.6 879.7L101.5 875.7L105.8 871.5L109.9 868.7L115.3 866L120.6 864.4L126 863.7L132 863.9L136.9 864.8L141.6 866.4L146.5 868.9"/><path d="M137.1 916.4L134.5 911.1L133 906.3L132.1 900.4L132.2 894.4L133.1 889L134.9 883.9L137.4 879L140.6 874.6L144.8 870.4L149.7 866.9L154.2 864.7L159.9 862.9L164.8 862.1L170.7 862L175.7 862.7L181.4 864.5"/><path d="M176 909.2L173.4 903.8L172.5 900.9L171.6 897.1L171 891.1L171.1 887.6L171.6 884.1L172.5 880.3L173.4 877.4L176 872L179.7 866.7L184.3 862.2L189.6 858.5L195.5 855.8L201.3 854.2L204.3 853.8L208.2 853.6L212.2 853.8L215.2 854.3L220.9 855.9L226.4 858.5L231.7 862.2"/><path d="M215.2 905.4L213.7 900.2L213 894.2L213.4 888.2L214.7 882.4L217 876.9L220 872.2L223.6 868.1L228.2 864.3L233.5 861.4L239.1 859.4L245 858.3L250.5 858.3L255.9 859.1L261.6 861L266.9 863.8L271.7 867.4"/><path d="M255.3 914.8L253.5 910.2L252.3 904.3L252 898.4L252.6 893.4L253.8 888.6L256.1 883.1L258.8 878.9L262.6 874.3L266.8 870.8L271.5 867.9L276 865.9L281.8 864.4L286.8 863.9L292.7 864.2L298.6 865.4L303.7 867.4"/><path d="M296.3 914.5L293.4 908.7L291.8 903L291 897L291.3 891.1L292.5 885.2L294.6 879.6L297.6 874.4L301.4 869.8L305.9 865.9L311 862.7L316.5 860.4L322.3 859L328.2 858.5L334.2 859.1L340 860.5L345.5 862.9"/><path d="M336.6 905.4L334.4 899.9L333.2 894L333.1 888L333.9 882.1L335.8 876.4L338.6 871.1L342.2 866.3L346.6 862.3L351.7 859L357.2 856.7L363 855.4L369 855L375 855.7L380.7 857.4L386.1 860L390.9 863.5"/><path d="M374.9 909.8L373 904.1L372.1 898.2L372.2 892.3L373.2 886.4L375.3 880.8L378.2 875.6L381.9 870.9L386.4 867L391 864L396 861.8L401.8 860.3L407.8 859.8L413.7 860.2L419.5 861.6L425 864L430 867.3"/><path d="M414.6 915.7L412.6 910.6L411.4 905.3L411 899.3L411.6 893.4L412.8 888.5L415 883L418.2 877.9L422.1 873.4L426.7 869.6L431.4 866.7L436.5 864.6L442.3 863.2L448.2 862.8L453.2 863.2L459.1 864.5L464.6 866.7"/><path d="M457.8 910.7L455.4 905.7L453.7 900L453.1 895L453.2 889L454.4 883.2L456.6 877.6L459.7 872.4L462.9 868.6L467.4 864.7L472.1 861.8L477.2 859.7L483 858.4L489 858L495 858.7L500.7 860.4L505.2 862.5"/><path d="M495.9 907L493.5 901L492.3 895.2L492 891.2L492.1 888.2L493 882.3L495.1 876.2L498.2 870.5L501.9 865.9L506.4 861.9L509.7 859.7L512.3 858.3L517.9 856.1L523.8 855L529.7 854.7L535.7 855.5L541.4 857.3L547.1 860.2L552.3 864.1"/><path d="M533.6 911.7L532 906.5L531.1 900.6L531.2 894.6L532.2 888.7L534.2 883.1L537 877.8L540.7 873.1L545.1 869L550.1 865.7L555.5 863.3L561.3 861.7L567.3 861.1L573.2 861.5L579.1 862.8L584.6 865L589.7 868.1"/><path d="M576.8 914.4L574.7 909.3L573.5 904.5L573 899.5L573.4 893.5L574.4 888.6L576.4 883.5L579.1 878.7L582.2 874.8L586.2 871.1L590.8 868L595.3 865.9L600.6 864.3L606 863.6L611 863.6L615.9 864.4L621.6 866.3"/><path d="M617.6 910.4L614.9 905.1L613 899.4L612.1 893.5L612.2 887L613.5 880.7L615.7 875.1L618.8 870L622.6 865.5L627.2 861.6L632.3 858.6L637.9 856.4L640.8 855.7L644.8 855.2L650.7 855.1L656.6 856.1L662.3 858L668 861.1"/><path d="M654 907.1L652 900.9L651.1 895L651.2 888.6L652.5 882.2L653.4 879.4L655 875.7L658.2 870.6L662.1 866.1L665.1 863.5L667.5 861.7L673.2 858.6L679.4 856.6L682.3 856L686.3 855.6L692.2 855.8L698.1 856.9L701.9 858.2L704.6 859.5L709.7 862.6L714.6 866.8"/><path d="M695.4 912.3L693.9 907.6L693.1 902.1L693.1 896.6L693.9 891.7L695.8 886L698 881.6L700.9 877.5L704.3 873.8L708.2 870.7L713.5 867.8L718.1 866L723.5 864.9L729 864.6L734 865.1L739.3 866.5L744.3 868.7"/><path d="M737.6 915.6L734.9 910.3L733 904.7L732.2 899.8L732.1 893.8L733 887.9L734.9 882.2L737.4 877.3L740.6 872.9L744.8 868.7L749.3 865.5L754.2 863L759.9 861.2L765.8 860.3L771.7 860.5L777.6 861.6L782.3 863.2"/><path d="M775.5 907.7L772.9 901.8L771.4 895.5L771 889.5L771.2 886.1L771.8 882.6L773.4 876.9L775 873.2L778.5 867.7L780.7 865L785.1 861L790.5 857.4L796.5 854.9L802.3 853.5L809.2 853.1L815.2 853.7L821.9 855.7L823.4 856.5"/><path d="M815 906.8L813.7 902L813 896L813.4 890L814.7 884.2L816.8 879.1L819.7 874.4L823.6 869.9L826.3 867.7M834.9 862.7L838.1 861.4L844 860.2L850 860.1L855.9 860.9L860.7 862.4L866.1 865L870.5 868.2"/><path d="M855.9 916.3L853.8 911.2L852.4 905.4L852 900.5L852.4 894.5L853.8 888.7L855.7 884.1L858.5 879.4L861.9 875.1L866 871.5L870.6 868.5L875.1 866.4L880.8 864.7L886.8 864L891.7 864.2L897.6 865.3L902.3 866.9"/><path d="M896.3 912.7L893.4 906.9L891.8 901.2L891 895.2L891.3 889.2L892.5 883.4L894.8 877.3L898.2 871.8L902.1 867.3L907.1 863.2L912.8 860L918.4 858L924.3 856.9L930.2 856.8L936.2 857.6L941.9 859.4L947.2 862.1"/><path d="M936.2 904.9L934.1 899.3L933.1 893.4L933.1 887.4L934.1 881.5L936.2 875.8L939.1 870.6L942.9 866L947.4 862.1L952.6 859L958.1 856.8L964 855.6L970 855.4L975.9 856.3L981.6 858.1L984.5 859.6"/><path d="M974.9 911.5L973.5 907.8L972.6 903.9L972 897L972.5 892L974.1 885.3L977.6 878.1L982.6 871.9L986.4 868.8"/><path d="M25 910.8L30 910.8L34 911.2L38.8 912.4L43 914.1"/><path d="M35.6 955.4L33.2 949.4L32.4 945.5L32 939.5L32.6 933.6L34.1 927.8L37.1 921.5L40.6 916.6L44.8 912.4L49.7 909L55.1 906.4L60.8 904.7L67.8 904L73.7 904.5L80.4 906.2L85.9 908.7L91.2 912.4"/><path d="M76 964.2L73.4 958.8L72.3 955.4L71.6 952L71 946.1L71.1 943.1L71.6 939.1L72.3 935.7L73.4 932.4L74.8 929.2L76.5 926.2L78.8 922.9L80.7 920.6L85.1 916.5L90.1 913.2L92.8 911.9L96.5 910.4L102.8 909L109.2 908.6L115.2 909.3L118.6 910.1L121.9 911.3L127.2 914L130.5 916.2L132.8 918.1"/><path d="M115.8 963.5L114.1 958.7L113.2 953.8L113.1 947.9L113.7 942.9L115 938.1L117.3 933.1L120.3 928.5L123.6 924.7L127.4 921.5L132.1 918.7L137.2 916.6L142 915.4L147 914.9L152 915.1L156.9 916L162.1 917.8"/><path d="M154.5 956.3L153 951.6L152.1 945.7L152.2 939.7L153 934.8L154.7 929.6L157.1 924.7L160 920.6L164.1 916.3L168 913.2L173.3 910.3L177.9 908.6L183.8 907.4L189.7 907.2L194.7 907.8L200 909.2L205 911.4"/><path d="M196 959.2L193.4 953.8L192.3 950.5L191.6 947.1L191.1 943.6L191 940.1L191.2 937.1L191.8 933.2L193.4 927.4L194.8 924.3L196.5 921.2L198.8 917.9L200.7 915.6L203.6 912.8L205.9 911L208.4 909.3L211.9 907.3L217.4 905.2L220.3 904.4L224.3 903.8L227.8 903.6L231.2 903.8L234.7 904.2L238.1 905L244.1 907.3L249.7 910.7L252.1 912.5L254.9 915.3"/><path d="M238 966L235.4 960.7L233.7 954.9L233 949L233.3 943.5L234.4 938.1L236.6 932.5L239.7 927.4L243.6 922.9L248.2 919.1L253.5 916.1L259.1 914.1L265 913.1L271 913.1L276.9 914.1L282.5 916.1L287.3 918.8"/><path d="M274.1 960.8L272.8 956L272.1 950.6L272.2 945.1L273 940.2L274.7 935L277.1 930.1L280 926L283.3 922.4L287.2 919.2L291.5 916.6L296 914.7L300.8 913.3L306.8 912.6L311.7 912.8L316.6 913.7L321.4 915.2"/><path d="M314 955.7L312 949.5L311.1 943.6L311.2 937.6L312.2 931.7L314.2 926.1L317 920.8L320.7 916.1L325.1 912L330.1 908.7L335.5 906.3L341.3 904.7L347.8 904.1L354.2 904.6L360 906.1L365.5 908.5L370.5 911.7"/><path d="M359.7 963L356.6 957.8L355 954.2L354.1 951.3L353.5 948.4L353.1 944.4L353.2 938.4L353.8 934.9L354.7 931.6L357 926.1L360.3 921L362.6 918.4L365.1 915.9L369.9 912.4L373.5 910.6L376.2 909.4L380.1 908.3L383 907.7L389 907.4L392.5 907.7L395.9 908.3L401.6 910.1L406.9 912.9L409.4 914.7L412 916.9"/><path d="M395.5 965L393.5 959.9L392.3 954L392 949.1L392.6 943.1L394 937.8L396.1 932.8L399.4 927.8L403 923.7L407.2 920.2L412.3 917.1L417.9 915L422.8 913.9L427.8 913.6L433.7 914L439.5 915.5L444.5 917.6"/><path d="M432.8 957.7L431.4 951.9L431 946.9L431.4 941L432.5 936.1L434.6 930.5L437 926.2L440.4 921.8L444.3 918L448.4 915.1L453.7 912.3L459.4 910.5L464.3 909.6L469.2 909.5L475.2 910.1L480 911.4L485 913.6"/><path d="M477.8 957.7L476.2 954.6L475 951.8L473.5 946L473 940.1L473.5 934.1L475 928.3L476.6 924.6L478 922L481.5 917.1L485.8 913L490.8 909.6L496.2 907.1L502 905.6L508 905.1L514 905.6L519.8 907.1L525.2 909.6L527.8 911.2L530.5 913.3"/><path d="M517.6 964.2L514.9 958.9L513 953.2L512.3 949.3L512 946.3L512.3 940.4L513 936.4L513.8 933.6L516.1 928.1L519.7 922.6L524.1 917.9L528.9 914.3L534.6 911.4L540.8 909.6L546.8 908.9L549.7 908.9L553.7 909.3L559.5 910.7L563.2 912.2L565.9 913.6L570.8 917"/><path d="M553.4 963.2L551.9 957.9L551.1 952.5L551.2 946.5L552.1 941.1L553.8 935.9L556.5 930.5L559.7 926.1L563.6 922.2L568.4 918.6L572.8 916.3L577.4 914.5L583.3 913.3L589.2 913L594.2 913.5L600 915L605 917.1"/><path d="M595.8 957.5L594.1 952.8L593.1 946.9L593.1 941.9L593.8 936.4L595.4 931.2L597.5 926.7L600.6 922.1L604.3 918.1L608.2 915L613 912.3L618.1 910.3L623 909.2L629 908.9L634 909.4L638.8 910.6L644.3 912.9"/><path d="M637.4 959.2L634.5 953.5L632.8 947.7L632.2 944.3L632 940.8L632.4 934.9L633 931.9L634.1 928.1L636.6 922.7L640.3 917.3L644.8 912.8L649.7 909.3L652.3 907.9L656 906.4L662.3 904.8L668.7 904.3L675.2 905L681.4 906.9L684.5 908.3L687.6 910.1L692.3 913.7"/><path d="M675.5 965L672.9 959.1L671.4 952.8L671 946.8L671.2 943.3L671.8 939.9L673.4 934.2L676 928.8L677.6 926.2L680.1 923.1L684.3 918.9L689.2 915.5L694.6 912.8L700.3 911.1L704.3 910.5L707.3 910.3L713.7 910.8L720 912.3L725.5 914.7L730.9 918.3"/><path d="M715.4 961.8L713.9 957L713.1 952.1L713.1 947.1L713.8 941.6L715.4 936.4L717.5 931.9L720.3 927.7L723.6 924L727.4 920.8L731.7 918.1L736.2 916.1L741 914.8L746.5 914.1L752 914.3L756.9 915.2L761.6 916.8"/><path d="M755.1 956.1L753.2 951L752.2 945.1L752.1 939.1L753 933.2L754.9 927.6L757.4 922.7L760.6 918.3L764.8 914.1L769.7 910.6L774.6 908.2L779.9 906.6L785.8 905.7L791.7 905.8L796.6 906.7L802.3 908.6L807.1 911.1"/><path d="M796.5 961.2L795 958.6L793.4 955L791.8 949.2L791.2 945.8L791 942.3L791.1 939.3L791.6 935.3L792.3 931.9L793.4 928.6L795 925L796.5 922.4L798.5 919.5L800.7 916.8L805.5 912.4L811 908.9L814.6 907.3L817.4 906.3L820.3 905.6L824.3 905L827.8 904.8L831.2 904.9L834.7 905.4L838.1 906.2L844.1 908.5L849.7 911.8L852.1 913.7L854.9 916.4"/><path d="M837.3 966L835 961L833.5 955.2L833 950.2L833.4 944.2L834.7 938.4L836.8 933.3L839.7 928.6L843.6 924.1L847.4 920.9L852.6 917.8L857.7 915.8L863 914.6L869 914.2L875 914.9L880.7 916.6L885.2 918.7"/><path d="M874 958.9L872.6 953.6L872 948.6L872.2 943.7L873 938.7L874.5 934L876.9 929.1L880 924.5L883.3 920.9L887.2 917.7L892.3 914.7L897 912.9L901.8 911.7L906.8 911.2L911.7 911.3L916.6 912.2L921.8 913.9"/><path d="M914.6 956.2L912.5 950.6L911.8 947.7L911.2 943.7L911.1 937.7L912.1 931.3L914.2 925.2L917 920L920.7 915.2L923.2 912.8L925.9 910.6L931.4 907.2L937.4 904.8L943.3 903.5L949.2 903.3L955.2 903.9L958.1 904.6L961.9 905.9L967.2 908.6L972.4 912.5"/><path d="M959.4 964.3L956.6 959.5L954.7 954.9L953.4 949.1L953 944.1L953.4 939.1L954.7 933.3L956.8 928.2L959.7 923.5L963.3 919.3L967.4 915.8L972.1 912.9L977.2 910.8L983 909.4L988 909.1L994 909.6L999.3 911"/><path d="M994.9 964.1L993.2 959.4L992.3 954.5M992.6 944L993.2 940.6L994.9 935.9L997.1 931.5L999.4 928.2"/><path d="M36.8 958.1L42.8 956.6L51.7 956.4L55.7 957.1L61.4 958.8L63.4 959.9M64.7 960.5L67.1 961.8L70.4 964.3"/><path d="M72.8 965.8L79.4 963.5L84.3 962.7L89.2 962.5L93.2 962.9L98.1 963.9L102.8 965.6L107.2 967.9"/><path d="M93.1 999.1L93.1 994.6L93.5 990.6L94.7 985.8L96.2 982.1L98 978.5L100.9 974.4L104 971.2L107.4 968.3L111.2 965.9L115.3 964L120.1 962.5L124 961.8L128 961.6L133 962L137.9 963L142.1 964.6"/><path d="M133.1 999L132.2 993.6L132.1 987.6L133 981.7L134.5 977L136.9 972L140 967.5L144.1 963.2L148.4 959.9L153.3 957.3L158.9 955.3L163.8 954.3L169.7 954.1L175.7 954.9L180.4 956.3L185.9 958.8L190.4 961.9"/><path d="M171.3 999.1L171 994.2L171.6 988.2L173.1 982.4L175.5 977L178.8 972L182.1 968.2L186.7 964.4L191.4 961.6L196.5 959.5L202.3 958.1L208.2 957.7L213.2 958L219.1 959.4L224.6 961.6L229.7 964.7L233.5 967.9"/><path d="M228.6 970.9L233.5 968.2L237.7 966.6L242 965.5L246 965L250.5 965.1L255 965.7L258.8 966.7L262.5 968.2"/><path d="M252.3 999L252 994.5L252.3 989.6L253.2 984.7L254.9 980L257.1 975.5L260 971.5L263.3 967.8L267.2 964.7L271.5 962.1L275.6 960.3L279.9 959L284.8 958.2L289.7 958.1L294.7 958.7L299.5 959.9L304.1 961.8"/><path d="M292.1 999.1L291.1 992.7L291.2 986.8L292.2 980.9L294.2 975.2L297 970L300.7 965.3L305.1 961.2L310.1 957.9L315.5 955.4L321.3 953.9L327.3 953.3L333.2 953.6L339.1 954.9L344.6 957.2L349.7 960.3L354.6 964.5"/><path d="M333.1 999.2L333.1 994.2L333.8 989.7L335 985.4L337 980.8L339.7 976.6L342.9 972.8L346.6 969.5L350.8 966.7L355.3 964.6L360.1 963.1L365 962.3L370 962.2L375 962.9L379.8 964.2L384.3 966.2L388.6 968.9"/><path d="M372 999.2L372.3 994.7L373 990.8L374.1 987L376.1 982.4L378.5 978.6L381.3 975.1L384.8 971.6L388 969.2L391.5 967.2L395.6 965.4L399.9 964.1L403.8 963.4L407.8 963.2L412.7 963.5L417.1 964.4L421.4 965.8"/><path d="M421.2 966.5L423.6 964L428.4 960.4L432.8 958L438.4 956L444.3 954.9L449.2 954.8L454.7 955.4L460 956.7L464.6 958.7L469.7 961.8"/><path d="M453.8 999.1L453.1 993.7L453.2 987.7L454.3 982.3L456.2 977.1L458.6 972.7L462.2 968L466.2 964.2L470.8 961.2L475.3 959L481 957.4L487 956.7L493 957L498.3 958.2L503.4 960.2L508.6 963.3L512.4 966.6"/><path d="M492 999.1L492.3 994.6L493.2 989.8L494.7 985.5L496.6 981.5L499.4 977.3L502.3 973.9L505.6 970.9L509.7 968.1L514.2 965.9L518.4 964.4L522.8 963.5L527.8 963.1L531.7 963.3L536.6 964.2L541.4 965.7L545.4 967.6"/><path d="M531.1 999.3L531.1 994.8L531.8 989.9L533.1 985L535 980.5L537.6 976.2L540.7 972.3L543.9 969.2L547.5 966.5L551.9 964L556.5 962.1L561.3 960.9L566.3 960.3L570.2 960.4L575.2 961L580 962.3L584.6 964.2"/><path d="M574.1 999.2L573.2 994.3L573.1 988.3L573.8 982.9L575.4 977.6L578 972.2L580.9 968.1L584.7 964.2L589.1 960.9L593.5 958.5L599.1 956.4L604 955.5L610 955.4L615.4 956.1L620.7 957.7L625.2 959.8L629.8 962.9"/><path d="M612.4 999.4L612 994.4L612.4 988.5L613.8 982.7L615.7 978.1L618.5 973.3L621.9 969.1L626 965.4L630.6 962.4L635.1 960.3L640.8 958.7L646.8 958L651.7 958.1L657.6 959.2L662.3 960.9L667.6 963.7L671.5 966.7"/><path d="M651 999L651.4 994.5L652.5 989.6L653.8 985.9L656 981.4L658.8 977.3L662.1 973.6L665.9 970.3L669.6 967.9L673.7 965.9L678.4 964.3L683.3 963.3L688.2 963L692.2 963.2L697.1 964.1L701.9 965.7L705.9 967.6"/><path d="M693.3 999.3L693 994.8L693.4 989.8L694.3 985.4L695.8 981.2L698 976.7L700.3 973.4L703.6 969.7L707.4 966.5L711.7 963.8L715.8 962L720.1 960.7L725 959.9L730 959.8L734.5 960.4L738.8 961.5L743.4 963.4"/><path d="M733.1 998.9L732.2 993.6L732.1 987.6L733 981.7L734.5 976.9L737.1 971.6L740.3 967.1L744.1 963.2L748.9 959.6L753.3 957.2L758.9 955.2L764.8 954.2L770.7 954.2L776.6 955.1L781.4 956.6L784.5 958.2M785.4 958.6L791.5 962.8"/><path d="M771.1 999L771.1 994L772 988.1L773.4 983.3L776 977.9L779.4 973L782.8 969.4L787.1 965.9L791.9 963.2L796.5 961.3L801.8 960L807.3 959.5L812.2 959.7L817.1 960.6L822.8 962.6L827.2 964.9L832.1 968.4"/><path d="M813 999L813.4 994.6L814.1 990.6L815.8 985.9L817.5 982.3L819.7 979L822.2 975.9L825.5 972.8L829.1 970.1L833 967.9L837.2 966.3L841 965.2L845 964.7L849 964.6L853 964.9L857.4 965.8L861.6 967.3"/><path d="M861.3 968.3L863.3 966.1L867.2 963L872.3 959.9L877 958.1L881.8 956.9L886.8 956.4L891.7 956.5L896.6 957.4L901.4 958.9L905.9 961.1"/><path d="M891.9 999.1L891 992.6L891.3 986.7L892.5 980.8L894.6 975.2L897.6 970L901.4 965.4L905.9 961.5L911 958.3L916.5 956L922.3 954.6L928.2 954.1L934.2 954.7L940 956.1L945.5 958.5L950.5 961.8L954.9 965.8"/><path d="M933 999.1L933.2 994.7L934.1 989.8L935.8 985L937.5 981.4L939.7 978.1L942.9 974.3L946.6 970.9L950.8 968.2L954.4 966.4L959.1 964.8L964 963.9L969 963.7L973 964L977.9 965.1L982.5 966.8L986.5 968.9"/><path d="M984.9 970.5L988 968L993.3 965.1L999.4 963"/><path d="M227.1 220.9L233 206.8L236.4 199.8L240 193.3L243.4 187.7L247 182.7L250.5 178.4L253.9 174.8L257.2 172L260.4 170L263.3 168.8L266 168.5L268.4 169.1L270.5 170.6L272.4 173.2L273.7 176.5"/><path d="M81.1 267.8L78.3 267.7L71.3 268.4L68 268.9L61.6 270.4L55.5 272.4L49.6 274.8L43.8 277.6L40.6 279.4L37.3 281.7L34.4 284L29.7 288.5L24.8 294M25.2 333.1L28.6 332.9L30.5 332.5L34.2 330.8L35.9 329.6L39.6 325.9L49.6 315.1L54 311.1L56.7 309.2L62.6 306.9L68.2 305.3L73.7 304.5L78.6 304.4L82.8 305.1L90.6 309.2"/><path d="M59.6 382.7L61.7 373.1L62.9 369.2L64.8 364.7L68.1 360.9L70.9 358.4L75.4 355L80.4 352L82.4 351M129.5 307L125.6 305.9L122.9 305.6L120.2 305.7L100.5 308L92 309.2L82.9 311.1L76.1 313.3L69.7 316.1L61.2 321.1L53.7 326.7L46.7 333.2L42.4 337.9L38.2 343.6L36.1 347.1L34.3 350.8L33.1 353.9L31.2 360.6L29.6 369.4L27.8 383.2L27.9 387.2L28.4 389.2L29.1 391.1L31.2 394.5L32.6 396L35.9 398.4L37.7 399.2L40.3 399.9L43.7 400.2L45.7 400L49.5 398.9L52.4 397.2L54.5 395.4L56.8 392.1L57.7 390.3L58.8 386.2"/><path d="M70.7 404.6L73.4 415.1L76.8 426.1L77.6 427.9L79.9 431.3L81.9 433.1L84.7 434.9L88.6 436.1L91.3 436.3L94.6 436L98.4 434.7L101.7 432.4L104.4 429.3L106.1 425.6L106.7 423M119.4 322L116.6 323.5L104.3 331.7L97.2 336.8L92.3 340.7L87 345.7L84.4 348.8L82.2 351.9L78.6 357.9L75.7 364L73.3 370.9"/><path d="M225.4 372L230.9 379.3L234.3 384.4L236 387.6L236.8 389.6L236.7 388.6L234.5 392.4"/><path d="M250 403.5L233.5 392.5L230 397.2L223.6 405L220.4 409.9L219 414.2L218.7 418.6L219 420.9L220.4 425.1L223 428.8L224.6 430.4L227.7 432.5L230.4 433.8L232.6 434.3L236.3 434.6L239.3 434.3L243.5 432.8L247.2 430.3L248.8 428.7L252.3 424.2"/><path d="M124.3 413.1L129.5 410.2L136.8 405.6L142 401.7L144.6 399.5L151 392.9L156.5 386.4L165.2 374.7"/><path d="M79.7 405.4L79.3 408.4L79.4 410.7L80.5 415L82.6 419L85.7 422.2L89.5 424.6L93.9 425.8L98.3 425.9L102.7 424.9L124.6 413.9L114.2 394.6"/><path d="M278.4 320.1L278.5 323.1L278.3 326.2L277.1 331.9L274.7 337.5L271.3 343M245 364.1L240 366.4L234 368.8L228.6 370.6L222.1 372.5L215.5 374L209.6 375L197.3 376.4L184.9 376.6L179 376.3L172.4 375.6L166.8 374.7L160.6 373.3L155.4 371.9L149.8 370M122.5 349.9L120.6 346.6L119.3 343.7L118.3 340.2L117.6 336.7L117.4 333.1L117.7 329.5L118.4 325.9L119.4 322.8L120.6 319.7L122.5 316.2L124.8 312.7L127.5 309.3L133.6 303.3L137.4 300.3L141.5 297.4"/><path d="M278.5 319.5L289.9 301.7L300.6 285.7L310.4 272.4L321.6 258.1"/><path d="M283.1 174L283.3 166.7L284.4 159.2L286.4 152.2L289.2 145.7L293.1 149.5L296.6 153.4L299.7 157.4L302.4 161.6L304.6 165.9L306.4 170.3L307.7 174.8L308.6 179.3"/><path d="M336.4 175.9L345.9 123.3L311.4 184.4"/><path d="M296.3 208.5L301.2 207.1L305 205L307.1 203.2L309.7 199.8L311 197.3L311.8 195.1L312.3 192M312.4 190L311.8 185.8L311 183.5L310 181.4L308.7 179.4L307.1 177.6L305.3 176.1L302 174.1L299 173L296.7 172.5L294.3 172.3L292 172.5L277.9 175.6L272 177.2L265.5 179.6L261.8 181.4L258 183.7L254.5 186.4L251.4 189.4L246.9 194.6L243.3 199.8L240.1 204.9L232.5 219.6L230 225.3L226.3 236.1L224 244"/><path d="M214.7 300.8L218.2 301.3L222.5 300.9L225.8 299.7L228.3 298.2L231.3 295.3L237.4 285.8M275.8 240.8L289.7 233.5L291.7 232.1L293.5 230.6L295 228.8L297.1 225L298 222.4L298.5 220.1L298.6 217L298 213.1L297.2 210.8L296.1 208.7L294 205.9L291.4 203.5L289.4 202.2L287.3 201.2L285.1 200.4L282.7 200L280.4 199.9L278 200L275.7 200.5L273.5 201.3L271.4 202.4L258.5 209.8L251.1 214.4L246.2 218L240.9 222.6L236.4 227.4L230.8 234.5L224.3 244.2"/><path d="M194 307.3L196 307L205.3 304.2L211 302.1L217 299.3L224.8 294.4L243.1 281.6L270.7 265.2L274.2 262.4L275.6 260.7L277.7 256.7L278.6 253.1L278.8 250.1L278.1 245.7L276.3 241.6L273.4 238.1L269.8 235.5L265.6 233.9L263.4 233.5L259.6 233.6L256.7 234.1L254.6 234.9L252.6 236L229.1 251.3"/><path d="M322.9 226.5L325.6 224L328.1 222.4L330.9 221.1L334.6 220L338.5 219.4L341.8 219.4L345.9 219.9L349.6 220.8M356.5 224.1L359 225.7L361.6 227.9L364 230.3L366 233L368.8 237.9L369.8 240.9L370.5 243.9L370.7 247L370.5 249.9L370.2 252.1L369.3 254.9L368.4 256.8L366.8 259.3L365 261.5L362.8 263.4L360.3 265.1L357.9 266.2L355.3 267.1L352.3 267.8L346.6 268L343.3 267.7L340 267L334.5 264.8L331.5 263.2L328.7 261.2L324.4 257.1L322.4 254.5L320.9 252"/><path d="M327.9 238.6L327.5 242L326.4 245.2L325.2 247.5L323.1 250.1L321.1 251.8L318.2 253.5L314.9 254.5L311.5 254.9L308.1 254.5L304.9 253.5L302.6 252.3L300 250.1L297.8 247.5L296.6 245.2L295.5 242L295.2 238.6L295.5 235.2L296.6 231.9L298.3 229L300 227L302.6 224.9L304.9 223.6L308.1 222.6L311.5 222.2L314.9 222.6L318.2 223.6L320.4 224.9L323.1 227L325.2 229.7L326.8 232.7L327.5 235.2Z"/><path d="M324.9 215.1L323.2 218.1L320.8 220.2L318 221.1L315.3 220.8L313.1 219.2L311.7 216.5L311.3 213.3L312.1 210L313.9 207.1L316.3 205.1L319.1 204.4L321.8 204.9L324 206.6L325.2 209.4L325.4 212.6Z" fill="#1F1F1F" stroke="none"/><path d="M360 240.7L358.9 242L357.6 243L355.4 243.5L354 243.2L352.8 242.4L351.8 240.4L351.7 238.8L352.5 236.4L354.2 234.5L355.6 233.8L357.1 233.6L359.1 234.3L360.4 236L360.8 237.5L360.6 239.1Z" fill="#1F1F1F" stroke="none"/><path d="M332.2 255.8L338.4 259.5L340.9 260.6L342.5 260.9L344 260.8L346.6 260.2L352.8 257.5" stroke-width="4.5"/><path d="M290.4 403.9L293.7 397.5L295.1 393.8L296.3 389.6L297 384.6L296.6 378.1L294.9 372.4L293 368.5L291 365.2L286.9 359.8L279 351.2L265.4 337.9L263.7 336.7L259.8 334.8L255.6 334L251.4 334.4L247.3 335.8L243.8 338.2L241.1 341.5L239.2 345.3L238.4 349.5L238.8 353.8L240.2 357.8L241.3 359.6L242.6 361.3L259 377.5L262.9 382L264.7 385L264.4 382.7L263.1 385.7L262.2 387.4"/><path d="M261.3 387.2L252 400.6L249.2 405.7L248 410.1L248 414.6L249 418.2L250.2 420.9L251.9 423.3L254.6 425.9L258.5 428.2L260.7 428.9L264.4 429.4L267.4 429.3L271.7 428.2L275 426.3L277.3 424.4L278.7 422.7L286.2 412L291 404.6Z"/><path d="M101.7 398.6L113.6 394.9L119.6 392.4L125.6 389.1L131 385.6L137.9 380.2L146.2 372.9L160.4 359.4L161.7 357.7L163.6 353.9L164.2 351.1L164.4 347.6L163.6 343.4L162.1 340.2L160.4 337.9L157.2 335.1L155.4 334L152 332.8L149.2 332.3L147.1 332.3L142.9 333.2L140.3 334.3L137.4 336.3L118.7 353.6L111.8 359.1L107.2 362L102.2 364.2L93 367.1"/><path d="M92.6 366.4L74.1 370.9L69.2 372.4L65.3 374.6L62.1 377.8L60.3 381.1L59.2 383.9L58.8 386.1L58.8 390.6L59.6 393.5L61.1 396.9L62.8 399.3L65.5 401.9L67.4 403.2L70.1 404.4L73.8 405.3L76 405.4L80.5 404.8L101.8 399.6Z"/><path d="M144.3 297.6L133.8 294.7L123.3 291.1L113 287L103.3 282.3L94.5 277.4L86.8 272.2L80 266.7L75.3 261.7L73.5 259.1L72.4 256.9L71.5 254.6L71.2 252.7L71.3 250.6L72 248.7L73.1 247L74.5 245.7L76.7 244.4L78.8 243.5L84.7 242.1L92.1 241.6L100.6 242"/><path d="M141.3 277L130.5 269.1L120.6 261L110.5 251.8L101.7 242.8L94 233.9L87.5 225.1L83 217.6L81.3 213.9L80.1 210.5L79.4 207.8L79.2 205.1L79.4 202.7L80.1 200.7L81.4 199.1L83.1 197.9L85.3 197.1L87.9 196.8L91 197L94.5 197.5L102 199.7L111.2 203.7L121.4 209.2"/><path d="M149.6 259.4L141.7 247.6L134.3 235.1L127.5 222.3L121.8 209.7L117.2 197.7L114 186.8L112.3 177.4L112 173.6L112.1 169.8L112.6 166.9L113.5 164.3L114.6 162.5L116.3 161L118.4 160.3L120.5 160.2L123 160.6L126 161.8L129.3 163.6L132.5 165.8L139.8 172L147.6 180.2L155.5 189.8"/><path d="M163.6 246.2L160.5 233.1L158 219.6L156.4 206.2L155.5 193.3L155.6 181.4L156.5 171L158.2 162.3L159.4 158.7L160.7 155.7L162.3 153.2L163.9 151.4L165.8 150.2L167.7 149.6L169.8 149.6L171.9 150.3L174.1 151.6L176.4 153.5L178.7 156.1L181 159.2L185.6 167L190 176.8L194.1 188.1"/><path d="M181.3 237.3L183.3 223.8L186.5 210.2L190.4 197.5L194.9 186.7L197.3 182L200.1 177.3L202.6 173.9L205.2 171L207.7 168.8L210.2 167.3L212.6 166.6L215 166.5L217.2 167.2L219.5 168.8L221.3 170.9L223 173.8L224.4 177.2L225.7 181.3L226.6 185.9L227.4 191.1L228 202.6L227.5 215.3L225.9 229.6L223.4 243"/><path d="M227.7 248.9L229 251.6L230.2 255.2L230.9 258.9L231.1 262.1L230.9 265.4L230.2 269.5L227.6 277L223.4 284.4L217.8 291.3L211 297.5L203.2 302.8L194.7 306.9L185.9 309.7L177.1 311.1L168.6 311.1L160.8 309.5L157 308.1L154 306.6L150.8 304.5L148.4 302.4L146 299.6L144.3 297L142.9 294.3L141.7 290.8L141 287L140.8 283.8L141 280.5L141.7 276.4L144.3 268.9L148.5 261.6L154.1 254.7L161 248.4L168.8 243.2L177.2 239L186 236.2L194.8 234.8L203.3 234.9L211.1 236.4L214.3 237.5L217.9 239.3L220.6 241.1L223.5 243.5L226 246.3Z"/><path d="M978.9 102L973.5 92L966.6 82L959.6 74L955.5 70L950.7 66L945 62L941.6 60L937.8 58L933.1 56L927 54L912 52L912 50L912 52L897 54L890.9 56L886.2 58L882.4 60L879 62L873.3 66L868.5 70L864.4 74L857.4 82L850.5 92L845.3 101.6"/><path d="M889.8 102L845.1 102L842.3 108L839.2 116L834.9 130L831.8 146L830.3 161.6"/><path d="M933.2 102L890.3 102L888.4 116L887.1 130L886 146L885.5 161.5"/><path d="M993.7 162L992.2 146L989.1 130L986.8 122L984.8 116L981.7 108L978.9 102L933.7 102L935.6 116L936.9 130L938 146L938.5 161.5"/><path d="M872.6 162L830.3 162L830.3 178L832.1 196L835.3 212L840.5 229.5"/><path d="M911.5 162L873.1 162L873.1 178L874 196L875.5 212L877.9 229.5"/><path d="M950.4 162L912 162L912 229.5"/><path d="M983.4 230L988.7 212L990.5 204L991.9 196L993.1 186L993.7 178L993.9 170L993.7 162L950.9 162L950.9 178L950 196L948.5 212L946.1 229.5"/><path d="M888.4 230L840.6 230L847.7 248L852.4 258L861.1 274L866.1 282L871.6 290L876.2 296L880 300L882.3 301.8"/><path d="M934.6 230L888.9 230L891.8 252L895.1 272L899.4 292L900.9 297.6"/><path d="M941.7 301.8L944 300L947.8 296L952.4 290L957.9 282L962.9 274L971.6 258L976.3 248L983.4 230L935.1 230L932.2 252L928.9 272L924.6 292L923.1 297.6"/><path d="M882 298L942 298L938 336L886 336Z"/><path d="M888 334L886.3 371.6" stroke-width="5"/><path d="M936 334L937.7 371.6" stroke-width="5"/><path d="M912 424L885 423.9L883.2 423.5L881.5 422.6L880 421.3L878.9 419.7L878.2 417.9L878 416L878.1 379L878.5 377.2L879.4 375.5L880.7 374L882.3 372.9L884.1 372.2L886 372L911.5 372"/><path d="M938 372L940.8 372.5L943.3 374L945.1 376.3L945.9 379L946 416L945.8 417.9L945.1 419.7L944 421.3L942.5 422.6L940.8 423.5L939 423.9L912 424L912 372Z"/><path d="M905.2 533L890.4 526.4L875.6 519L869.4 516.4L866.8 515.7L864.2 515.6L861 516L857.6 517L851 519.9L845.8 523.4L843.4 526.4L841.4 530.9L839.9 536.9L839.7 542.4L841.2 547.5L844.3 554.1M847.7 559.5L851.9 564.2M853 565.1L856.4 566.8L860.9 568.4M884.9 572.4L889.3 572.2L893.8 571L899.4 568.7L912.6 562.5L916.3 561L919 560.3L926.3 560L945 561.1L948.2 560.9L950.3 560L951.3 558.5L951.8 556.5L952 554.1L951.8 550.5L950.4 544.6L949.4 542.7L948.2 541.4L946.3 540.6L942.9 540.2L929 540.3L924.2 540"/><path d="M842.9 551.5L844.9 555.3L847.4 559.2L850.2 562.6L852.4 564.7L857.8 567.4L867.1 570L879.4 572.1L884.5 572.4L888.7 572.3L891.5 571.7L895.3 570.4L906.3 565.4Z"/><path d="M962.2 487.5L951.4 504.6L939.6 521L926.6 537.3L912.1 553.4L905.2 534.5L907.4 526.6L910.6 518.4L913.2 513.1L916.5 507.4L920.2 502.1L924.3 497.2L928.6 492.7L933.3 488.7L938.3 485.1L943.5 481.9"/><path d="M857 531.1L857.3 532.8L858.1 534.2L860.1 535.8L861.8 536.2L864.3 535.8L865.7 534.9L867.1 532.8L867.4 531.1L867.1 529.4L866.3 527.9L864.3 526.4L862.6 525.9L860.1 526.4L858.7 527.3L857.7 528.6Z" fill="#1F1F1F" stroke="none"/><path d="M843.3 524.2L822.6 532.8L841.6 539.7Z" fill="#1F1F1F" stroke="none"/><path d="M922 634.2L908.3 628L894.5 621.1L888.7 618.8L886.3 618.1L883.9 618L880.9 618.4L877.7 619.3L871.5 622L866.8 625.2L864.5 628L862.6 632.2L861.2 637.8L861.1 643L862.5 647.7L865.3 653.8M873.5 664L876.6 665.7L880.8 667.1M903.4 670.9L907.2 670.6L912.1 669.3L928.9 661.6L934.8 659.6L941.6 659.3L959 660.4L962 660.1L963.3 659.8L964 659.3L964.9 658L965.4 656.1L965.6 653.8L965.4 650.5L964 645L963.1 643.2L962 642L960.3 641.3L957 640.9L940.1 640.8"/><path d="M864.1 651.4L865.9 655L868.2 658.6L872.9 663.7L877.9 666.2L886.6 668.6L898 670.6L902.7 670.9L906.6 670.7L912.8 669L923 664.3Z"/><path d="M922 635.6L925.5 624.3L930.2 614.3L936 605.4L939.2 601.4L943.3 597.2L947 593.9L951.6 590.4L956.4 587.4L961.5 584.7L971.5 580.7L977.1 579.2L982.8 578L971.4 597.8L965.4 607.1L958.8 616.6L944.7 634.8L928.4 653.2Z"/><path d="M877.2 632.4L877.5 634L878.2 635.3L880.1 636.8L881.6 637.2L883.2 637.1L885.3 635.9L886.2 634.7L886.8 632.4L886.5 630.8L885.8 629.5L883.9 628L882.4 627.6L880.1 628L878.7 628.9L877.8 630.1Z" fill="#1F1F1F" stroke="none"/><path d="M864.4 626L845.2 634L862.8 640.4Z" fill="#1F1F1F" stroke="none"/><path d="M224.8 597L256.4 582.3L258.8 581.7L261 581.6L266.9 582.8L272.7 585.4L277.3 588.5L279.4 591.1L281.2 595.1L282.5 600.4L282.7 605.3L281.4 609.8L278.6 615.6M270.9 625.3L267.9 626.9L264 628.3M242.4 631.8L238.8 631.6L234.2 630.3L218.2 623L212.6 621.1L206.2 620.8L189.6 621.8L186.8 621.6L184.9 620.8L184.1 619.6L183.6 617.8L183.6 612.4L184.9 607.2L185.8 605.5L186.8 604.4L188.5 603.7L191.5 603.3L202.9 603.5L207.6 603.2"/><path d="M279.8 613.3L275.9 620.1L271.5 625L266.7 627.4L258.5 629.7L247.6 631.5L243.1 631.8L239.4 631.7L233.5 630L223.8 625.6Z"/><path d="M221.3 587.2L217 578.1L211.5 569.6L208.4 565.8L204.6 561.9L196.7 555.4L187.3 549.9L177.8 546.2L167 543.6L177.8 562.4L189.8 580.3L203.3 597.6L218.7 615L224.8 598.3L221.9 588.9"/><path d="M267.4 595.3L266.8 597.5L265.9 598.6L264.6 599.5L263.2 599.8L261 599.5L259.7 598.6L258.8 597.5L258.2 595.3L258.5 593.8L259.2 592.5L260.3 591.5L262.4 590.7L263.9 590.9L265.9 591.9L266.8 593.1Z" fill="#1F1F1F" stroke="none"/><path d="M279.5 589.2L297.8 596.8L281 602.9Z" fill="#1F1F1F" stroke="none"/><path d="M470 48L472.1 50.9L479.2 64.3L481.6 68L485.8 69.1L500.8 71.8L504.2 72.9L502.1 75.8L491.6 86.7L488.8 90.1L489 94.4L491.2 110.5L491.2 113.1L488.6 112.3L474.1 105.4L470 103.8L465.9 105.4L451.4 112.3L449.4 113.1L448.7 112.9L449 108.4L451.1 93.4L451.2 90.1L448.4 86.7L437.9 75.8L435.8 72.9L439.2 71.8L454.2 69.1L458.4 68L460.8 64.3L467.9 50.9Z"/><path d="M700 38L701.6 40.2L708.5 53L710.3 55.8L713.6 56.7L727.8 59.3L730.4 60.1L728.8 62.3L718.8 72.8L716.7 75.4L716.9 78.8L718.8 93.2L718.8 95.9L716.2 95.1L703.1 88.8L700 87.6L696.9 88.8L683 95.4L681.4 95.9L681.1 95.7L683.3 75.4L681.2 72.8L671.2 62.3L669.6 60.1L672.2 59.3L686.4 56.7L689.7 55.8L691.5 53L698.4 40.2Z"/><path d="M340 170L341.6 172.2L347.9 183.9L349.7 186.7L353.2 187.6L365.6 189.8L368.5 190.7L366.9 193L357.8 202.5L355.7 205.1L355.8 208.5L357.6 221.5L357.6 224.3L355.6 223.7L343.4 217.8L340 216.5L336.6 217.8L324.4 223.7L322.4 224.3L322.4 221.5L324.2 208.5L324.3 205.1L322.9 203.2L313.8 193.7L311.5 190.9L311.7 190.6L313.4 190L326.8 187.6L330.3 186.7L332.1 183.9L338.4 172.2Z"/><path d="M24.8 57.5L29 55.4L44.4 48.5L56.4 35.2L58.9 32.7L60 32L61.1 32.7L63.6 35.2L75.6 48.5L93 56.3L95.6 57.8L96.1 58.6L94.2 62.6L85.3 78.2L83.1 98L82.5 100.5L81.7 100.8L76.5 100.1L60 96.6L42.4 100.3L38.9 100.8L37.7 100.7L37.2 99.6L36.6 96.1L34.7 78.2L24.7 60.5"/><path d="M960 440L961.6 442.2L967.9 453.9L969.7 456.7L973.2 457.6L985.6 459.8L988.5 460.7L986.9 463L977.8 472.5L975.7 475.1L975.8 478.5L977.6 491.5L977.6 494.3L975.6 493.7L963.4 487.8L960 486.5L956.6 487.8L944.4 493.7L942.4 494.3L942.4 491.5L944.2 478.5L944.3 475.1L942.9 473.2L933.8 463.7L931.5 460.9L931.7 460.6L933.4 460L946.8 457.6L950.3 456.7L952.1 453.9L958.4 442.2Z"/><rect x="24" y="24" width="976" height="976" stroke-width="7"/><path d="M558 163h1M558 163v1M558 164v1M557 165h1M557 165v1M612 290v1M611 291h1M611 291v1M611 292v1M611 293v1M610 294h1M609 294h1M608 294h1M608 294v1M608 295v1M608 296v1M608 297v1M608 298v1M608 299v1M608 300v1M607 301h1M608 301h1M606 301h1M609 301h1M605 301h1M610 301h1M604 301h1M611 301h1M603 301h1M612 301h1M602 301h1M613 301h1M601 301h1M614 301h1M600 301h1M615 301h1M599 301h1M616 301h1M598 301h1M617 301h1M597 301h1M618 301h1M596 301h1M619 301h1M595 301h1M620 301h1M594 301h1M621 301h1M593 301h1M622 301h1M592 301h1M623 301h1M591 301h1M624 301h1M590 301h1M625 301h1M589 301h1M626 301h1M588 301h1M627 301h1M587 301h1M628 301h1M629 301h1M630 301h1M631 301h1M632 301h1M633 301h1M634 301h1M506 381v1M506 382v1M506 383v1M506 384v1M506 385v1M506 386v1M506 387v1M506 388v1M506 389v1M506 390v1M506 391v1M506 392v1M506 393v1M506 394v1M506 395v1M506 396v1M506 397v1M506 398v1M506 399v1M506 400v1M506 401v1M506 402v1M506 403v1M506 404v1M506 405v1M506 406v1M506 407v1M506 408v1M506 409v1M506 410v1M657 392v1M657 393v1M657 394v1M657 395v1M657 396v1M657 397v1M657 398v1M657 399v1M657 400v1M657 401v1M657 402v1M657 403v1M657 404v1M657 405v1M657 406v1M657 407v1M657 408v1M656 409h1M656 409v1M656 410v1M656 411v1M656 412v1M656 413v1M656 414v1M655 415h1M654 415h1M626 545h1M627 545h1M628 545h1M629 545h1M630 545h1M631 545h1M632 545h1M633 545h1M634 545h1M635 545h1M636 545h1M637 545h1M638 545h1M639 545h1M640 545h1M641 545h1M642 545h1M643 545h1M644 545h1M645 545h1M646 545h1M38 571h1M38 571v1M39 571h1M37 572h1M36 572h1M35 572h1M35 572v1M34 573h1M36 573h1M36 573v1M37 573h1M37 573v1M36 574h1M36 574v1M36 575h1M37 575h1M655 721v1M655 722v1M655 723v1M655 724v1M655 725v1M655 726v1M655 727v1M655 728v1M655 729v1M655 730v1M655 731v1M655 732v1M655 733v1M655 734v1M655 735v1M655 736v1M655 737v1M655 738v1M832 860h1M832 860v1M831 861h1M830 861h1M829 861h1M828 861h1M828 861v1M827 862h1M828 862v1M826 862h1M827 863h1M826 861v1M827 863v1M825 861h1M826 864h1M824 861h1M825 864h1M824 860v1M823 861h1M825 864v1M823 860v1M985 863v1M985 864h1M986 864h1M987 864v1M986 865h1M986 865v1"/><path d="M262 171L268 171L268 172L269 172L269 173L270 173L270 175L269 175L269 176L268 176L268 177L265 177L265 178L263 178L263 179L261 179L261 180L259 180L259 181L258 181L258 182L256 182L256 183L255 183L255 184L253 184L253 185L252 185L252 186L251 186L251 187L250 187L250 188L249 188L249 189L248 189L248 190L247 190L247 189L246 189L246 187L247 187L247 186L248 186L248 184L249 184L249 183L250 183L250 182L251 182L251 181L252 181L252 180L253 180L253 179L254 179L254 177L255 177L255 176L257 176L257 175L258 175L258 174L259 174L259 173L261 173L261 172L262 172ZM68 307L81 307L81 308L82 308L82 309L81 309L81 310L78 310L78 311L75 311L75 312L73 312L73 313L71 313L71 314L68 314L68 315L67 315L67 316L65 316L65 317L63 317L63 318L61 318L61 319L60 319L60 320L58 320L58 321L57 321L57 322L56 322L56 323L54 323L54 324L53 324L53 325L52 325L52 326L51 326L51 327L50 327L50 328L48 328L48 329L47 329L47 330L46 330L46 331L45 331L45 332L44 332L44 333L43 333L43 334L42 334L42 336L41 336L41 337L40 337L40 338L39 338L39 339L38 339L38 341L37 341L37 342L36 342L36 344L35 344L35 346L34 346L34 348L33 348L33 350L32 350L32 352L31 352L31 356L30 356L30 359L29 359L29 360L28 360L28 359L27 359L27 336L28 336L28 335L31 335L31 334L33 334L33 333L36 333L36 332L37 332L37 331L38 331L38 330L39 330L39 329L40 329L40 328L41 328L41 327L42 327L42 326L43 326L43 325L44 325L44 324L45 324L45 323L46 323L46 322L47 322L47 321L48 321L48 320L49 320L49 319L50 319L50 317L51 317L51 316L53 316L53 315L54 315L54 314L55 314L55 313L56 313L56 312L57 312L57 311L59 311L59 310L62 310L62 309L64 309L64 308L68 308ZM73 359L74 359L74 360L75 360L75 362L74 362L74 364L73 364L73 367L72 367L72 369L71 369L71 370L68 370L68 371L67 371L67 372L66 372L66 371L65 371L65 368L66 368L66 366L67 366L67 365L68 365L68 364L69 364L69 363L70 363L70 362L71 362L71 361L72 361L72 360L73 360ZM78 417L79 417L79 418L80 418L80 420L81 420L81 421L82 421L82 422L83 422L83 423L84 423L84 424L85 424L85 425L87 425L87 426L89 426L89 427L92 427L92 428L100 428L100 429L101 429L101 430L100 430L100 431L99 431L99 432L98 432L98 433L96 433L96 434L87 434L87 433L85 433L85 432L83 432L83 431L82 431L82 430L81 430L81 428L80 428L80 427L79 427L79 425L78 425L78 421L77 421L77 418L78 418ZM849 555L852 555L852 556L856 556L856 557L861 557L861 558L865 558L865 559L870 559L870 560L874 560L874 561L879 561L879 562L883 562L883 563L888 563L888 564L893 564L893 565L896 565L896 566L897 566L897 567L896 567L896 568L894 568L894 569L891 569L891 570L876 570L876 569L870 569L870 568L866 568L866 567L862 567L862 566L859 566L859 565L857 565L857 564L855 564L855 563L854 563L854 562L853 562L853 561L852 561L852 560L851 560L851 559L850 559L850 558L849 558L849 557L848 557L848 556L849 556ZM270 617L273 617L273 618L274 618L274 619L273 619L273 620L272 620L272 622L271 622L271 623L269 623L269 624L267 624L267 625L265 625L265 626L262 626L262 627L259 627L259 628L254 628L254 629L248 629L248 630L240 630L240 629L236 629L236 628L234 628L234 627L233 627L233 626L234 626L234 625L238 625L238 624L243 624L243 623L248 623L248 622L252 622L252 621L257 621L257 620L261 620L261 619L266 619L266 618L270 618ZM870 655L873 655L873 656L878 656L878 657L882 657L882 658L887 658L887 659L891 659L891 660L896 660L896 661L901 661L901 662L905 662L905 663L910 663L910 664L913 664L913 665L914 665L914 666L913 666L913 667L910 667L910 668L906 668L906 669L897 669L897 668L892 668L892 667L887 667L887 666L883 666L883 665L880 665L880 664L878 664L878 663L876 663L876 662L874 662L874 661L873 661L873 660L872 660L872 659L871 659L871 658L870 658L870 657L869 657L869 656L870 656Z" fill="#1F1F1F" stroke="none" fill-rule="evenodd"/></g></svg>
