<svg xmlns="http://www.w3.org/2000/svg" viewBox="0 0 1024 1024" width="1024" height="1024"><g id="line" fill="none" stroke="#1F1F1F" stroke-width="6" stroke-linecap="round" stroke-linejoin="round"><path d="M72.1 350.6L82.2 342.5L108.8 322.9L136.2 304.7L164.5 287.7L193.6 272.1L223.4 257.9L253.8 245.1L284.7 233.7L316.2 223.8L346.1 215.9M677.9 215.9L706.9 223.5L738.3 233.4L754.4 239L770.2 245.1L800.6 257.9L830.4 272.1L859.5 287.7L888.2 305M919.7 326.2L941.8 342.5L951.9 350.6M931.5 383L918.6 372.5M902.5 360.7L893.5 354.1M874 341.1L867.5 336.8M840.7 320.8L834.3 317.3M813.2 306L803.1 301.2M764.8 284L756.3 280.4M728.8 270.3L727 269.7M726.1 269.4L725.2 269.1M298.8 269.1L297.9 269.4M280.5 275.7L268.6 280.1M258.7 284.2L239.4 292.4M223.9 299.7L211.2 305.8M195.7 314.1L183.7 320.6M168.6 329.6L157.3 336.3M105.4 372.5L95.5 380.5"/><path d="M92.6 382.9L105.8 372.2L116.3 364.5M147.5 342.8L156.6 336.7L183.2 320.8L210.5 306.2L238.4 292.8L267.9 280.3L298.9 269.1M725.1 269.1L756.1 280.3L764.8 284M798.2 298.8L813.5 306.2L840.8 320.8L867.4 336.7L893.2 353.9L918.2 372.2L931.4 382.9M892.7 400.6L871.5 385M853.2 372.9L847.1 368.9M795.5 339.6L786.7 335.4M769.1 327L749.8 318.9M265.2 322.7L254.9 327M238.2 335L227.7 340M176.9 368.9L170.8 372.9M152.5 385L131.3 400.6"/><path d="M131.1 400.8L152.8 384.8L177 368.8L192.9 359.3M225.2 341.4L254.4 327.2L274.2 318.9M749.8 318.9L769.6 327.2L795.7 339.7L808.1 346.4M840.6 365L847 368.8L871.2 384.8L892.9 400.8M853.3 418.9L849.8 416.3M828.8 402.3L826.7 401M823.4 399L803.4 387M788.8 379.2L778.5 373.6M763.2 366.3L760.6 365.1M256.4 368.4L245 373.9M235.2 379.2L220.6 387M203.5 397.2L197.3 401M183.5 410.1L173.8 416.6"/><path d="M170.4 419L196.5 401.4L219.7 387.5L244.3 374.2L263.2 365.2M270 361.9L270.1 361.9M760.3 365L777.9 373.3L802.6 386.5L826.6 400.9L849.1 415.8L853.1 418.7M771 412.7L761.6 407.7M261.5 408.1L256.4 410.9"/><path d="M250.2 414.2L265.7 406.1M758.3 406.1L773.8 414.2"/><path d="M86.8 87.5L82.5 92.3L77.3 97L71.6 101L65.4 104.3"/><path d="M248.8 108L242.8 107.5L237.4 106.4M221 99.2L215.9 95.2L211.3 90.7M291.6 24.8L294.1 28.5L296.1 32L297.8 35.6L299.3 39.3L300.4 43.1L301.3 47.5L301.8 52L302 56"/><path d="M168.5 121.6L161.7 123M88.8 89.9L84.8 82.5L81.8 75.1L79.6 66.9L78.3 58.5L78 49.5L78.8 41.6L80.6 32.8L83.4 24.7M216.6 24.7L218.4 29.4L219.8 34.2L220.8 39.1L221.6 44L222 53L221.8 58L221.2 62.9L220.2 67.8L219 72.7L215.9 81.1L213.7 85.6L211.2 89.9L208.4 94.1L205.4 98"/><path d="M294 80L294.4 74L295.8 68.2L298 62.6L300.4 58.3L304 53.5L308.3 49.4L313.1 45.9L318.5 43.1L324.1 41.2L330 40.2L336 40L341.9 40.8L347.7 42.4L353.1 44.9L358.2 48.1L361.9 51.4L365.9 55.8L369.1 60.9L371.6 66.3L373.2 72.1L374 78L373.8 84L372.8 89.9L371 95.1L368.6 100L365.3 104.9L361.2 109.3L356.5 113L351.4 116L345.8 118.2L340 119.6L334 120"/><path d="M25 88.3L31.5 88L37.4 88.6L43.3 90L48.9 92L54.1 94.8L59 98.3L63.4 102.4L67.2 107"/><path d="M162.4 152.8L162.1 154.3M130 190.2L125.7 191.7L121.9 192.7L114 193.9M58.3 155.7L57 150.4L56.2 145L56 139L56.4 133.5L57.3 128.1L59 122.4L61.2 116.8L63.6 112.4L66.6 107.9L70.1 103.6L74.4 99.4L78.7 96L83.3 93.1L88.6 90.4L94.3 88.3L99.1 87.1L104.5 86.3L110 86L115 86.2L120.9 87.1L125.7 88.3L131.4 90.4L136.7 93.1L141.7 96.3L146.4 100.1L149.9 103.6L153.1 107.5L156.4 112.4L159 117.3L161 122.4L162.7 128.1L163.6 133.5"/><path d="M246.9 115.1L247.8 111.7L249 107.9L252.1 101.6L254.3 98.3L256.8 95.2L261.7 90.3L264.9 87.9L268.3 85.7L274.6 82.8L281.3 80.9L288.3 80L295.2 80.3L299.2 81L303 82L309.5 84.6L313 86.5L315.9 88.4L318.6 90.6L321.6 93.3L326 98.7L329.5 104.7L331.1 108.4L332.4 112.2L333.7 119L334 123L333.9 126.5L333.6 130L332.9 133.9L330.8 140.5L329.1 144.2L327.1 147.6L322.9 153.2L320.1 156.1L317.1 158.7L311.3 162.5L304.9 165.4L298.2 167.2L294.2 167.8L290.2 168L283.3 167.5L276.5 165.9L272.8 164.5L269.2 162.8L265.7 160.7L262.5 158.4L257.4 153.6"/><path d="M190.1 189.7L184.9 186.9L180 183.4L175.5 179.4L172.3 175.6M162.8 154.9L162.1 149.5L162 144L162.5 139L163.7 133.2L165.5 128L167.9 123L170.5 118.8L173.5 114.8L177.3 110.8L181.5 107.3L185.7 104.6L191.1 101.9L196.2 100L201.6 98.7L206.5 98.1L212.5 98.1L218 98.7L223.3 99.9L228 101.5L233.4 104.1L238.5 107.3L242.3 110.5L246.5 114.8L249.5 118.8L252.1 123L254.5 128L256.3 133.2L257.3 138L258 144L257.9 149L257.3 154L256 159.8"/><path d="M79.9 214.2L76.9 216.8L73.1 219.4L69.1 221.4L65.4 222.7L61.5 223.6L57.5 224L53.5 223.9L49.6 223.4L45.7 222.4L41.5 220.8L37.6 218.6L34.4 216.2L31.4 213.5L28.8 210.5L26.6 207.1L24.6 203.1M24.6 176.9L26.6 172.9L28.8 169.5L31.4 166.5L35.1 163.2L38.4 160.9L42.9 158.6L47.6 157.1L51.5 156.3L55.5 156L60.5 156.3L64.4 157.1L69.1 158.6L72.7 160.4L76.5 162.9L79.9 165.8L82.5 168.7"/><path d="M172 174L171.7 178L170.3 182.8L168.6 186.4L165.6 190.3L161.8 193.6L157.5 196.1L152.7 197.5L148.7 198L143.8 197.6L139 196.2L134.6 193.9L131.5 191.4L128.8 188.4L126.3 184.2L124.6 179.4L124 174.5L124.4 169.5L125.5 165.7L127.7 161.2L130.8 157.3L133.8 154.7L138.1 152.2L142.8 150.6L147.8 150L152.7 150.5L157.5 151.9L161 153.8L164.9 156.9L168 160.8L170 164.3L171.5 169Z"/><path d="M222.4 186.5L222 182.5L222.4 177.5L223.5 173.7L225.2 170.1L227.4 166.8L230.2 163.9L233.4 161.6L237 159.8L240.8 158.6L244.8 158L248.7 158.2L252.7 158.9L256.4 160.4L260.2 162.7L263.6 165.7L266 168.8L268.1 172.8L269.5 177L270 181L269.8 185L269 188.9L267.5 192.6L265.5 196L262.5 199.4L259 202.2L255.5 204.1L251.7 205.3L247.7 205.9L243.3 205.8L238.9 204.9L235.2 203.4L231.8 201.3"/><path d="M114 192L113.7 196L112.3 200.8L110 205.2L107.6 208.3L103.8 211.6L99.5 214.1L94.7 215.5L90.7 216L85.8 215.6L81 214.2L76.6 211.9L73.5 209.4L70.8 206.4L68.3 202.2L66.6 197.4L66 192.5L66.4 187.5L67.5 183.7L69.7 179.2L72.8 175.3L76.6 172.1L80.1 170.2L84.8 168.6L89.8 168L94.7 168.5L99.5 169.9L103 171.8L106.9 174.9L110 178.8L112 182.3L113.5 187Z"/><path d="M232 206L231.7 210L230.3 214.8L228.6 218.4L225.6 222.3L221.8 225.6L217.5 228.1L212.7 229.5L208.7 230L203.8 229.6L199 228.2L194.6 225.9L191.5 223.4L188.8 220.4L186.3 216.2L184.6 211.4L184 206.5L184.4 201.5L185.9 196.8L187.7 193.2L190.8 189.3L193.8 186.7L198.1 184.2L202.8 182.6L207.8 182L212.7 182.5L217.5 183.9L221 185.8L224.9 188.9L228 192.8L230 196.3L231.5 201Z"/><path d="M295 56L294.6 60L293.5 63.8L291.7 67.4L289.2 70.5L286.2 73.1L281.8 75.5L278 76.6L274 77L270 76.6L266.2 75.5L262.6 73.7L259.5 71.2L256.9 68.2L254.9 64.7L253.4 60L253 56L253.4 52L254.5 48.2L256.9 43.8L259.5 40.8L262.6 38.3L266.2 36.5L270 35.4L274 35L278 35.4L281.8 36.5L286.2 38.9L289.2 41.5L291.7 44.6L293.5 48.2L294.6 52Z"/><path d="M958.6 104.3L952.9 101.3L947.1 97.3L941.8 92.7L937.2 87.5"/><path d="M812.7 90.7L808.5 94.9L803 99.2M786.6 106.4L780.7 107.6L775.2 108M722 56L722.2 51.5L722.7 47.5L723.5 43.6L724.6 39.8L726 36L727.7 32.4L729.6 28.9L732.4 24.8"/><path d="M862.3 123L855.5 121.6M818.6 98L815.9 94.5L813.1 90.4L810.6 86L808.3 81.6L806.5 76.9L804.9 72.2L802.9 63.4L802.3 58.5L802 53.5L802.1 48.5L802.5 43.5L803.3 38.6L804.4 33.7L805.8 28.9L807.4 24.7M940.6 24.7L943.2 32.3L945.2 41.1L946 50L945.8 58L944.6 65.9L942.4 74.6L939 82.9L935.2 89.9"/><path d="M690 120L684 119.6L678.2 118.2L672.6 116L667.5 113L662.8 109.3L658.7 104.9L655.4 100L652.8 94.6L651 88.9L650.1 83L650.1 77L650.9 71.6L652.4 66.3L654.9 60.9L658.1 55.8L662.1 51.4L666.7 47.5L671.8 44.4L677.3 42.1L682.6 40.7L688 40L694 40.2L699.9 41.2L705.5 43.1L710.9 45.9L715.7 49.4L720 53.5L723.6 58.3L726.2 63.1L728.2 68.2L729.6 74L730 80"/><path d="M956.8 107L960.6 102.4L965 98.3L969.9 94.8L975.1 92L980.7 90L986.6 88.6L992.5 88L999 88.3"/><path d="M910 193.9L902.1 192.7L898.3 191.7L894 190.2M861.9 154.3L861.6 152.8M860.4 133.5L861.3 128.1L863 122.4L865.2 116.8L867.6 112.4L870.6 107.9L874.1 103.6L878.4 99.4L882.3 96.3L886.9 93.3L891.7 90.8L897.3 88.6L902.1 87.3L907 86.5L913 86L919 86.2L924.9 87.1L930.7 88.6L936.3 90.8L941.1 93.3L945.7 96.3L949.6 99.4L953.9 103.6L957.4 107.9L960.4 112.4L962.8 116.8L965 122.4L966.4 127.2L967.5 133L968 139L967.8 144.5L967.1 149.9L965.7 155.7"/><path d="M766.6 153.6L764.1 156.1L761.1 158.7L755.3 162.5L751.7 164.3L748 165.7L741.2 167.4L737.2 167.9L733.8 168L730.3 167.8L726.3 167.3L719.6 165.6L713.2 162.8L707.3 159L704.2 156.4L701.8 153.9L699.5 151.3L697.2 148.1L693.8 141.9L692.4 138.2L691.2 134.4L690.1 127.5L690.1 120.5L690.6 116.6L691.5 112.7L693.8 106.1L695.6 102.5L697.7 99.1L702.1 93.7L705 90.9L707.7 88.7L710.6 86.8L714 84.8L720.5 82.1L724.3 81.1L727.8 80.4L731.3 80.1L735.2 80L739.2 80.3L743.2 81L749.9 83L753.5 84.6L757 86.5L762.6 90.6L767.6 95.5L770 98.7L772.1 102.1L775.1 108.4L777.1 115.1"/><path d="M851.7 175.6L848.5 179.4L844 183.4L839.1 186.9L833.9 189.7M768 159.8L766.7 154L766.1 149L766 144L766.7 138L767.7 133.2L769.7 127.5L771.9 123L774.8 118.4L778.2 114.1L781.7 110.5L785.5 107.3L790.6 104.1L796 101.5L800.7 99.9L805.6 98.7L811.5 98.1L817.5 98.1L822.4 98.7L827.3 99.9L832.9 101.9L838.3 104.6L842.5 107.3L846.3 110.5L850.2 114.4L853.5 118.8L856.1 123L858.3 127.5L860.3 133.2L861.5 139L862 144L861.8 150L861.2 154.9"/><path d="M999.4 203.1L997.4 207.1L995.2 210.5L992.6 213.5L989.6 216.2L986.4 218.6L982.5 220.8L978.3 222.4L974.4 223.4L970.5 223.9L966.5 224L962.5 223.6L958.6 222.7L954.9 221.4L951.3 219.6L947.5 217.1L944.1 214.2M941.5 168.7L944.1 165.8L947.5 162.9L951.3 160.4L954.9 158.6L959.6 157.1L963.5 156.3L967.5 156L972.5 156.3L976.4 157.1L981.1 158.6L984.7 160.4L988.9 163.2L991.9 165.8L995.2 169.5L997.4 172.9L999.4 176.9"/><path d="M900 174L899.5 179L898.3 182.8L896.6 186.4L893.6 190.3L889.8 193.6L885.5 196.1L880.7 197.5L876.7 198L871.8 197.6L867 196.2L863.4 194.4L859.5 191.4L856.8 188.4L854.3 184.2L852.6 179.4L852 174.5L852.3 170.5L853.5 165.7L855.7 161.2L858.8 157.3L862.6 154.1L866.1 152.2L870.8 150.6L875.8 150L880.7 150.5L885.5 151.9L889.8 154.4L892.9 156.9L896 160.8L898.3 165.2L899.5 169Z"/><path d="M792.2 201.3L788.4 203.6L784.7 205.1L780.7 205.8L776.8 206L771.8 205.2L768.1 203.8L764.6 201.9L761.5 199.4L758.8 196.4L756.7 193.1L754.9 188.4L754.1 184.5L754 180.5L754.6 176.6L755.9 172.8L757.7 169.2L760.1 166L763.4 163L767.2 160.6L770.9 159.1L774.8 158.2L778.7 158L782.7 158.5L786.5 159.6L790.1 161.3L793.8 163.9L796.9 167.2L799.1 170.5L800.7 174.2L801.7 178L802 182L801.6 186.5"/><path d="M958 192L957.5 197L956.3 200.8L954.6 204.4L951.6 208.3L947.8 211.6L943.5 214.1L938.7 215.5L934.7 216L929.8 215.6L925 214.2L921.4 212.4L917.5 209.4L914.8 206.4L912.3 202.2L910.6 197.4L910 192.5L910.3 188.5L911.5 183.7L913.7 179.2L916.8 175.3L920.6 172.1L924.1 170.2L928.8 168.6L933.8 168L938.7 168.5L943.5 169.9L947.8 172.4L950.9 174.9L954 178.8L956.3 183.2L957.5 187Z"/><path d="M840 206L839.5 211L838.3 214.8L836.6 218.4L833.6 222.3L829.8 225.6L825.5 228.1L820.7 229.5L816.7 230L811.8 229.6L807 228.2L803.4 226.4L799.5 223.4L796.8 220.4L794.3 216.2L792.6 211.4L792 206.5L792.3 202.5L793.5 197.7L795.7 193.2L798.8 189.3L802.6 186.1L806.1 184.2L810.8 182.6L815.8 182L820.7 182.5L825.5 183.9L829.8 186.4L832.9 188.9L836 192.8L838.3 197.2L839.5 201Z"/><path d="M771 56L770.6 60L769.5 63.8L767.7 67.4L765.2 70.5L762.2 73.1L758.7 75.1L755 76.4L750 77L746 76.6L742.2 75.5L738.6 73.7L735.5 71.2L732.3 67.4L730.5 63.8L729.4 60L729 56L729.4 52L730.5 48.2L732.3 44.6L735.5 40.8L738.6 38.3L742.2 36.5L746 35.4L750 35L755 35.6L758.7 36.9L762.2 38.9L765.2 41.5L767.7 44.6L769.5 48.2L770.6 52Z"/><path d="M357.5 467.9L354.7 473.7L350.8 479.6L346.6 484.5L341.9 489M257.6 417.9L261.5 412L266.1 406.8"/><path d="M398 442.3L395.4 448.2L393.5 451.2L391.5 454L388.8 457L386.6 459L383.4 461.4L380.9 463L375.4 465.5L372.6 466.5L368.7 467.4L365.7 467.8L361.8 468L358.3 467.8L354.8 467.3L350.9 466.4L348.1 465.4L342.3 462.5L337 458.7L334.5 456.2L332.2 453.6L330.2 450.8L328.4 447.8L326.9 444.6L325.7 441.3L324.9 438.4L324.3 434.5L324.1 428"/><path d="M205.8 435.2L207 432L208.6 428.9L210.3 426.3L212.8 423.2L215.6 420.4L217.9 418.6L221.3 416.4L224.4 414.8L227.7 413.6L231.6 412.6L234.5 412.2L238.5 412L242 412.2L245.4 412.8L249.3 413.9L252 415L254.7 416.4L258.1 418.6L261.1 421.1L263.6 423.6L265.7 426.3L267.9 429.7L269.6 433.3L270.5 436.2L271.4 439.6L271.9 443L272 446.5L271.8 450L271.1 453.9L270.2 456.8L268.8 460.5L267.1 463.6"/><path d="M682.1 489L677.7 484.9L673.2 479.6L669.3 473.7L666.5 467.9M757.9 406.8L762.2 411.6L766.4 417.9"/><path d="M699.9 428L700 431L699.7 435L699.1 438.4L698.1 441.8L697.1 444.6L695.4 448.2L693.3 451.6L691.5 454L689.1 456.6L686.6 459L683.4 461.4L680.9 463L675.4 465.5L672.6 466.5L668.7 467.4L665.7 467.8L661.8 468L658.3 467.8L654.8 467.3L649 465.7L645.8 464.4L642.7 462.7L637.4 459L632.9 454.4L631 452L628.9 448.6L627.5 446L626 442.3"/><path d="M756.9 463.6L755.2 460.5L753.8 456.8L752.9 453.9L752.2 450L752 446.5L752.1 443L752.5 440L753.5 436.2L754.6 432.9L756.1 429.7L758.3 426.3L760.8 423.2L763.6 420.4L765.9 418.6L769.3 416.4L772 415L774.7 413.9L778.6 412.8L782 412.2L785.5 412L789 412.1L792.4 412.6L796.3 413.6L799.6 414.8L802.7 416.4L806.1 418.6L808.4 420.4L811.2 423.2L813.4 425.9L815.4 428.9L817.2 432.4L818.2 435.2"/><path d="M71 324L72 324L72 373.5"/><path d="M25 288L65 288.1L67.7 288.9L70 290.7L71.5 293.2L72 296L71.9 321L71.1 323.7L70 325.3L68.5 326.6L65.9 327.8L64 328L25 328"/><path d="M24.9 386.1L60 368L150.9 410"/><path d="M24.7 410L91.3 410"/><path d="M91.8 449.5L91.8 410L150.9 410L237.5 450"/><path d="M25 450L68.4 450L68.4 476.5"/><path d="M68.4 487.5L68.4 450L112.4 450"/><path d="M112.8 487.5L112.8 450L156.8 450"/><path d="M157.3 487.5L157.3 450L201.2 450"/><path d="M201.7 487.5L201.7 450L237.5 450L319.6 488"/><path d="M69.5 566L64 566"/><path d="M70 565.5L70 526"/><path d="M123.5 566L118 566M116 565.5L116 526"/><path d="M162 565.5L162 526"/><path d="M208 565.5L208 526"/><path d="M254 565.5L254 526"/><path d="M25 566L64 566L64 571.5"/><path d="M124 605.5L124 566L163.5 566"/><path d="M248 605.5L248 566L299.5 566"/><path d="M25 606L63.5 606"/><path d="M124 645.5L124 606L163.5 606"/><path d="M248 645.5L248 606L299.5 606"/><path d="M25 646L63.5 646M64 680.5L64 685.5"/><path d="M124 685.5L124 646L193.5 646"/><path d="M194 685.5L194 646L263.5 646"/><path d="M164 605.5L164 566L205.5 566"/><path d="M206 605.5L206 566L248 566L248 606"/><path d="M206 646L164 646L164 606L205.5 606"/><rect x="206" y="606" width="42" height="40"/><path d="M69.5 686L67.3 685.3L65.8 684.2L64.7 682.7L64 680L64 572L64.3 570.1L65.8 567.8L67.3 566.7L70 566L118 566L119.9 566.3L121.5 567.1L122.9 568.5L123.7 570.1L124 572L124 680L123.3 682.7L122.2 684.2L120.7 685.3L118.5 686"/><circle cx="94" cy="604" r="19"/><path d="M25 488L91.5 488M92 526L25 526"/><path d="M160 526L92 526L92 488L159.5 488"/><path d="M228 526L160 526L160 488L227.5 488"/><path d="M296 526L228 526L228 488L295.5 488"/><path d="M299.5 526L296 526L296 488L337.9 488.1L339.8 488.5L342.6 489.4L345.1 490.8L347.3 492.7L349.2 494.9L350.2 496.6L351 498.3L351.7 501.1L352 504L352 511L351.3 514.8L350.6 516.6L349.2 519.1L348 520.6L345.9 522.6L343.4 524.2L340.8 525.3L337.9 525.9L336 526"/><path d="M300 569.5L300 522L336 522L336 570"/><path d="M300 607.5L300 570L336 570L336 608"/><path d="M300 645.5L300 608L336 608L336 645.5"/><path d="M952 373.5L952 324L953 324"/><path d="M999 328L959 327.9L956.3 327.1L954 325.3L952.5 322.8L952 320L952.1 295L952.5 293.2L953.4 291.5L955.5 289.4L957.2 288.5L960 288L999 288"/><path d="M873.4 409.9L964 368L999.1 386.1"/><path d="M786.9 449.8L873.1 410L931.7 410"/><path d="M932.2 449.5L932.2 410L999.3 410"/><path d="M704.4 488L786.5 450L821.8 450"/><path d="M822.3 487.5L822.3 450L866.2 450"/><path d="M866.7 487.5L866.7 450L910.7 450"/><path d="M911.2 487.5L911.2 450L955.1 450"/><path d="M955.6 487.5L955.6 450L999 450"/><path d="M770 565.5L770 526"/><path d="M816 565.5L816 526"/><path d="M905.5 566L900 566M862 565.5L862 526"/><path d="M954 566L954.1 566M908 565.5L908 526"/><path d="M959.5 566L954 566L954 526"/><path d="M724 566L775.5 566"/><path d="M860 605.5L860 566L900 566L900 571.5"/><path d="M960 605.5L960 566L999 566"/><path d="M724 606L775.5 606"/><path d="M860 645.5L860 606L899.5 606"/><path d="M960 645.5L960 606L999 606"/><path d="M724.4 646L782.2 646"/><path d="M782.7 685.5L782.7 646L840.8 646"/><path d="M900 680.5L900 685.5M841.3 685.5L841.3 646L899.5 646"/><path d="M960 685.5L960 646L999 646"/><path d="M776 605.5L776 566L817.5 566"/><path d="M818 605.5L818 566L860 566L860 606"/><path d="M818 646L776 646L776 606L817.5 606"/><rect x="818" y="606" width="42" height="40"/><path d="M905.5 686L903.3 685.3L901.8 684.2L900.7 682.7L900 680L900 572L900.7 569.3L901.8 567.8L903.3 566.7L906 566L954 566L955.9 566.3L957.5 567.1L958.9 568.5L959.7 570.1L960 572L960 680L959.3 682.7L958.2 684.2L956.7 685.3L954.5 686"/><circle cx="930" cy="604" r="19"/><path d="M687.5 526L685.1 525.7L682.3 525L680.6 524.2L678.1 522.6L676 520.6L674.8 519.1L673.8 517.4L672.7 514.8L672 511L672 504L672.3 501.1L672.7 499.2L673.8 496.6L675.4 494.1L676.7 492.7L678.9 490.8L681.4 489.4L683.7 488.6L686.1 488.1L727.5 488M728 526L724 526"/><path d="M796 526L728 526L728 488L795.5 488"/><path d="M864 526L796 526L796 488L863.5 488"/><path d="M932 526L864 526L864 488L931.5 488"/><path d="M999 526L932 526L932 488L999 488"/><path d="M688 569.5L688 522L724 522L724 570"/><path d="M688 607.5L688 570L724 570L724 608"/><path d="M688 645.5L688 608L724 608L724 646"/><path d="M688 685.5L688 646L724 646L724 685.5"/><path d="M318 900L318 888M318.9 887.6L320.7 886.8M321.6 886.4L322.5 886M323.4 885.6L325.2 884.8M326.1 884.4L327 884M327.9 883.6L329.7 882.8M330.6 882.4L331.5 882M332.4 881.6L334.2 880.8M335.1 880.4L336 880L336.1 879M336.1 878.1L336.2 877.1M336.3 876.1L336.4 875.2M336.4 874.2L336.5 873.3M336.6 872.3L336.7 871.3M336.7 870.4L336.8 869.4M336.9 868.4L337 866.5M337.1 865.6L337.2 864.6M337.3 863.6L337.3 862.7M337.4 861.7L337.5 860.7M337.6 859.8L337.6 858.8M337.7 857.9L337.8 856.9M337.9 855.9L337.9 855M338 854L342 854L344 850L344.9 849.6M345.8 849.1L346.7 848.7M347.6 848.2L349.3 847.3M350.2 846.9L351.1 846.4M352 846L352.9 845.6M353.8 845.1L354.7 844.7M355.6 844.2L357.3 843.3M358.2 842.9L359.1 842.4M361.3 842.7L361.4 842.7M363.1 843.6L363.2 843.6M365.8 844.9L365.9 844.9M367.6 845.8L367.7 845.8M369.3 846.7L369.4 846.7M371.1 847.6L371.2 847.6M373.8 848.9L373.9 848.9M375.6 849.8L376 850L380.5 850"/><path d="M988.3 762.7L988.4 762.7M989.3 762.9L989.4 762.9M992.1 763.7L992.2 763.7M995.8 764.8L995.9 764.8M947.8 806.9L947.9 806.9M949.6 807.8L950 808L950.9 807.5M951.7 807L952.6 806.6M953.4 806.1L954.3 805.6M955.1 805.1L956 804.7M956.9 804.2L957.7 803.7M958.6 803.2L960.3 802.3M961.1 801.8L962 801.3M962.9 800.9L963.7 800.4M964.6 799.9L965.4 799.4M966.3 799L967.1 798.5M968 798L968 776L972 770L973.6 769.1M974.5 768.6L976.1 767.6M976.9 767.2L979.4 765.8M980.2 765.3L980.3 765.3M981.1 764.8L981.9 764.4M982.7 763.9L985.2 762.5"/><path d="M658 899.5L658 892L658.9 891.6M659.7 891.1L661.5 890.3M662.3 889.8L664.1 889M665 888.5L665.8 888.1M666.7 887.7L668.4 886.8M669.3 886.3L670.2 885.9M671 885.5L672.8 884.6M673.7 884.2L674.5 883.7M675.4 883.3L677.1 882.4M678 882L678 852M684.2 847.2L700 840L699.8 837.1M699.8 836.1L699.6 834.2M699.6 833.2L699.7 833.2M699.5 832.2L699.3 829.3M699.3 828.4L699.2 826.4M699.1 825.5L699.2 825.5M699 824.5L698.8 821.6M698.8 820.6L698.7 818.7M698.6 817.7L698.7 817.7M698.5 816.7L698.4 813.8M698.3 812.8L698.2 810.9M698.1 809.9L698.2 809.9M698.1 809L698 808L702 808L704.3 805.7"/><path d="M25 686L127.5 686M128.2 688.5L128.3 688.5M128.3 689.4L128.4 689.4M128.5 692.4L128.6 692.4M128.8 696.3L128.9 696.3M129.1 700.2L129.2 700.2M129.5 704.1L129.6 704.1M64 749L64 730L44 718L43.2 718.5M41.1 719.8L24.8 729.5"/><path d="M643.4 849.5L643.8 849.3M644.7 848.9L645.6 848.5M646.5 848.2L648.4 847.5M649.3 847.1L650.2 846.7M651.1 846.4L652 846L652.4 845.2M652.8 844.4L653.6 842.8M654 842L659.5 842M661.3 842.7L661.4 842.7M663 843.7L663.1 843.7M664.7 844.6L664.8 844.6M666.4 845.6L666.5 845.6M668.1 846.5L668.2 846.5M670.7 848L670.8 848M672.4 848.9L672.5 848.9M674.1 849.9L674.2 849.9M675.9 850.8L676 850.8M677.6 851.8L678 852L678 882L658 892L658 899.5"/><path d="M316.5 836.8L316.6 836.8M316.4 837.7L316.5 837.7M338 854L336 880L318 888L318 900L317.7 900.3"/><path d="M593 686L675.5 686M653.8 733.4L653.9 733.4M653.6 736.3L653.7 736.3M653.5 737.3L653.6 737.3M653.3 741.2L653.4 741.2M653.1 744.1L653.2 744.1M653.1 745L653.2 745M652.8 748.9L652.9 748.9M652.6 751.8L652.7 751.8M652.6 752.8L652.7 752.8M652.3 756.7L652.4 756.7M652.2 759.6L652.3 759.6M652.1 760.5L652.2 760.5"/><path d="M210 686.5L210.1 686.5M210.2 689.4L210.3 689.4M210.4 692.3L210.5 692.3M210.5 694.3L210.6 694.3M210.7 697.2L210.8 697.2M210.8 700.1L210.9 700.1M210.9 702L211 702M211.1 704.9L211.2 704.9M211.2 706.9L211.3 706.9M211.3 707.9L211.4 707.9M211.4 709.8L211.5 709.8M211.6 712.7L211.7 712.7M211.7 715.6L211.8 715.6M211.9 717.6L212 717.6M211.9 718.5L212 718.5M216.4 726.2L216.5 726.2M217.3 726.5L217.4 726.5M219.1 727.2L219.2 727.2M221.8 728.2L221.9 728.2M224.4 729.2L224.5 729.2M225.3 729.5L225.4 729.5M227.1 730.2L227.2 730.2M229.8 731.2L229.9 731.2M129.5 704.6L128 686L209.5 686"/><path d="M362.4 758.3L362.5 758.3M364.9 759.8L365 759.8M368.3 761.9L368.4 761.9M370.8 763.5L370.9 763.5M373.4 765.1L373.5 765.1M375.9 766.7L376 766.7M376.7 767.2L376.8 767.2M378 768L388 768L394 764M395 763.9L397.4 763.8M380.5 850L376 850L360 842L344 850L342 854L336 854L316 840L316.8 835.4M334 802L338 802L338 774"/><path d="M24.9 729.6L40 722L42 718L64 730L64 749"/><path d="M382.5 686L431 686M407.3 733.3L406 732M405.3 731.3L404 730L384 720L383.1 720.4M361.8 731.1L361.3 731.3M358 730L354 726L346 724L346 723"/><path d="M290.7 724.5L290.8 724.5M289.8 724.8L289.9 724.8M287.1 725.8L287.2 725.8M284.4 726.8L284.5 726.8M282.7 727.5L282.8 727.5M281.8 727.8L281.9 727.8M279.1 728.8L279.2 728.8M276.4 729.8L276.5 729.8M275.9 730.5L276 730.5M275.5 732.3L275.6 732.3M275.2 734.1L275.3 734.1M274.6 736.8L274.7 736.8M274.3 738.6L274.4 738.6M232 739L232 732L216 726L212 720L210 686L253.5 686"/><path d="M926 686.5L926.1 686.5M925.9 688.4L926 688.4M925.8 690.4L925.9 690.4M925.6 693.3L925.7 693.3M925.5 695.2L925.6 695.2M925.4 697.2L925.5 697.2M925.3 699.1L925.4 699.1M925.2 701.1L925.3 701.1M925.1 703L925.2 703M924.9 705.9L925 705.9M924.8 707.9L924.9 707.9M924.7 709.8L924.8 709.8M924.6 711.8L924.7 711.8M924.5 713.7L924.6 713.7M924.4 715.7L924.5 715.7M924.3 716.6L924.4 716.6M924.2 718.6L924.3 718.6M924.1 720.5L924.2 720.5M924.4 722.2L924.5 722.2M927.1 723.4L927.2 723.4M928.8 724.2L928.9 724.2M930.6 725L930.7 725M931.5 725.4L931.6 725.4M933.2 726.2L933.3 726.2M935.9 727.4L936 727.4M937.6 728.2L937.7 728.2M940.3 729.4L940.4 729.4M942 730.2L942.1 730.2M943.8 731L943.9 731M944.7 731.4L944.8 731.4M943.7 760.8L943.8 760.8M870 727.5L870 726L872.8 725.3M873.8 725.1L876.6 724.4M877.5 724.1L880.4 723.4M881.3 723.2L881.4 723.2M882.2 722.9L884.1 722.5M885.1 722.2L886 722M884 686L925.5 686"/><path d="M717.4 720.6L739.5 729.8M740.1 730.5L740.2 730.5M740.5 734.4L740.6 734.4M740.6 735.4L740.6 735.9M740.9 738.4L741 738.4M704.3 805.7L702 808L698 808M691.5 806.6L680 800M674 799.5L674 772M652 761.5L654 730L670 722L673.5 722M683.3 727.3L684 728L685.4 728.4M698 732L698.1 732"/><path d="M803.8 724.4L802.6 722.8M802 722L802 686L843.5 686"/><path d="M649.2 809.5L647.5 808.5M646.7 808L645 807M644.2 806.5L642.5 805.5M641.7 805L640 804L638.1 803.9M637.1 803.8L636.1 803.8M629 773L632 770L648 762L656 762L674 772L674 799.5"/><path d="M636.1 803.8L640 804L650 810L658 810L672 800L680 800L688 806L698 808L700 840L688 844L678 852L660 842L654 842L652 846L643.4 849.5"/><path d="M986 730L986.1 730M998.3 724.8L999.1 724.4M999.1 765.7L986 762L972 770L968 776L968 798L950 808L946.9 806.4M943.2 760.9L946 760L946 732"/><path d="M397.4 763.8L394 764L388 768L378 768L362 758L362 730L382 720L404 730L407.3 733.3"/><path d="M778 728L778.1 728M771.2 727.5L768.7 726.1M767.9 725.6L767.1 725.2M766.2 724.7L766.3 724.7M765.4 724.2L762.9 722.8M762.1 722.4L760.5 721.4M759.6 720.9L758 720L758.1 718.1M758.2 717.1L758.2 716.1M758.3 715.1L758.4 715.1M758.3 714.2L758.5 712.2M758.5 711.3L758.6 710.3M758.6 709.3L758.7 707.4M758.8 706.4L758.9 704.5M759 703.5L759.1 701.5M759.1 700.6L759.3 698.6M759.3 697.7L759.4 695.7M759.5 694.7L759.5 693.8M759.6 692.8L759.7 692.8M759.7 691.8L759.8 689.9M759.8 688.9L759.9 687.9M759.9 687L760 687M760 686L802 686L802 722L804.1 724.8"/><path d="M741 739.3L740 730L718 720M717.9 719L718 719M717.9 718.1L717.8 717.1M717.8 716.1L717.7 714.2M717.6 713.2L717.7 713.2M717.5 712.2L717.5 711.3M717.4 710.3L717.3 708.3M717.3 707.4L717.1 705.4M717.1 704L717 702.5M716.9 701.1L716.8 699.6M716.7 698.6L716.6 696.7M716.6 695.7L716.5 694.7M716.5 693.8L716.3 691.8M716.3 690.9L716.4 690.9M716.2 689.9L716.2 688.9M716.1 687.9L716 686L760 686L758 720L772 728L778 728L778.1 728.4"/><path d="M327.7 726.8L327.8 726.8M324.9 727.7L325 727.7M322.2 728.6L322.3 728.6M319.4 729.5L319.5 729.5M318.5 729.8L318.6 729.8M316.7 760.8L316.8 760.8M315.9 761.3L316 761.3M313.4 762.9L313.5 762.9M310.8 764.5L310.9 764.5M308.3 766.1L308.4 766.1M274 750L274 740L276 730L292 724L292.5 723.3"/><path d="M844 724.5L844 686L884 686L886 698L886 722L870 726L870 727.5"/><path d="M346 723L346 724L362 732L362 760L338 774L338 802L334 802M307.9 766.3L318 760L318 730L330 726L330 725"/><path d="M676 686L716 686L718 720L698 732L692 732L674 722Z"/><path d="M965.6 720.3L946 732L924 722L926 686L965.5 686"/><path d="M999.4 698.2L998 726L986 730L966 720L966 686L999 686"/><path d="M270.5 859.2L281.5 866.1L290.7 872.6L298.9 879.1L304.5 884.2L310.6 891.1L316.4 898.9L322.5 908.1L328.5 918.2"/><path d="M692.6 916.3L700.3 903.2L708 890.9L715.6 879.6L723.5 868.5L730.8 858.8L738.1 850L744.7 842.9L751.3 836.5M934.2 819.2L953.7 819.2L970.4 819.7L985.6 820.7L999 822.3"/><path d="M24.7 768.6L30 765.1L35.8 761.6L42.1 758.4L48.9 755.3L56 752.3L63.6 749.6L79.9 744.7M191.4 734.7L211.4 736.4L231.3 739.3L241.3 741.2L250.1 743.2L258.7 745.4L267.7 748L275.8 750.8L283.6 753.8L290.6 756.8L297.7 760.3L304.3 764L309.7 767.6L315.1 771.6L319.5 775.4L323.6 779.7L326.8 783.7L329.7 788.1L331.6 792.3L333 796.4L333.9 801.1L334 805.7L333.4 809.9L332.3 814.1L330.3 818.6L327.7 823.1L324.7 827.1L321.1 831.1L316.5 835.3L311.3 839.4L306 842.9L300.2 846.4L293.2 850L286.1 853.2L278.5 856.2L270.8 859L262 861.7L253.6 864L244 866.2L224.8 869.8L204.7 872.3L184 873.7L163 874L142.1 873.1L121.7 871.2L101.9 868.2L92.9 866.4L83.3 864.2L74 861.7L66 859.2L57.9 856.4L50.3 853.3L42.8 850L36.5 846.7L30 842.9L24.7 839.4"/><path d="M171 778.7L165.9 779.3M146.2 785.7L137.8 790L134.5 792.2L131.9 794.3L129.6 796.8L127.5 799.8L125.7 803L124.1 806.5L123 810.1L122.2 813.5L121.8 816.9L121.9 819.9L122.7 823L124 826.4L125.8 829.9L127.8 833L131.8 837.7L136.2 841.4L140.6 843.9L146.5 845.8L155.9 847.7L168 849.2L180.8 850L192.5 850L202.5 849.3L211.8 848.2L220.3 846.7L228 844.7L233.1 842.9L237.1 840.8L240.8 838L244.4 834.2L247.7 829.8L250.8 824.5L253.7 818.4L256.6 811L258.8 803.8L261 794.5L262.8 785.1L263.7 777.5L263.9 773.7L263.6 771.4L262.9 770.2L261.9 770.2L260.5 770.9L258.9 772.2L248.6 781.7"/><path d="M128.7 778L132.6 781L136.9 783.3L141.6 784.9L146.5 785.6M166 779.2L169.2 776.2L172.2 772.3L174.2 768.5L175.8 763.8L176.5 758.9L176.4 754L175.6 749.7L173.9 745.1"/><path d="M248.5 781.9L246.2 779.8L241.7 777.9L235 776.3L226.6 774.9L216.2 773.8L205.7 773.1L197.8 773.2L189 774L182.2 775.1L176.6 776.5L172.9 777.9L169 780.2L165.1 783.4L162.1 786.8L160.5 790.2L160.4 793.3L161 795.9L162.3 799.2L164.1 802.5L166.1 805.1L169.8 808.4L176 811.6L185.2 814.6L194.1 816.4L204.8 816.8L215.3 816.1L221.6 815L227.1 813.1L231 810.8L235.2 807L241.3 799.8L246.3 791.9L247.8 788.7L248.7 785.9L248.9 783.5Z"/><path d="M101 738L93.9 739.2L88.3 740.6L84.4 742.2L80.4 744.5L74.8 748.6L70.3 753L67.8 756.6L67.4 758L67.4 759.3L67.9 761.4L69.1 763.7L72.7 768.6L77.6 773.3L82.4 776.5L85.7 777.9L91.6 779.1L99.3 780L108 780.6L117.1 780.5L124.1 779.6L126.3 778.9L128 778.1L129.1 777.2L130.2 775.5L131.7 771.7L132.8 766.9L133.5 761.4L133.7 755.1L133.5 749.6L132.8 744.8L131.6 741.1L130.2 739"/><path d="M138.1 748.4L138.7 750.7L139.9 752.2L141.4 753.1L143.2 753.4L145 753L146.5 752L147.6 750.5L148 748.7L147.8 746.9L146.9 745.3L145 743.8L143.2 743.4L141.4 743.7L139.9 744.6L138.5 746.6Z" fill="#1F1F1F" stroke="none"/><path d="M192.7 739.7L192.3 737.7L191.2 734.3L187.1 725.7L182.2 717.7L177.8 712.4L171.5 708.2L163 704.1L154.3 701.1L148 700L141.7 700.9L133.5 703.4L124.9 707.2L118.3 711.2L113.3 716.1L107.6 723.5L102.8 731.4L101.3 734.5L100.9 736.4L101.2 737.5L101.8 738.6L104.7 740.4L109.4 741.8L114.6 742.2L120 741.4L139.5 736.7L144.3 736L147.8 736.1L155.3 738L174 745L176.7 745.8L179 746L184 745.6L188.6 744.3L191.5 742.3L192.5 740.9Z"/><path d="M299.5 646L264 646L262.2 647L260.6 648.6L258.8 651.3L257.3 654.7L256 658.8L255 663.3L254.1 669.3L253.5 680.5"/><path d="M335.5 646L300 646L300 680.5"/><path d="M382.5 681L382.3 674.5L381.8 668.3L380.8 662.4L379.5 657.1L377.8 652.6L376.1 649.6L374.2 647.3L372 646L336 646L336 680.5"/><path d="M299.5 681L253.5 681L254 691.7L254.7 696.7L255.6 701.5L256.7 705.7L258.2 709.4L259.9 712.4L261.4 714.3L263.1 715.6L264.9 716.3L271 718.4L277.4 720.1L287.8 722.4L299.5 724"/><path d="M335.5 681L300 681L300 724.1L309.5 724.8L318.5 725L327.5 724.7L336 724.1"/><path d="M336 681L336 724.1L348.2 722.4L360.4 719.7L372.5 715.8L373.8 715L375.4 713.4L376.9 711.3L378.4 708L380.6 700.5L382 691.7L382.5 681Z"/><path d="M823.8 724L836.2 724.2L848.1 724.9L860.3 726.3L872.1 728.2L883.1 730.5L894.4 733.6L904.2 736.9L913.4 740.7L921.7 744.8L929.8 749.8L936.4 754.6L942 759.8L946.5 765.1L950.3 771.1L951.6 774L952.7 777.3L953.9 783.1L953.9 788.9L952.7 794.7L950.5 800.4L946.9 806.4L942 812.2L936.4 817.4L929.3 822.6L921.7 827.2L913.4 831.3L904.2 835.1L894.4 838.4L883.1 841.5L871.2 844L859.8 845.8L847.6 847.1L835.2 847.8L822.8 848L810.3 847.5L798 846.5L786 844.9L774.8 842.8L764 840.2L753.8 837.2L743.5 833.4L734.7 829.5L726.1 824.8L719 820.1L712.5 814.6L707.4 809.4L703.4 803.9L701.8 801.1L700.3 797.8L698.6 792L698 786.2L698.5 780.4L699.2 777.6L700.3 774.2L703.2 768.6L707.4 762.6L712.5 757.4L718.5 752.4L725.5 747.6L734 742.9L742.7 738.9L753 735.1L763.2 732L773.9 729.4L785 727.3L797 725.6L809.3 724.5"/><path d="M838.2 768.6L833.7 769.1M815.9 774.9L808.2 778.8L805.3 780.7L803 782.6L800.9 784.9L799 787.6L797.3 790.6L795.9 793.7L794.9 796.9L794.1 800L793.8 803L793.9 805.7L794.6 808.6L795.8 811.6L797.4 814.8L799.2 817.6L802.9 821.9L806.8 825.2L810.8 827.4L816.1 829.2L824.6 830.9L835.5 832.3L847.1 833L857.7 833L866.7 832.3L875.1 831.3L882.8 829.9L889.8 828.2L894.4 826.5L897.9 824.7L901.3 822.1L904.6 818.7L907.5 814.7L910.3 809.9L912.9 804.4L915.6 797.7L917.5 791.2L919.5 782.8L921.1 774.3L922 767.5L922.1 764L921.9 761.9L921.3 760.9L920.4 760.9L919.1 761.5L917.6 762.7L908.3 771.3"/><path d="M800.4 768.3L804 771L808 773L811.7 774.1L816.1 774.8M833.8 769L837.3 765.5L839 763.3L840.4 760.9L842.3 756.2L843.2 751.3L843.3 748.5L843.1 745.7L841.9 740.8L839.9 736.2L837 732.2L833.3 728.7L831 727.1L828.6 725.8L823.9 724.1L818.9 723.3L816.1 723.3L813.4 723.6L808.5 724.9L804 727.1L801.7 728.7L799.6 730.5"/><path d="M908.2 771.4L906.2 769.6L902.1 767.9L896.1 766.4L888.5 765.2L869.6 763.5L862.4 763.6L854.5 764.3L848.4 765.3L843.3 766.6L840 767.9L836.4 769.9L832.9 772.8L830.3 775.9L828.8 778.9L828.7 781.7L829.2 784.1L830.4 787.1L832.1 790.1L833.8 792.4L837.2 795.4L842.8 798.2L851.1 801L859.1 802.6L868.8 803L878.2 802.3L884 801.3L889 799.7L892.5 797.6L896.2 794.1L901.8 787.6L906.3 780.5L908.4 775L908.6 772.9Z"/><path d="M801.5 732L799.6 730.9L796.2 730.2L787.1 729.9L773.5 731.2L766.7 732.4L761.7 733.7L758.2 735.2L754 737.6L750.5 740.2L747 743.4L744.5 746.1L743 748.6L742.5 750.5L742.9 752.5L745.5 757.1L749.7 762L754.4 765.9L759.2 768.3L768.4 770.1L780.7 771L790.8 770.8L794.5 770.3L797.6 769.6L800.2 768.1L801.8 765.6L803.4 761L804.4 754.5L804.8 746.9L804.4 740.3L803.2 735L802.4 733.2Z"/><path d="M808.6 741.2L809.1 743.3L810.1 744.6L811.6 745.4L813.2 745.7L815.3 745.1L816.5 744L817.3 742.6L817.5 740.9L817.1 739.3L816.2 738L814.3 736.9L812.6 736.7L811 737.2L809.7 738.2L808.9 739.6Z" fill="#1F1F1F" stroke="none"/><path d="M353.3 999.2L345.9 995.8L339.1 992.2L332.9 988.6L327.3 984.8L322.3 980.8L317.9 976.8L314.2 972.7L311.2 968.6L308.9 964.3L307.2 960.1L306.3 955.8L306 951.5L306.4 947.2L307.6 942.9L309.4 938.6L311.9 934.4L315.1 930.2L319 926.2L323.5 922.2L328.6 918.3L334.4 914.5L340.8 910.9L347.7 907.4L355.2 904L363.3 900.8L371.8 897.8L380.8 894.9L390.3 892.3L410.4 887.6L432 883.8M592 883.8L614 887.7L634.1 892.4L643.5 895.1L652.5 897.9L661.1 900.9L669.1 904.1L676.6 907.5L683.5 911L689.9 914.7L695.6 918.4L700.7 922.3L705.2 926.3L709 930.4L712.2 934.6L714.7 938.8L716.5 943L717.6 947.3L718 951.6L717.7 955.9L716.7 960.2L715 964.5L712.7 968.7L709.6 972.9L705.9 977L701.5 981L696.5 984.9L690.9 988.7L684.6 992.4L677.8 995.9L670.4 999.3"/><path d="M413.8 999.3L401.6 995.9L390.3 992L380.9 988L372.5 983.5L365.8 978.7L363.2 976.4L361 974L359 971.3L357.6 968.9L356.7 966.5L356.1 964L356 961.5L356.4 958.8L357.1 956.3L358.2 953.9L359.8 951.5L362 948.8L367.2 944.1L374.4 939.4L382.6 935.2L392.8 931L403.7 927.4M620.3 927.4L631.5 931.1L641.7 935.3L650.3 939.8L657 944.3L662.1 948.9L664.3 951.6L665.8 954L667 956.5L667.7 958.9L668 961.4L667.8 964.2L667.3 966.6L666.3 969L664.9 971.5L662.9 974.2L658.1 978.8L651.3 983.6L642.8 988.2L633.4 992.1L622 996L610.2 999.3"/><path d="M423.6 999.4L414.2 996.9L406 994.2L399.1 991.3L393.9 988.5L389.8 985.3L387.3 982.3L386.5 980.6L386.1 979L386 977.5L386.3 975.9L387 974.2L388.1 972.6L391.4 969.3L395.8 966.4L401.9 963.4L409.4 960.6L417.4 958.2L427.2 955.8L437.7 953.8M586.3 953.8L596.8 955.8L606.6 958.2L614.6 960.6L622.1 963.4L628.2 966.4L632.9 969.5L636.1 972.8L637.7 975.9L638 977.5L637.9 979.2L637.4 980.9L636.7 982.3L634.2 985.3L630.1 988.5L624.4 991.5L617.5 994.4L609.2 997.1L600.4 999.4"/><path d="M76 975.3L76 950.6"/><path d="M73.8 979.9L72.3 976.9L70.4 973.7L68.1 970.9L65.5 968.3L62.7 966L59.5 964.1L56.2 962.4L52.5 961.1L47.9 960.1L42.9 959.6L37.7 959.6L33.2 960.1L25.6 961.8L24.6 965.6M24.6 987.6L26.8 993.7L29.8 998.9"/><path d="M117.2 998.8L118.9 995L119.8 991.6L120.4 987.1L120.3 983.2L119.9 979L118.9 974.7L117.5 970.2L115.6 965.5L115.2 964.6L111.2 963.7L106.4 963.1L101 962.8L97.6 963L93.6 963.6L90.7 964.4L87.2 965.7L84.7 967L81.8 968.9L79.8 970.7L77.5 973.2L75.7 976L74.2 979.1L73.1 982.4L72.5 985.3L72.2 989.1L72.3 992.2L72.6 995.5L73.3 999.4"/><path d="M76 950.6L71.5 950.4L67.4 950L63.5 949.2L60.6 948.3L57.2 946.9L54.1 945.2L51.3 943.1L49.2 941.2L47 938.6L45 935.6L43.4 932.2L42.3 929.3L41.2 925.3L40.4 921L39.8 912.4L40 907.1L40.5 901.4L42.4 889L59.2 910L76 884.8"/><path d="M76 884.8L92.8 910L109.6 889L111.5 901.4L112.2 912.4L111.6 921L109.7 929.3L107 935.6L105 938.6L102.8 941.2L97.9 945.2L94.8 946.9L91.4 948.3L84.6 950L76 950.6Z"/><path d="M172.9 974.2L173.5 950.9"/><path d="M173 974.7L170.2 970.8L166.8 967.4L162.6 964.7L157.8 962.6L152.4 961.3L146.5 960.7L140 960.9L134 961.8L131.8 966.4L129.9 971.7L128.7 976.9L128.1 981.8L128.1 986.4L128.8 990.8L130.1 994.8L132.3 999.1"/><path d="M213.9 998.8L215.5 995L216.5 991.6L217.1 987.9L217.2 984L216.8 979L215.9 974.7L214.6 970.2L212.8 965.5L212.4 964.6L208.4 963.7L203.7 963L198.3 962.7L194.9 962.8L190.9 963.4L187.9 964.1L184.4 965.3L181.8 966.6L178.9 968.4L176.3 970.6L174.1 973.1L172.2 976L170.7 979L169.5 982.4L168.9 985.2L168.5 989L168.5 992.2L168.8 995.5L169.5 999.4"/><path d="M175.1 891.3L175.2 891.3M174.4 917.2L174.5 917.2M174.4 919.7L174.3 920.2M173.7 944.1L173.8 944.1M173.5 950.6L169.1 950.4L164.9 950L161 949.2L158.1 948.3L154.8 946.9L151.7 945.2L149 943.1L147 941.2L144.8 938.6L143 935.6L141.4 932.2L140.4 929.3L139.4 925.3L138.7 921L138.4 912.4L138.7 907.1L139.3 901.4L141.6 889L157.8 910L175.3 884.8"/><path d="M175.3 884.8L191.4 910L208.8 889L210.4 901.4L210.7 912.4L209.9 921L207.8 929.3L204.9 935.6L202.9 938.6L200.5 941.2L195.6 945.2L192.5 946.9L189 948.3L182.2 950L173.5 950.6Z"/><path d="M265 969.6L264.5 950.9"/><path d="M263.2 971L259.8 967.5L256.3 965.1L251.7 962.9L247.2 961.5L242.4 960.7L237.1 960.4L231.5 960.8L225.6 961.8L223.7 966.4L222 971.8L220.9 976.9L220.5 981.8L220.7 986.5L221.5 990.9L222.9 994.9L225.2 999.2"/><path d="M301.1 998.9L302.1 996.6L302.8 994.1L303.2 991.6L303.3 988.9L303.1 986L302.5 983.1L300.4 976.9L297 970.5L292.8 964.6L285.6 964.2L281.9 964.4L277.5 964.9L274.3 965.6L270.6 966.8L268 968L265.1 969.9L262.6 972L260.5 974.4L258.9 977.1L257.8 980L257.2 983.2L257 985.9L257.2 989.4L257.8 992.3L258.9 996.1L260.2 999.3"/><path d="M262.7 885.3L262.8 885.3M262.8 887.3L262.9 887.3M262.8 889.3L262.9 889.3M262.9 891.3L263 891.3M262.9 893.3L263 893.3M263 895.3L263.1 895.3M263 897.3L263.1 897.3M263.1 899.3L263.2 899.3M263.2 902.2L263.3 902.2M263.2 904.2L263.3 904.2M263.3 906.2L263.4 906.2M263.3 908.2L263.4 908.2M263.4 910.2L263.5 910.2M263.4 912.2L263.5 912.2M263.5 914.2L263.6 914.2M263.6 916.2L263.7 916.2M263.6 918.2L263.7 918.2M263.7 920.2L263.8 920.2M263.7 922.2L263.8 922.2M263.8 924.2L263.9 924.2M263.8 926.2L263.9 926.2M263.9 928.2L264 928.2M263.9 930.2L264 930.2M264 932.2L264.1 932.2M264.1 935.1L264.2 935.1M264.1 937.1L264.2 937.1M264.2 939.1L264.3 939.1M264.2 941.1L264.3 941.1M264.3 943.1L264.4 943.1M264.3 945.1L264.4 945.1M264.4 947.1L264.5 947.1M264.4 949.1L264.5 949.1M264.5 950.6L260 950.4L255.8 950L251.9 949.2L249 948.3L245.5 946.9L242.4 945.2L239.5 943.1L237.5 941.2L235.1 938.6L233.1 935.6L231.4 932.2L230.2 929.3L229 925.3L228.1 921L227.3 912.4L227.3 907.1L227.6 901.4L229.2 889L246.6 910L262.4 885.2"/><path d="M262.7 884.8L280.2 910L296.4 889L298.4 899L299.5 909.2L299.4 919.2L298.1 927.7L296.9 931.5L295.4 934.9L291.9 940.2L289.5 942.6L286.8 944.8L283.8 946.6L280.6 948L273.1 950L264.5 950.6Z"/><path d="M885.8 942.9L888 944.8L889.9 947L891.6 949.5L893.1 952.7L894.2 955.5L895 959L895.4 962.6L895.5 965.6L895.1 969.1L894.5 972L893.5 974.8L892.2 977.3L890.5 979.6L888.6 981.7L886.2 983.4L884 984.5L879.9 985.7L780.6 985.6L777.4 985.2L774.5 984.2L772.3 982.6L770.7 980.4L769.9 978.1L768.6 969.2L768 963.8L767.7 957.7L767.8 951.8L768.4 945.4L769.3 939.3L770.7 933.5L772.5 928.2L774.6 923.5L777.1 919.3L779.5 916.1L781.9 913.8L784.4 911.9L787.1 910.6L789.4 909.8L792.2 909.5L795.4 909.6L798.3 910.2L800.9 911.3L803.2 912.9L805.7 915.2L807.9 917.9L809.8 920.9L811.6 924.8L813.1 928.8L816 939.4L821.4 939.4"/><path d="M783.4 913.6L778.3 903.9L775.2 898.6L772.2 895.1L767 890.5" stroke-width="5"/><path d="M798.3 910.9L797.6 901.4L797.6 895.9L798.7 891.4L801 885" stroke-width="5"/><path d="M772.5 890.5L772.1 892.4L770.6 894.6L768.8 895.6L766.9 895.9L764.9 895.5L763.3 894.4L761.9 892.1L761.6 890.1L762.1 888.2L763.3 886.6L764.9 885.5L766.9 885L768.8 885.3L771.1 886.8L772.1 888.5Z" fill="#1F1F1F" stroke="none"/><path d="M806.5 885L806.1 887L805.1 888.7L803.5 889.9L801.5 890.5L799.6 890.3L797.3 888.9L796.1 887.3L795.6 885.4L795.9 883.4L797.3 881.1L798.9 880L800.9 879.6L802.8 879.9L804.6 880.9L806.1 883.1Z" fill="#1F1F1F" stroke="none"/><path d="M788.8 928.6L788.6 929.9L787.9 931.1L786.4 932.3L785.1 932.6L783.1 932.3L782 931.6L780.9 929.9L780.6 928.6L780.9 927.2L781.5 926.1L783.1 924.8L784.4 924.5L786.4 924.8L787.5 925.6L788.3 926.6Z" fill="#1F1F1F" stroke="none"/><path d="M777.9 942.2L784.1 947.6L785.8 948.6L787.4 949L789.1 948.6L790.8 947.6L797 942.2" stroke-width="4.5"/><path d="M889.3 938.7L885.5 943.3L881.4 946.9L876.8 950L871.5 952.6L865.8 954.5L859.9 955.6L853.9 955.8L849 955.3L843.2 954L838.5 952.2L833.2 949.5L828.4 946L824.1 941.8L820.4 937.1L817.4 931.9L815.2 926.4L813.8 920.5L813.3 914.6L813.4 909.6L814.4 903.7L816.2 898L818.8 892.6L822.1 887.7L825.4 883.9L829.1 880.6L834.1 877.2L839.4 874.6L845.1 872.7L851 871.6L856.9 871.4L862.9 872.1L868.2 873.4"/><path d="M869.1 871.6L874.5 873L879.7 875.1L884.7 877.8L889.4 881.3L893.7 885.3L897.5 889.9L900.7 895.1L902.8 899.5L904.9 905.4L906.2 911.5L906.7 917.8L906.6 923L905.7 929.5L904.3 934.6L901.9 940.8L899.5 945.6L871.9 925.6L873 921.7L873.2 917.8L872.5 913.7L870.9 910.2L868.4 907.1L865.4 905L861.9 903.9L858.6 903.9Z"/><path d="M966.2 937.4L968.8 938.9L970.3 940.3L971.5 941.9L972.3 943.8L972.9 945.7L973.1 949.7L975.8 950.9L977.5 952L979 953.4L980.3 954.9L981.2 956.7L981.8 958.6L981.9 961.6L981.1 964.5L980.1 966.3L978.8 967.8L976.3 969.7L972.7 971.2L972 974.9L971.3 976.8L970.4 978.6L969.2 980.2L966.8 982.1L965 983L963 983.4L961 983.4L959.1 983L956.3 981.8L953.9 979.9L952 977.5L951.3 977.3L947.4 977.9L944.3 977.6L942.4 977L940.6 976L938.5 973.9L937 971.3L936.5 969.3L936.4 967.3L936.7 965.3L937.3 963.4L939.6 959.1L938.1 956.5L937.4 954.6L937.1 952.6L937 950.6L937.7 947.6L939.2 945.1L940.6 943.7L943.2 942.1L945.2 941.6L948.2 941.4L950.2 941.6L953 942.4L955.8 939.5L957.4 938.4L959.3 937.5L961.3 937L963.3 936.9Z"/><path d="M497.8 157.2L482.6 158.4L468.1 160.5L453.6 163.3L439.4 166.9L422.7 172.3L406.4 178.8L398.5 182.4M400.7 185.5L401.1 185.7M403.3 186.9L404.1 187.3M405.9 188L411.8 189.8M412.7 190.1L420 191.6M429 193.1L434.6 194M439.4 194.5L447.8 195.4M453.1 195.9L459.5 196.4M484.1 197.7L486.5 197.8M509 198.2L514 198.2M538.1 197.8L543 197.6M564.4 196.4L569.3 196.1M574.7 195.6L582.8 194.7M588.1 194.1L593 193.4M603.1 191.8L607.3 191M610.1 190.4L614.4 189.2M616.1 188.7L620.4 187.1M621.6 186.4L623.3 185.4M624.6 184.3L624.9 184M625.5 182.4L612.2 176.5L598.5 171.3L587.4 167.8L576.1 164.7L567.5 162.7L555.9 160.5L544.3 158.8L532.6 157.6L526.2 157.2"/><path d="M431.4 195.4L431.5 195.4M429.3 197.3L429.4 197.3M427.9 198.5L428 198.5M425.8 200.4L425.9 200.4M423.7 202.3L423.8 202.3M420.9 205L421 205M418.2 207.7L418.3 207.7M415.5 210.5L415.6 210.5M414.8 211.2L414.9 211.2M409.6 217L409.7 217M407.6 219.2L407.7 219.2M406.4 220.7L406.5 220.7M405.7 221.5L405.8 221.5M404.5 223L404.6 223M369.2 236.6L367 236.1M360.9 234.7L358.3 234M353.3 232.6L351.6 232M347.7 230.6L345.9 229.8M342.5 228L341.7 227.5M339.2 225.2L338.6 224L338.3 222.8L348.6 214L359.4 205.7L368.1 199.7L378.4 193.2L389 187.3L398.5 182.4L399.1 184L400.8 185.6L403.6 187.1L407.5 188.6L412.5 190L418.5 191.4L433.2 193.8"/><path d="M380.7 257.1L380.8 257.1M379.8 258.8L379.9 258.8M378.3 261.3L378.4 261.3M377.3 263L377.4 263M376.3 264.8L376.4 264.8M375.9 265.6L376 265.6M374.1 269.2L374.2 269.2M345.9 285.6L345 285.5M337.9 284.2L333.1 283.1M326.9 281.7L322.6 280.5M317.4 279L314 277.8M309.8 276.2L308.6 275.6M304.8 273.5L302.4 271.8M301.7 271.1L300.3 268.8M300.1 268.1L300 267.4L301.3 265.3L307.7 256.4L314.6 247.7L320.1 241.2L326 234.9L332 228.7L338.3 222.8L338.6 224L339.2 225.2L341.5 227.3L346.1 230L352.1 232.3L359.7 234.4L372.2 237.1"/><path d="M357.7 306.5L357.8 306.5M357.4 307.4L357.5 307.4M356.7 309.2L356.8 309.2M356.4 310.1L356.5 310.1M356.1 311L356.2 311M355.2 313.7L355.3 313.7M354.3 316.4L354.4 316.4M329.9 332.2L327 331.6M319.2 330.2L315.8 329.5M307.6 327.6L304.3 326.8M297.9 324.9L294.2 323.7M288.9 321.7L287.1 321M282.9 318.7L281.4 317.8M280.7 317.2L278.3 314.8M277.8 314L277.4 313.2L277.1 311.6L282.3 299.2L285.9 291.7L290.2 283.4L295 275.3L300 267.4L300.3 268.8L301.1 270.3L302.4 271.8L304.2 273.3L309.5 276.1L316.8 278.9L326.1 281.6L337.3 284.1L345.6 285.6"/><path d="M344.3 355L344.4 355M344.2 355.9L344.3 355.9M343.3 360.6L343.4 360.6M321.6 377L320.2 376.8M310.4 375L306.1 374.1M298.1 372.3L294.4 371.4M286.9 369.3L284.5 368.5M276.2 365.4L271.8 363.1M270.5 362.3L267.6 360.1M266.4 358.7L266.5 358.7M265.7 357.3L265.4 356.5M265.2 355.3L266.5 347.8L268.5 338.6L271 329.5L273.8 320.5L277.1 311.6L277.4 313.2L278 314.4L279.7 316.5L281.8 318.1L287.6 321.3L295.8 324.3L306 327.3L318.4 330.1L329.8 332.2"/><path d="M320.2 419.5L310.8 420.6L301.3 421L294.9 420.9L287.1 419.9L281.9 418.6L278.7 417.4L275.9 416L273.2 414.3L270.9 412.4L267.9 409.3L266.2 406.9L264.8 404.4L263.3 400.5L262.1 394.9L262.1 386.6L262.6 375.9L263.6 365.1L265.1 355.2L265.4 356.9L266.3 358.7L267.9 360.4L270 362.1L272.1 363.3L276.2 365.4L284.7 368.6L295.5 371.7L308.5 374.7L321.7 377.1"/><path d="M483.7 200L483.8 200M483.1 201.8L483.2 201.8M482.1 204.4L482.2 204.4M481.4 206.2L481.5 206.2M480.8 208L480.9 208M480.5 208.9L480.6 208.9M479.3 212.5L479.4 212.5M478.5 215.2L478.6 215.2M477.6 217.9L477.7 217.9M477.3 218.8L477.4 218.8M476.8 220.6L476.9 220.6M476.2 222.4L476.3 222.4M475.7 224.2L475.8 224.2M475.2 226L475.3 226M474.7 227.8L474.8 227.8M450.8 245.4L450.3 245.4M449.3 245.4L446.4 245.2M445.4 245.1L445.5 245.1M444.4 245.1L442.5 244.9M441.5 244.9L440.5 244.8M439.5 244.7L439.6 244.7M438.6 244.7L436.6 244.5M435.6 244.5L435.7 244.5M434.7 244.4L432.7 244.3M431.7 244.2L431.8 244.2M430.7 244.2L428.8 244M427.8 244L427.9 244M426.9 243.9L424.9 243.7M424 243.6L420.2 243.3M419.2 243.2L415.4 242.8M414.4 242.8L414.5 242.8M413.5 242.7L410.6 242.4M402.9 224.9L411.2 215.1L421.9 203.9L433.2 193.8L444.5 195.1L457 196.3L484.5 197.8L484.4 198.2"/><path d="M410.6 242.4L427.8 244L450.8 245.4M466.1 265L466.2 265M465.7 266.9L465.8 266.9M465.3 268.8L465.4 268.8M464.9 270.7L465 270.7M464.8 271.7L464.9 271.7M464.4 273.6L464.5 273.6M464 276.4L464.1 276.4M441.6 295.1L441.1 295.1M440.2 295.1L438.2 295M437.2 295L436.3 294.9M435.3 294.9L434.3 294.8M433.3 294.8L432.4 294.7M431.4 294.6L430.4 294.6M429.5 294.5L428.5 294.4M427.5 294.4L426.6 294.3M425.6 294.3L424.7 294.2M423.7 294.1L421.8 294M420.8 293.9L419.8 293.9M418.9 293.8L417.9 293.7M416.9 293.7L416 293.6M415 293.6L414 293.5M413.1 293.4L412.1 293.4M411.1 293.3L410.2 293.2M409.2 293.2L409.3 293.2M408.2 293.1L408.3 293.1M407.3 293L406.3 292.9M405.3 292.8L404.4 292.7M403.4 292.7L403.5 292.7M402.4 292.6L402.5 292.6M401.4 292.5L399.5 292.3M398.5 292.2L398.6 292.2M397.6 292.1L397.7 292.1M396.6 292L394.6 291.9M393.7 291.8L392.7 291.7M391.7 291.6L390.7 291.5M389.8 291.4L387.8 291.3M386.9 291.2L384 290.9M372.9 271.4L377 263.4L381 256.7"/><path d="M384 290.9L409.2 293.2L441.6 295.1M458.1 315.9L458.2 315.9M457.7 318.8L457.8 318.8M457.6 319.7L457.7 319.7M457.4 321.6L457.5 321.6M457.2 323.6L457.3 323.6M436.1 342.4L435.7 342.4M434.7 342.4L433.7 342.3M432.7 342.3L430.8 342.2M429.8 342.2L428.8 342.1M427.9 342.1L426.9 342M425.9 342L424.9 341.9M423.9 341.9L420.9 341.7M419.9 341.6L419 341.5M418 341.5L417 341.4M416 341.3L416.1 341.3M415 341.3L415.1 341.3M414 341.2L413 341.1M412 341.1L411 341M410 340.9L410.1 340.9M409 340.9L408 340.8M407 340.7L407.1 340.7M406 340.7L406.1 340.7M405.1 340.6L402.1 340.4M401.1 340.4L398.1 340.2M397.1 340.1L394.1 339.8M393.1 339.7L391.1 339.5M390.2 339.4L388.2 339.3M387.2 339.2L385.2 339M384.2 338.9L381.2 338.6M380.2 338.6L378.2 338.4M377.2 338.3L375.2 338.1M374.3 338L372.3 337.8M371.3 337.7L368.4 337.4M354.2 316.8L357.7 306.5"/><path d="M367.9 337.3L398.1 340.2L425.9 342L436.1 342.4M453.6 363.4L453.7 363.4M453.6 364.3L453.7 364.3M453.4 366.3L453.5 366.3M432.9 387.7L425.5 387.4M424.5 387.3L421.5 387.2M420.5 387.1L418.6 387M417.6 386.9L416.6 386.9M415.7 386.8L415.8 386.8M414.7 386.7L413.7 386.7M412.7 386.6L410.8 386.5M409.8 386.4L408.8 386.4M407.9 386.3L408 386.3M406.9 386.2L405.9 386.2M404.9 386.1L404 386M403 386L403.1 386M402 385.9L401.1 385.8M400.1 385.8L398.1 385.6M397.2 385.6L396.2 385.5M395.2 385.5L393.3 385.3M392.3 385.3L392.4 385.3M391.3 385.2L391.4 385.2M390.3 385.1L389.4 385M388.4 384.9L384.5 384.6M383.6 384.5L382.6 384.4M381.6 384.3L379.7 384.1M378.7 384L377.7 384M376.8 383.9L374.8 383.7M373.9 383.6L371.9 383.4M370.9 383.4L371 383.4M370 383.3L370.1 383.3M369 383.2L365.1 382.8M364.1 382.7L363.2 382.6M362.2 382.5L361.2 382.4M360.2 382.3L359.7 382.2M343.2 361.1L344.6 353.6"/><path d="M359.7 382.2L392.3 385.3L421.5 387.2L432.9 387.7M434.9 432.8L425.5 436.4L415.3 439.4L405.4 441.2L400.5 441.7L395.6 441.9L388.4 441.4L383.7 440.7L379.1 439.7L374.5 438.3L369.9 436.6L363.3 433.6L353.2 427.6M338.9 399L339 399"/><path d="M539.6 198.2L539.7 198.2M540.9 201.8L541 201.8M541.9 204.4L542 204.4M542.9 207.1L543 207.1M543.2 208L543.3 208M544.1 210.7L544.2 210.7M544.4 211.6L544.5 211.6M545 213.4L545.1 213.4M545.8 216.1L545.9 216.1M547 219.7L547.1 219.7M547.5 221.5L547.6 221.5M548.3 224.2L548.4 224.2M548.8 226L548.9 226M549 226.9L549.1 226.9M534.7 246.8L534.8 246.8M530.8 246.8L530.9 246.8M529.8 246.8L529.9 246.8M526.9 246.9L527 246.9M525.9 246.9L526 246.9M523.1 246.9L523.2 246.9M521.1 246.9L521.2 246.9M519.2 246.9L519.3 246.9M517.3 246.9L517.4 246.9M515.4 247L515.5 247M513.4 247L513.5 247M511 247L508.2 247M507.2 246.9L504.3 246.9M503.3 246.9L500.5 246.9M499.5 246.9L496.6 246.9M495.6 246.8L494.7 246.8M493.7 246.8L492.8 246.8M491.8 246.8L490.8 246.8M489.8 246.8L489.3 246.8M474.7 227.8L476.9 220.1L480.6 208.4L484.5 197.8L512 198.2L539 197.8"/><path d="M489.3 246.8L512 247L534.7 246.8M558.1 265.9L558.2 265.9M558.5 267.8L558.6 267.8M558.9 269.7L559 269.7M559.7 274.5L559.8 274.5M544.2 296.5L544.3 296.5M542.2 296.5L542.3 296.5M541.3 296.6L541.4 296.6M538.3 296.6L538.4 296.6M535.4 296.7L535.5 296.7M532.4 296.7L532.5 296.7M529.4 296.7L529.5 296.7M528.4 296.7L528.5 296.7M526.4 296.8L526.5 296.8M525.4 296.8L525.5 296.8M522.4 296.8L522.5 296.8M519.5 296.8L519.6 296.8M516.5 296.8L516.6 296.8M515.5 296.8L515.6 296.8M513.5 296.9L513.6 296.9M512.5 296.9L512.6 296.9M511.5 296.9L510 296.9M509 296.8L507 296.8M506 296.8L504 296.8M503.1 296.8L500.1 296.8M499.1 296.8L497.1 296.7M496.1 296.7L494.1 296.7M493.1 296.7L491.1 296.7M490.1 296.7L487.2 296.7M486.2 296.7L484.2 296.6M483.2 296.6L481.3 296.5M480.3 296.5L479.8 296.5M463.9 276.9L466.1 265"/><path d="M479.8 296.5L512 296.9L544.2 296.5M565.8 314.9L565.9 314.9M566.2 317.8L566.3 317.8M566.5 320.7L566.6 320.7M566.8 323.6L566.9 323.6M547 343.8L547.1 343.8M545 343.9L545.1 343.9M542.1 344L542.2 344M539.1 344L539.2 344M537.2 344L537.3 344M535.2 344.1L535.3 344.1M532.2 344.1L532.3 344.1M530.3 344.1L530.4 344.1M528.3 344.1L528.4 344.1M526.3 344.1L526.4 344.1M524.3 344.2L524.4 344.2M522.4 344.2L522.5 344.2M520.4 344.2L520.5 344.2M519.4 344.2L519.5 344.2M517.4 344.2L517.5 344.2M515.5 344.2L515.6 344.2M513.5 344.2L513.6 344.2M511 344.2L510 344.2M509 344.2L508.1 344.2M507.1 344.2L506.1 344.2M505.1 344.2L503.1 344.2M502.1 344.2L501.1 344.2M500.2 344.2L499.2 344.1M498.2 344.1L497.2 344.1M496.2 344.1L495.2 344.1M494.2 344.1L493.2 344.1M492.3 344.1L490.3 344.1M489.3 344.1L488.3 344.1M487.3 344L486.3 344M485.3 344L484.4 344M483.4 344L482.4 344M481.4 344L478.5 343.9M477.5 343.9L474.6 343.8M457.1 324.1L458.2 314.9"/><path d="M474.6 343.8L512 344.3L549.4 343.8M570.4 363.4L570.5 363.4M570.5 365.3L570.6 365.3M570.6 366.3L570.7 366.3M570.7 369.3L570.8 369.3M550.5 389.1L550.6 389.1M545.6 389.2L545.7 389.2M541.6 389.3L541.7 389.3M538.7 389.3L538.8 389.3M536.8 389.4L536.9 389.4M533.8 389.4L533.9 389.4M531.9 389.4L532 389.4M529 389.4L529.1 389.4M527 389.4L527.1 389.4M525.1 389.5L525.2 389.5M522.2 389.5L522.3 389.5M520.3 389.5L520.4 389.5M517.3 389.5L517.4 389.5M515.4 389.5L515.5 389.5M512.5 389.6L512.6 389.6M511.5 389.6L511 389.6M510.1 389.6L508.1 389.5M507.1 389.5L506.2 389.5M505.2 389.5L505.3 389.5M504.2 389.5L503.3 389.5M502.3 389.5L501.3 389.5M500.4 389.5L498.4 389.5M497.4 389.4L496.5 389.4M495.5 389.4L493.6 389.4M492.6 389.4L491.6 389.4M490.6 389.4L489.7 389.4M488.7 389.4L488.8 389.4M487.7 389.4L486.8 389.4M485.8 389.4L483.8 389.3M482.4 389.3L480.9 389.3M479.9 389.3L478 389.2M477 389.2L476 389.2M475 389.1L474 389.1M472 389.1L471.5 389M453.3 369.3L453.7 362.4"/><path d="M471.5 389L512 389.6L552.5 389M572.3 407.7L572.4 407.7M556.7 434.5L547.5 439L537.4 442.9L532.3 444.5L527.3 445.7L522.2 446.6L517.1 447.2L509.5 447.3L504.4 446.9L499.3 446.2L494.2 445.1L489.1 443.7L481.5 441.1L471.5 436.6L467.3 434.4M451.7 407.7L451.8 407.7"/><path d="M591.2 194.1L591.3 194.1M593.3 196L593.4 196M595.4 197.9L595.5 197.9M597.5 199.8L597.6 199.8M599.6 201.7L599.7 201.7M601.7 203.6L601.8 203.6M603.1 205L603.2 205M604.4 206.4L604.5 206.4M605.1 207.1L605.2 207.1M606.5 208.4L606.6 208.4M607.8 209.8L607.9 209.8M609.2 211.2L609.3 211.2M610.5 212.6L610.6 212.6M611.2 213.3L611.3 213.3M612.5 214.7L612.6 214.7M614.4 217L614.5 217M616.4 219.2L616.5 219.2M617 220L617.1 220M618.3 221.5L618.4 221.5M618.9 222.3L619 222.3M620.8 224.5L620.9 224.5M612 242.5L612.1 242.5M608.1 242.9L608.2 242.9M607.2 243L607.3 243M603.4 243.3L603.5 243.3M602.4 243.4L602.5 243.4M597.6 243.8L597.7 243.8M593.7 244.1L593.8 244.1M589.8 244.4L589.9 244.4M586.9 244.6L587 244.6M585.9 244.6L586 244.6M583 244.8L583.1 244.8M580.1 245L580.2 245M576.1 245.3L576.2 245.3M575.2 245.3L575.3 245.3M573.2 245.4L573.3 245.4M549.3 227.8L547.1 220.1L543.4 208.4L539.5 197.8L567 196.3L579.5 195.1L590.4 193.9"/><path d="M573.2 245.4L596.2 244L613.4 242.4M643.7 257.9L643.8 257.9M645.7 261.3L645.8 261.3M647.7 264.8L647.8 264.8M649 267.4L649.1 267.4M649.9 269.2L650 269.2M650.9 270.9L651 270.9M639.6 290.9L639.7 290.9M637.6 291.1L637.7 291.1M634.7 291.4L634.8 291.4M633.7 291.5L633.8 291.5M630.8 291.7L630.9 291.7M628.9 291.9L629 291.9M626.9 292.1L627 292.1M624 292.3L624.1 292.3M619.2 292.8L619.3 292.8M617.2 293L617.3 293M613.3 293.3L613.4 293.3M611.4 293.4L611.5 293.4M609.5 293.5L609.6 293.5M607.6 293.7L607.7 293.7M605.6 293.8L605.7 293.8M603.7 293.9L603.8 293.9M600.8 294.1L600.9 294.1M598.9 294.2L599 294.2M596.9 294.3L597 294.3M595 294.5L595.1 294.5M593.1 294.6L593.2 294.6M591.1 294.7L591.2 294.7M589.2 294.8L589.3 294.8M587.3 294.9L587.4 294.9M584.3 295.1L584.4 295.1M582.4 295.1L582.5 295.1M560.1 276.9L557.9 265"/><path d="M582.4 295.1L614.8 293.2L640 290.9M666.3 306.5L666.4 306.5M667 308.3L667.1 308.3M667.6 310.1L667.7 310.1M668.2 311.8L668.3 311.8M668.5 312.8L668.6 312.8M669.1 314.6L669.2 314.6M654.2 337.6L654.3 337.6M651.2 337.9L651.3 337.9M647.3 338.2L647.4 338.2M645.3 338.4L645.4 338.4M644.3 338.5L644.4 338.5M641.3 338.8L641.4 338.8M638.3 339L638.4 339M637.3 339.1L637.4 339.1M635.3 339.3L635.4 339.3M634.3 339.4L634.4 339.4M631.4 339.7L631.5 339.7M629.4 339.8L629.5 339.8M628.4 339.9L628.5 339.9M627.4 340L627.5 340M624.4 340.3L624.5 340.3M623.4 340.3L623.5 340.3M620.4 340.5L620.5 340.5M619.4 340.6L619.5 340.6M615.5 340.8L615.6 340.8M612.5 341L612.6 341M610.5 341.2L610.6 341.2M606.5 341.4L606.6 341.4M604.6 341.6L604.7 341.6M601.6 341.8L601.7 341.8M600.6 341.8L600.7 341.8M596.6 342L596.7 342M594.7 342.1L594.8 342.1M591.8 342.3L591.9 342.3M589.8 342.4L589.9 342.4M587.9 342.4L588 342.4M566.9 324.1L565.8 314.9"/><path d="M587.9 342.4L598.1 342L625.9 340.2L656.1 337.3M679.7 355L679.8 355M680.2 357.8L680.3 357.8M664.3 382.2L664.4 382.2M662.3 382.4L662.4 382.4M660.4 382.7L660.5 382.7M657.4 383L657.5 383M655.5 383.1L655.6 383.1M650.6 383.6L650.7 383.6M645.8 384L645.9 384M643.8 384.2L643.9 384.2M637 384.8L637.1 384.8M635.1 385L635.2 385M630.2 385.4L630.3 385.4M627.3 385.6L627.4 385.6M625.4 385.7L625.5 385.7M624.4 385.7L624.5 385.7M622.5 385.9L622.6 385.9M619.5 386.1L619.6 386.1M617.6 386.2L617.7 386.2M614.7 386.4L614.8 386.4M611.7 386.6L611.8 386.6M609.8 386.7L609.9 386.7M606.9 386.9L607 386.9M604 387.1L604.1 387.1M601 387.2L601.1 387.2M597 387.4L597.1 387.4M595.1 387.5L595.2 387.5M593.1 387.6L593.2 387.6M591.1 387.7L591.2 387.7M570.7 369.3L570.3 362.4"/><path d="M591.1 387.7L602.5 387.2L631.7 385.3L664.3 382.2M670.7 427.6L665.1 431.2L656.3 435.7L651.8 437.5L647.2 439L642.6 440.3L637.9 441.1L633.2 441.7L628.4 441.9L623.5 441.7L618.6 441.2L608.7 439.4L601.1 437.2L589.1 432.8M572.3 407.7L572.4 407.7"/><path d="M682.7 227.2L681.3 228.1M678.6 229.6L677.3 230.2M673.7 231.6L670.9 232.5M665.7 234L663.8 234.5M658.6 235.7L654.4 236.6M621.1 224.9L612.8 215.1L602.1 203.9L590.8 193.8L605.5 191.4L611.5 190L616.5 188.6L620.4 187.1L623.2 185.6L624.9 184L625.5 182.4L635 187.3L644.3 192.5L653.4 198L659 201.8L670.7 210.3L680 217.9L685.7 222.8"/><path d="M651.8 237.1L664.3 234.4L671.9 232.3L677.9 230L682.2 227.6L684.1 225.8L684.8 225.2L685.4 224L685.7 222.8L692 228.7L698 234.9L703.9 241.2L709.4 247.7L716.3 256.4L722.7 265.3L724 267.4L723.9 267.7M723.5 269.3L722.4 270.9M721.6 271.8L721.7 271.8M719.7 273.2L719.8 273.2M715.4 275.6L714.2 276.2M710 277.8L706.6 279M701.4 280.5L697.1 281.7M690.9 283.1L686.1 284.2M679 285.5L678.1 285.6M651.1 271.4L647 263.4L643 256.7"/><path d="M678.4 285.6L686.7 284.1L697.9 281.6L707.2 278.9L714.5 276.1L719.8 273.3L721.6 271.8L722.9 270.3L723.7 268.8L724 267.4L731.2 278.9L738.1 291.7L741.7 299.2L746.9 311.6M746.6 313.1L746.4 313.5M745.7 314.8L745.8 314.8M744.2 316.5L743.9 316.7M742.1 318.1L742.2 318.1M737.4 320.7L736.1 321.3M731.3 323.2L727.5 324.5M721.8 326.2L717.4 327.4M710.7 328.9L704.8 330.2M697 331.6L694.1 332.2M669.8 316.8L666.3 306.5"/><path d="M694.2 332.2L705.6 330.1L718 327.3L728.2 324.3L736.4 321.3L742.2 318.1L744.3 316.5L745.7 314.8L746.6 313.2L746.9 311.6L751 323.2L754.5 334.9L757.7 348.7L758.9 355.2M758.6 356.8L758.4 357.2M757.6 358.7L757.7 358.7M756.1 360.4L755.7 360.6M754.1 361.9L753.1 362.5M751.7 363.4L746.5 365.9M741 368L738.9 368.7M732.5 370.6L727.9 371.9M720.7 373.5L714.6 374.8M706.4 376.3L702.6 377M680.8 361.1L679.4 353.6"/><path d="M702.3 377.1L715.5 374.7L728.5 371.7L739.3 368.6L747.8 365.4L753.3 362.5L756.1 360.4L757.7 358.7L758.6 356.9L758.9 355.2L760.7 368.2L761.7 381.2L762 393.4L761.1 399.1L759.8 403.1L757.8 406.9L755.2 410.4L753.1 412.4L749.5 415.2L746.7 416.7L742.1 418.6L735.1 420.2L729.1 420.9L724.9 421L718 420.9L703.6 419.5M685.1 399L685.2 399"/><circle cx="391.4" cy="240.2" r="19"/><circle cx="470" cy="246.3" r="19"/><circle cx="554" cy="246.3" r="19"/><circle cx="632.6" cy="240.2" r="19"/><circle cx="364.7" cy="288.6" r="19"/><circle cx="460.7" cy="296" r="19"/><circle cx="563.3" cy="296" r="19"/><circle cx="659.3" cy="288.6" r="19"/><circle cx="348.8" cy="335.1" r="19"/><circle cx="455.2" cy="343.3" r="19"/><circle cx="568.8" cy="343.3" r="19"/><circle cx="675.2" cy="335.1" r="19"/><circle cx="340.5" cy="379.9" r="19"/><circle cx="452.3" cy="388.6" r="19"/><circle cx="571.7" cy="388.6" r="19"/><circle cx="683.5" cy="379.9" r="19"/><circle cx="338.3" cy="417" r="18"/><circle cx="451.5" cy="425.8" r="18"/><circle cx="572.5" cy="425.8" r="18"/><circle cx="685.7" cy="417" r="18"/><circle cx="512" cy="142.8" r="20"/><path d="M512 430L512 520" stroke-width="8"/><path d="M512 900.3L511.7 901L510.9 902L508.4 903.5L504 904.9L498 906.2L483.8 908.2L444.3 912.5M426.1 915.3L426.2 915.3M425.1 915.5L425.2 915.5M421.4 916.3L421.5 916.3M420.5 916.5L420.6 916.5M418 917.2L418.1 917.2M415.6 917.9L415.7 917.9M417 947.9L417.1 947.9M420.6 949.4L420.7 949.4M421.4 949.7L421.5 949.7M423.8 950.5L423.9 950.5M425.5 951L425.6 951M426.3 951.2L426.4 951.2M429 951.9L429.1 951.9M444.2 954.5L454.2 955.4L465.8 955.9L506.4 956L508.4 955.4L509.9 954L511 951.9L512 948.4M511.5 899.9L511 899.7"/><path d="M444 912.5L430.6 914.4L420.1 916.6L412.4 919.1L409.3 920.5L406.9 922L405.1 923.7L404.2 925.2L403.6 929.9L403.8 932.3L404.4 935.1L405.4 937.8L407 940.2L409.4 942.9L412.4 945.3L416 947.4L420.3 949.3L430.3 952.3L444 954.5Z"/><path d="M474 902L443 902L441.1 901.6L439.2 901L437.4 900L435.9 898.8L434.5 897.4L433.4 895.7L432.4 892.9L432 891L432 863.5"/><path d="M511.7 899.1L508.8 901L506.9 901.6L505 902L474 902L474 866"/><path d="M588 899L588.1 901.2L588.6 902.7L589.8 904.5L591.5 906L595.6 908.2L606.7 912.4M607.5 912.7L608.2 913.1M609 913.4L612.5 915.5L615 917.4M615.6 918L616.2 918.6M616.7 919.2L617.2 919.8M617.6 920.5L617.7 920.5M618.1 921.2L619.2 923.4M619.5 924.2L620.3 928L620.3 931.7L619.6 935.1L618.3 938.3L616.3 941.1L613.7 943.7L610.5 946L606.6 948M605.9 948.3L605.2 948.7M604.5 949L604.6 949M603.8 949.3L596.4 951.6M595.5 951.8L592.7 952.5M591.8 952.7L590.8 952.9M589.8 953L583.6 954.1L575.8 954.9L559.6 955.9L518 956L516.7 955.8L515.3 955.2L513.9 953.6L512.6 950.8L511.8 947L511.4 942.3L511.2 932.9L512 899"/><path d="M580 912L605.8 912L610.4 914.2L613.8 916.4L616.2 918.6L618.1 921.2L619.5 924.2L620.2 927.3L620.4 930.5L619.9 934L618.8 937.3L617 940.2L614.6 942.9L611.6 945.3L608 947.4L603.8 949.3L593.7 952.3L580 954.5Z"/><path d="M550 902L519 902L516.1 901.3L514.3 900.6L512.6 899.5L511.2 898.1L509.7 896.1L508.7 893.9L508.2 892L508 890L508 866.5"/><path d="M592 863.5L592 890L591.6 892.9L590.6 895.7L589.5 897.4L588.1 898.8L586.6 900L584.8 901L582.9 901.6L581 902L550 902L550 866"/><path d="M512 866.5L511.5 866.5M427.3 862.6L427.4 862.6M424.4 862.3L424.5 862.3M422.4 862.1L422.5 862.1M421.5 862L421.6 862M414.8 861.3L414.9 861.3M410.1 860.7L410.2 860.7M408.3 860.5L408.4 860.5M405.5 860.1L405.6 860.1M403.7 859.9L403.8 859.9M402.8 859.8L402.9 859.8M393 858.3L393.1 858.3M392.1 858.2L392.2 858.2M390.4 857.9L390.5 857.9M389.6 857.7L389.7 857.7M384.5 856.8L384.6 856.8M380.1 855.5L380.2 855.5M380.4 852.7L380.5 852.7M380.7 850.8L380.8 850.8M380.8 849.8L380.9 849.8M380.9 848.8L381 848.8M381.2 846.9L381.3 846.9M382.1 840L382.2 840M385 821.9L389.1 799.6L394 777.8L399.3 758.3L405.3 739.4L411.3 723.5L418 708.6L425 695.8L428.7 689.9L432.6 684.4"/><path d="M591.4 684.4L595.3 689.9L599.5 696.5L603.5 703.6L607.2 711.1L610.8 719L614.5 728.1L621 746.3L627.3 767.4L632.9 790.2L637.7 814.2L641.8 839.5M642 840.5L642.2 842.5M642.4 843.5L642.5 843.5M642.5 844.5L642.8 846.4M642.9 847.4L643.2 849.3M643.3 850.3L643.4 850.3M643.4 851.2L644 856L643.2 856.2M642.4 856.3L641.6 856.5M640.7 856.6L638.2 857.1M637.4 857.2L635.7 857.5M634.9 857.7L632.3 858.1M631.4 858.2L628.8 858.6M627.9 858.8L623.5 859.4M622.6 859.6L618 860.2M617.1 860.3L616.2 860.4M615.3 860.5L613.4 860.8M612.5 860.9L610.6 861.1M609.7 861.2L608.7 861.3M607.8 861.5L605.9 861.7M604.9 861.8L605 861.8M604 861.9L603 862M602 862.1L599.1 862.4M598.2 862.5L597.2 862.6M596.2 862.7L590.3 863.2M589.3 863.3L571 864.7L551.1 865.7L531.9 866.3L512 866.5M512 695.9L512 692.4"/><rect x="564" y="782" width="44" height="38" rx="8"/><path d="M497.8 691.6L511.5 695.9M474.6 734.2L464 732L422 668L424.4 668.7"/><path d="M526.7 691.4L512 696L512 725.5M549.4 734.2L560 732L602 668L599.6 668.7"/><path d="M512 866.5L493.2 866.3L475 865.8L457.1 864.9L439.7 863.7L422.9 862.2L407.8 860.4L393.4 858.4L380 856L382.3 838.6L384.9 822L492.6 822"/><path d="M531.4 822L639.1 822L641.7 838.6L644 856L630.6 858.4L616.2 860.4L601.1 862.2L584.3 863.7L566.9 864.9L549 865.8L530.8 866.3L512 866.5L512 840.3"/><path d="M531 784L531 822L530.8 824.9L530.1 827.7L528.9 830.4L527.3 832.9L525.4 835.1L523.5 836.6L521.4 837.9L518.7 839.1L515.9 839.8L513 840L509.1 839.9L506.2 839.3L503.4 838.3L500.9 836.9L498.6 835.1L496.7 832.9L495.1 830.4L493.9 827.7L493.2 824.9L493 822L493 784"/><path d="M511.6 784L499.3 783.9L491 783.3L484.5 781.9L482.1 781.1L480 780L477.3 778L474.6 775.3L472 772.1L469 767.7L467 764L465.4 760.4L464.4 757L464 754L464.2 751.7L465.2 748.3L466.9 744.8L469 741.2L471.5 737.8L474.3 734.6L477.2 732L480 730L484.5 728.2L491 726.9L499.3 726.2L511.6 726"/><path d="M512 726L522.6 726.1L531 726.6L536.9 727.5L541.9 729L545.4 730.9L549.7 734.6L553.8 739.5L556.6 743.9L558.8 748.3L559.9 752.5L559.8 756.2L558.6 760.4L556 765.8L552 772.1L547.3 777.4L543.3 780.4L538.7 782.2L532 783.4L523.7 783.9L512 784Z"/><path d="M502.3 520.2L512.2 520L521.7 520.2M609 549.9L614.7 554.6L619.8 559.6L624.4 564.8L628.8 570.8L632.2 576.4L635 582.2L637.2 588L638.7 594L639.7 600L640 606L639.7 612L638.7 618L637.2 624L635 629.8L632.2 635.6L628.4 641.8L624.4 647.2L619.8 652.4L614.7 657.4L608.7 662.3L602.2 667L595.7 671.1L588.6 674.9L581.3 678.3L573.5 681.4L565.5 684.1L557.2 686.5L548.2 688.5L539 690.1L530.2 691.1L521.2 691.8L512.2 692L503.3 691.8L494.3 691.2L485.5 690.1L475.8 688.5L467.3 686.6L459 684.3L450.9 681.6L443.2 678.5L435.8 675.1L428.7 671.3L422.1 667.2L415.6 662.6L409.6 657.6L404.5 652.7L399.9 647.5L395.8 642.1L392.3 636.5L389.2 630.2L386.9 624.3L385.3 618.4L384.4 612.4L384 606.3L384.3 600.3L385.2 594.3L386.9 587.7L389.2 581.8L392 576.1L395.4 570.5L399.4 565.1L404 559.9L409 554.9L415 549.9"/><path d="M414.8 549.6L411.9 545L409.3 539.6L407.7 534.8L406.5 529L406 523.5L406.2 518L406.9 512.6L408.3 507.3L410.3 502.1L412.9 497.3L416.3 492.4L419.9 488.2L424 484.6L428.9 481.1L434.1 478.3L438.8 476.5L444.6 474.9L449.5 474.2L455.5 474L460.5 474.4L465.9 475.5L471.1 477.1L476.5 479.6L481.2 482.5L485.6 485.8L489.8 490.1L493.2 494.4L496.1 499L498.3 503.5L500.3 509.2L501.3 514L502 520"/><path d="M522 520L522.5 515L523.7 509.2L525.7 503.5L527.9 499L530.8 494.4L534.2 490.1L538.4 485.8L542.4 482.8L546.6 480.1L552 477.5L557.7 475.6L563 474.5L568.5 474L574.5 474.2L579.4 474.9L585.2 476.5L590.8 478.7L595.6 481.4L600 484.6L604.5 488.6L607.7 492.4L611.1 497.3L613.5 501.7L615.7 507.3L617 512.1L617.8 518L618 523L617.5 529L616.4 534.3L614.7 539.6L612.1 545L609.2 549.6"/><circle cx="454" cy="518" r="35"/><circle cx="466" cy="526" r="14" fill="#1F1F1F" stroke="none"/><circle cx="426" cy="630" r="20"/><circle cx="570" cy="518" r="35"/><circle cx="558" cy="526" r="14" fill="#1F1F1F" stroke="none"/><circle cx="598" cy="630" r="20"/><path d="M462 618 C 476 625 548 625 562 618 C 560 676 464 676 462 618 Z"/><path d="M448 39.15 C 457.25 55.8 466.5 65.05 466.5 78 C 466.5 88.36 458.36 96.5 448 96.5 C 437.64 96.5 429.5 88.36 429.5 78 C 429.5 65.05 438.75 55.8 448 39.15 Z"/><path d="M512 39.15 C 521.25 55.8 530.5 65.05 530.5 78 C 530.5 88.36 522.36 96.5 512 96.5 C 501.64 96.5 493.5 88.36 493.5 78 C 493.5 65.05 502.75 55.8 512 39.15 Z"/><path d="M576 39.15 C 585.25 55.8 594.5 65.05 594.5 78 C 594.5 88.36 586.36 96.5 576 96.5 C 565.64 96.5 557.5 88.36 557.5 78 C 557.5 65.05 566.75 55.8 576 39.15 Z"/><path d="M416 95.15 C 425.25 111.8 434.5 121.05 434.5 134 C 434.5 144.36 426.36 152.5 416 152.5 C 405.64 152.5 397.5 144.36 397.5 134 C 397.5 121.05 406.75 111.8 416 95.15 Z"/><path d="M614 89.15 C 623.25 105.8 632.5 115.05 632.5 128 C 632.5 138.36 624.36 146.5 614 146.5 C 603.64 146.5 595.5 138.36 595.5 128 C 595.5 115.05 604.75 105.8 614 89.15 Z"/><path d="M147.27207793864216 213.87792206135785 C 156.52207793864216 230.52792206135786 165.77207793864216 239.77792206135786 165.77207793864216 252.72792206135784 C 165.77207793864216 263.08792206135786 157.63207793864217 271.22792206135784 147.27207793864216 271.22792206135784 C 136.91207793864214 271.22792206135784 128.77207793864216 263.08792206135786 128.77207793864216 252.72792206135784 C 128.77207793864216 239.77792206135786 138.02207793864216 230.52792206135786 147.27207793864216 213.87792206135785 Z"/><path d="M876.7279220613578 213.87792206135785 C 885.9779220613578 230.52792206135786 895.2279220613578 239.77792206135786 895.2279220613578 252.72792206135784 C 895.2279220613578 263.08792206135786 887.0879220613579 271.22792206135784 876.7279220613578 271.22792206135784 C 866.3679220613578 271.22792206135784 858.2279220613578 263.08792206135786 858.2279220613578 252.72792206135784 C 858.2279220613578 239.77792206135786 867.4779220613578 230.52792206135786 876.7279220613578 213.87792206135785 Z"/><path d="M134.58670488101149 322.1479548578435 C 143.83670488101149 338.79795485784354 153.08670488101149 348.04795485784354 153.08670488101149 360.9979548578435 C 153.08670488101149 371.35795485784354 144.9467048810115 379.4979548578435 134.58670488101149 379.4979548578435 C 124.22670488101149 379.4979548578435 116.08670488101149 371.35795485784354 116.08670488101149 360.9979548578435 C 116.08670488101149 348.04795485784354 125.33670488101149 338.79795485784354 134.58670488101149 322.1479548578435 Z"/><path d="M211.41803544727117 318.8857815735746 C 220.66803544727117 335.53578157357464 229.91803544727117 344.78578157357464 229.91803544727117 357.7357815735746 C 229.91803544727117 368.09578157357464 221.77803544727118 376.2357815735746 211.41803544727117 376.2357815735746 C 201.05803544727115 376.2357815735746 192.91803544727117 368.09578157357464 192.91803544727117 357.7357815735746 C 192.91803544727117 344.78578157357464 202.16803544727117 335.53578157357464 211.41803544727117 318.8857815735746 Z"/><path d="M779.6327111438768 260.03708887116863 C 788.8827111438768 276.68708887116867 798.1327111438768 285.93708887116867 798.1327111438768 298.88708887116866 C 798.1327111438768 309.24708887116867 789.9927111438768 317.38708887116866 779.6327111438768 317.38708887116866 C 769.2727111438768 317.38708887116866 761.1327111438768 309.24708887116867 761.1327111438768 298.88708887116866 C 761.1327111438768 285.93708887116867 770.3827111438768 276.68708887116867 779.6327111438768 260.03708887116863 Z"/><path d="M822 324.21424965364804 C 831.25 340.8642496536481 840.5 350.1142496536481 840.5 363.06424965364806 C 840.5 373.4242496536481 832.36 381.56424965364806 822 381.56424965364806 C 811.64 381.56424965364806 803.5 373.4242496536481 803.5 363.06424965364806 C 803.5 350.1142496536481 812.75 340.8642496536481 822 324.21424965364804 Z"/><path d="M901.1982608156394 284.1398495016907 C 910.4482608156394 300.78984950169075 919.6982608156394 310.03984950169075 919.6982608156394 322.98984950169074 C 919.6982608156394 333.34984950169076 911.5582608156394 341.48984950169074 901.1982608156394 341.48984950169074 C 890.8382608156394 341.48984950169074 882.6982608156394 333.34984950169076 882.6982608156394 322.98984950169074 C 882.6982608156394 310.03984950169075 891.9482608156394 300.78984950169075 901.1982608156394 284.1398495016907 Z"/><rect x="24" y="24" width="976" height="976" stroke-width="7"/></g></svg>
