<svg xmlns="http://www.w3.org/2000/svg" viewBox="0 0 1024 1024" width="1024" height="1024"><g id="line" fill="none" stroke="#1F1F1F" stroke-width="6" stroke-linecap="round" stroke-linejoin="round"><path d="M60 20L964 20L972.2 20.9L980.1 23.4L986.3 26.8L992.7 32.1L997.2 37.7L1001.1 45L1003.1 51.8L1004 60L1004 964L1003.1 972.2L1000.8 979.6L997.2 986.3L991.9 992.7L985.4 997.8L979 1001.1L971.1 1003.4L964 1004L60 1004L51.8 1003.1L44.4 1000.8L37.7 997.2L31.3 991.9L26.5 985.8L22.9 979L20.6 971.1L20 964L20 58.8L21.1 50.6L23.4 43.9L26.8 37.7L32.1 31.3L38.6 26.2L45 22.9L52.9 20.6Z"/><path d="M889.6 58.1L900.1 33.1L901.5 31.3L904.4 29.6L907.8 29.2L910 29.8L932.2 39L935 40.9L936.7 43.8L937.1 46.1L936.5 49.4L926.6 73.4L924.6 76.2L921.7 78L918.3 78.3L916.1 77.8L892.9 68.1L890.8 66.2L889.4 63.7L889 61.5Z"/><path d="M934.6 81.4L959.7 71.1L961.9 70.9L965.2 71.7L967.9 73.8L969 75.8L978.2 98L978.8 101.3L978 104.6L976.7 106.5L973.9 108.4L949.9 118.4L946.5 119L943.2 118.1L940.6 116L939.4 114L929.9 90.8L929.6 88.5L930.5 85.2L931.8 83.4Z"/><path d="M949.9 129.6L974.9 140.1L976.7 141.5L978.4 144.4L978.8 147.3L978.2 150L969 172.2L967.1 175L964.2 176.7L961.3 177.1L958.6 176.5L934.6 166.6L931.8 164.6L930 161.7L929.6 158.9L930.2 156.1L939.9 132.9L942.2 130.5L944.3 129.4L947.1 129Z"/><path d="M926.6 174.6L936.9 199.7L937.1 201.9L936.3 205.2L934.2 207.9L932.2 209L910 218.2L906.7 218.8L903.4 218L901.1 216.3L899.6 213.9L889.6 189.9L889 186.5L889.9 183.2L892 180.6L894 179.4L917.2 169.9L919.5 169.6L922.8 170.5L925 172.2Z"/><path d="M878.4 189.9L867.9 214.9L866.5 216.7L863.6 218.4L860.2 218.8L858 218.2L835.8 209L833 207.1L831.3 204.2L830.9 200.8L831.5 198.6L841.4 174.6L843.4 171.8L846.3 170L849.7 169.7L851.9 170.2L875.1 179.9L877.2 181.8L878.6 184.3L878.9 187.7Z"/><path d="M833.4 166.6L808.3 176.9L806.1 177.1L802.8 176.3L800.1 174.2L799 172.2L789.8 150L789.2 146.7L790 143.4L791.3 141.5L794.1 139.6L818.1 129.6L821.5 129L824.8 129.9L827.4 132L828.6 134L838.1 157.2L838.4 159.5L837.5 162.8L836.2 164.6Z"/><path d="M818.1 118.4L793.1 107.9L791.3 106.5L789.6 103.6L789.2 100.2L789.8 98L799 75.8L800.9 73L803.8 71.3L806.1 70.9L809.4 71.5L833.4 81.4L836.2 83.4L838 86.3L838.3 89.7L837.8 91.9L828.1 115.1L826.2 117.2L823.7 118.6L821.5 119Z"/><path d="M841.4 73.4L831.1 48.3L830.9 46.1L831.7 42.8L833.4 40.5L835.8 39L858 29.8L861.3 29.2L864.6 30L866.9 31.7L868.4 34.1L878.4 58.1L879 61.5L878.1 64.8L876.4 67L874 68.6L850.8 78.1L848.5 78.4L845.2 77.5L843 75.8Z"/><path d="M930 124L929.2 132.3L926.5 141.5L922.3 149.5L916.6 156.4L909.7 162.1L901.8 166.4L892.6 169.2L884.3 170L875.9 169.3L866.7 166.6L858.3 162.1L851.8 156.8L846 150L841.7 142.1L839 133.5L838 124.6L838.9 115.1L841.2 107L845 99.5L850.9 92L857.3 86.5L865.6 81.8L874.8 78.9L883.1 78L892.6 78.8L901.8 81.6L909.7 85.9L916.6 91.6L922.3 98.5L926.5 106.5L929.2 115.7Z"/><path d="M870 136L873.2 139L877.2 141.7L880.4 143L884.4 143.5L888.4 142.8L891.6 141.3L894.8 139L898 136" stroke-width="4"/><path d="M592.4 73.4L592.2 74L539.8 74L538.3 68.3L538 63.5L538.5 58.8L539.8 54.2L541.9 49.9L544.6 46.1L548 42.7L551.8 40L556.1 37.9L560.7 36.6L565.4 36.1L570.1 36.4L574.8 37.5L579.1 39.4L583.1 42L586.6 45.2L589.2 48.4"/><path d="M753.6 46.7L755.7 43.8L759 40.3L762.4 37.9L766.1 36L770.7 34.5L774.2 34L779 34.2L783.1 35L787 36.4L791.1 38.8L794.7 42L797 44.7L799.5 48.8L800.8 52.2L801.6 55.7L802 60.4L800.9 67.5L797.9 74L754.1 74L753.8 73.5"/><path d="M645.5 73.4L645.4 74L582.6 74L582 69.3L582.2 64.5L584.1 56.5L586.1 52.2L588.7 48.2L594.6 42.4L601.8 38.2L606.3 36.8L611 36L615.8 35.9L620.5 36.5L625.1 37.8L628.9 39.5"/><path d="M715.1 39.5L718.9 37.8L723.5 36.5L728.2 35.9L733 36L737.7 36.8L742.2 38.2L749.4 42.4L755.3 48.2L757.9 52.2L759.9 56.5L761.8 64.5L762 69.3L761.4 74L698.6 74L698.5 73.4"/><path d="M708.6 21.5L712.1 27.8L714.5 34.5L715.8 41.6L715.9 48.8L714.9 55.9L712.2 63.8L707.4 72.1L705.9 74L704.7 74L638.1 74L634 68.1L631.3 62.7L629.1 55.9L628.1 48.8L628.2 41.6L629.5 34.5L631.9 27.8L635.4 21.5"/><path d="M776.3 224.1L820.2 205L822.4 219.4L822.7 230.2L821.6 240.1L818.9 250.2L815.1 258.4L778.5 251.6"/><path d="M731.8 214.2L741.4 213.2M775.8 223.4L780.4 227.5L783.6 232L785.2 236.3L785.5 241.3L783.9 246L781.1 249.7L776.4 253.3L770.3 256.1L764.2 257.8L756.4 258.7L748.1 258.5L739.9 257.2L732.1 254.9L725.9 252.2L719.8 248.3L715.3 244.2M716.4 244.6L711.2 243.7L706.9 241.7L703.2 238.6L700.5 234.8L698.7 230.4L698.1 225.7L698.7 221L700.5 216.6L703.2 212.7L706.9 209.7L711.2 207.7L715.9 206.8L720.6 207.1L725.1 208.6L729.1 211.1L732.3 214.6"/><path d="M773.8 232.6L777.4 217.6L778.5 204.7L778.3 199.5L777.3 194L775.9 189.8L774 186L771.6 182.7L768.1 179.4L763.9 176.7L759.8 174.9L754.3 173.4L749.1 172.6L736 172.4L733.3 182.1L732.5 192L734.1 201.1L735.7 205.3L737.9 209.3L743.4 216L751.7 222.5L762.2 228.2Z"/><path d="M258.4 186.9L255.1 182L252.5 176.6L250.9 170.9L250.1 165.1L250.4 159.5L251.5 154.2L253.5 149.3L256.4 145.2L260 141.9L264.2 139.5L268.8 138.1L274.2 137.9L279.8 138.9L284.7 141L289.4 144L293.6 147.9"/><path d="M286.5 176.7L285.9 169.3L287.1 161.2L290.1 153.4L293.9 147.4L299.1 142.1L305.1 138.4L311.9 136.4L318.7 136.6L324.6 138.8L329.5 142.8L333.5 148.7L335.8 156L336.2 164L335.1 171L332.1 178.8L327.5 185.7"/><path d="M342.8 210L341.9 216.7L339.1 223.1L334.6 229L328.5 234.2L321.1 238.4L312.7 241.6L303.5 243.5L294 244.2L284.5 243.5L275.3 241.6L266.9 238.4L259.5 234.2L253.4 229L248.9 223.1L246.1 216.7L245.2 210L246.1 203.3L248.9 196.9L253.4 191L259.5 185.8L266.9 181.6L275.3 178.4L284.5 176.5L294 175.8L303.5 176.5L312.7 178.4L321.1 181.6L328.5 185.8L334.6 191L339.1 196.9L341.9 203.3Z"/><path d="M291.6 177.1L288 193L287.1 200.9L286.7 210L287.8 225.9L289.2 233.9L291.6 242.9" stroke-width="8"/><path d="M333 188L339.1 183.9L345.2 181.3L351.3 180.3L357.4 180.7" stroke-width="4"/><path d="M316 219.8L319.5 222L323 222.8L326.5 222L330 219.8" stroke-width="4"/><path d="M257.8 69.4L257.7 70L194.3 70L194 65.3L194.4 60.5L195.5 55.9L197.3 51.5L199.7 47.4L202.7 43.7L206.2 40.5L210.1 37.9L214.4 35.8L218.9 34.4L223.6 33.7L228.4 33.7L233.1 34.4L237.6 35.8L241.9 37.9L245.4 40.2"/><path d="M318.6 40.2L322.1 37.9L326.4 35.8L334.4 33.8L342.7 34L350.7 36.3L357.8 40.5L361.3 43.7L364.3 47.4L368.1 54.8L369.9 62.9M367.3 70L306.3 70L306.2 69.4"/><path d="M306.7 21.1L310.9 25.4L314.4 30.2L317.1 35.5L319 41.2L319.9 47.7L319.8 54.3L318.6 60.2L316.6 65.8L314.3 70L285 70L249.7 70L249.1 69L246.1 62.5L244.6 56.7L244 49.5L244.5 43.6L246.2 37.2L248.9 31.2L252.3 26.3L257.3 21.1"/><path d="M69.1 79.7L66.1 83.3L62.2 86L45.8 86L40.7 82L37.2 76.5L36.1 71.9L36.2 67.2L37.5 62.7L40.8 57.7L44.4 54.7L49.9 52.5L54.6 52L59.3 52.8M59.1 52.9L62.2 46.5L64.4 43.7L67.5 40.9L71.1 38.6L74.4 37.2L81.4 36L88.5 36.9L91.9 38.1L95.5 40.2L98.8 42.8L101.1 45.5L104.6 51.8L106 58.8L105.8 63L104.9 67.1L101.8 73.5L97 78.8L94 80.8L89.6 82.8L82.6 84L75.5 83.1L72.1 81.9L68.5 79.8"/><path d="M65 231.4L62.6 234L41.4 234L38.7 230.9L36.8 227.1L36 223.1L36.3 218.9L37.6 215L39.9 211.5L42.5 209.1L46.7 206.9L51.4 206L55.5 206.4M55.3 207L58.6 201.3L63 197.3L68.4 194.8L74.3 194L80.2 195L85.5 197.6L89.8 201.8L92.7 207L94 212.8L93.4 218.7L91.2 224.3L87.4 228.9L82.4 232.1L76.7 233.8L70.7 233.7L64.5 231.6"/><path d="M21.2 290L56 290M101.6 290L142.4 290M187.4 290L228.2 290M273.8 290L314 290M359.6 290L400.4 290M446 290L486.2 290M531.8 290L572 290M617.6 290L658.4 290M704 290L800 290M800 299.6L800 300.2M759.8 326L704 326M658.4 326L617.6 326M572 326L531.8 326M486.2 326L446 326M400.4 326L359.6 326M314 326L273.8 326M228.2 326L188 326M142.4 326L101.6 326M56 326L21.2 326"/><path d="M21.2 362L56 362M101.6 362L142.4 362M187.4 362L228.2 362M273.8 362L314 362M359.6 362L400.4 362M446 362L486.2 362M531.8 362L572 362M617.6 362L658.4 362M704 362L768.2 362M800 372.7L800 373.2"/><path d="M56 400.3L56 278L79 256L102 278L102 400.3"/><path d="M142 400.3L142 278L142.4 277.6M187.6 277.6L188 278L188 400.3"/><path d="M228 400.3L228 278L251 256L274 278L274 400.3"/><path d="M314 400.3L314 278L337 256L360 278L360 400.3"/><path d="M400 400.3L400 278L400.4 277.6M445.6 277.6L446 278L446 400.3"/><path d="M486 400.3L486 278L509 256L532 278L532 400.3"/><path d="M658 400.3L658 278L681 256L704 278L704 400.3"/><path d="M606.9 256L615.5 256.3L617.3 257.8L618 260L618 400.4M572 400.4L572 260L572.7 257.8L574.5 256.3L583.1 256"/><path d="M609.2 221.2L613.9 226.7L616.2 232.1L617 238.6L615.8 245L612.5 251.3L607.3 256.2L601.5 259L595 260L588.5 259L582.7 256.2L577.5 251.3L574.2 245L573 238.6L573.8 232.1L576.1 226.7L580.8 221.2"/><path d="M558.4 212.7L550.3 218.6L541.9 223.2L533.3 226.7L524.8 228.8L516 229.3L509.4 228.2L504.3 225.7L501 221.8L499.6 216.9L499.6 214.1L500.4 210.3L503.2 204L507.9 197.5L514.1 191.3L521.6 185.6L530.9 180.2L539.6 176.7"/><path d="M617.4 219.6L610.1 221.6L601.9 222.9L594.7 223.2L586.4 222.7L579.4 221.5L571.5 219.2L565.2 216.6L558.5 212.8L552.9 208.6L548.2 203.9L544.1 198.3L541.3 192.7L539.6 186.9L538.8 180.5L539.2 175L540.8 168.6M577.1 139.1L588.7 137.1L600.7 137M650.8 175L651.2 180L650.7 185.5L649.3 190.9L647.1 196.2M600.3 137.1L603.6 128.8L608.5 122L614.9 116.6L622.4 112.8L630.6 111L639 111.3L647 113.5L654.8 117.9L661.2 124.3L665.5 131.5L667.9 139.5L668.4 147.8L666.8 156.1L663.2 163.7L658 170.2L650.8 175.6"/><path d="M647.5 194.4L647.6 198.6L646.5 202.9L644.5 206.6L641.7 210.1L637.6 213.5L632.7 216.3L627.8 218.3L622.6 219.6L616.7 220.2L611.4 220.1L606.4 219.2L601.3 217.5L597 215L593.6 211.8L591.2 208.1L590.1 204.9L589.9 200.7L590.8 196.4L593 192.3L595.8 188.8L599.5 185.7L604.3 182.8L609.7 180.6L615.5 179.2L621.4 178.6L627.2 178.9L632.2 179.9L636.7 181.6L640.9 184.2L644.3 187.4L646.3 190.8Z"/><path d="M523.7 160.6L533.5 150.7L543.6 143.5L548.4 141.1L554.1 139.1L559.9 137.8L565.3 137.3L570.8 137.5L576.9 138.5L582.1 140L588.3 142.4L600.1 149.1L612.3 158.4L604.8 166.4L596.4 172.2L587 175.8L576.6 177.3L565.1 176.6L552.7 173.6L538.8 168.3Z"/><path d="M188 221.4L188 400.3M142 400.3L142 221.4"/><path d="M145.2 97.4L146.1 92.2L147.5 87.8L149.5 83.9L152 80.5L154.9 77.7L158.1 75.7L161.5 74.4L165 74L168.5 74.4L171.9 75.7L175.1 77.7L178 80.5L180.5 83.9L182.5 87.8L183.9 92.2L184.8 97.4"/><path d="M175.9 119.8L176.2 114.5L178 107.9L180.7 102.6L184.6 97.3L189.3 92.9L194.1 89.9L199.5 87.8L205 87.1L210.4 88L214.4 90L217.8 93.5L220.1 98.1L221.1 104L220.8 109.3L219.4 114.8L216.6 120.6"/><path d="M196.2 133.5L200.5 128.6L205 125.1L210.2 122.4L215.9 120.6L222.9 119.6L228.5 120L234.2 121.5L239 124.1L242.4 127.3L244.9 132L245.6 136.4L244.8 141.9L242.2 147.3L238.8 151.4L234.4 155L228.7 158.1"/><path d="M204.7 156.5L209.9 155.2L215.5 154.9L222.5 155.8L228.2 157.6L233.4 160.3L238.8 164.6L242.2 168.7L244.8 174.1L245.6 179.6L244.9 184L242.9 187.9L239 191.9L234.7 194.3L228.5 196L222.9 196.4L216.5 195.6"/><path d="M198 180.1L203.4 182.4L208.6 185.9L212.8 190L216.6 195.4L219.4 201.2L220.8 206.7L221.1 212L220.1 217.9L217.8 222.5L214.4 226L210.4 228L205 228.9L199 228.1L194.1 226.1L189.3 223.1L184.6 218.7"/><path d="M178.7 195.3L181.8 200.3L183.9 206.2L184.9 212L184.8 218.6L183.6 224.9L181.5 230.2L178 235.5L174.4 238.9L169.8 241.2L165 242L159.8 241.1L155.6 238.9L152 235.5L148.5 230.2L146.4 224.9L145.2 218.6"/><path d="M154.1 196.2L153.8 201.5L152 208.1L149.3 213.4L145.4 218.7L140.7 223.1L135.9 226.1L131 228.1L125 228.9L119.6 228L115.6 226L111.9 222.1L109.9 217.9L108.9 212L109.2 206.7L110.6 201.2L113.4 195.4"/><path d="M133.8 182.5L130.3 186.6L125 190.9L119.8 193.6L113.5 195.6L107.1 196.4L101.5 196L95.3 194.3L91 191.9L87.1 187.9L85.1 184L84.4 179.6L85.2 174.1L87.5 169.1L91.2 164.6L95.6 161L101.3 157.9"/><path d="M125.3 159.5L120.1 160.8L113.3 161.1L107.5 160.2L101.3 158.1L95.6 155L91.2 151.4L87.5 146.9L85.2 141.9L84.4 136.4L85.1 132L87.6 127.3L91 124.1L95.3 121.7L101.5 120L107.1 119.6L113.5 120.4"/><path d="M132 135.9L125.1 132.8L118.8 127.7L113.7 121.2L110.6 114.8L109 108.2L109.2 100.9L111.4 94.7L113 92.5L115.6 90L117.9 88.7L121.3 87.5L128 87.3L135 89.4L140.7 92.9L146.6 98.7L151 105.7L153.4 112.3L154.1 119.8"/><path d="M205 158L204.2 165.7L202 173.2L198.4 180L193.5 186.1L188 190.7L180.7 194.8L173.9 197L165.6 198L157.3 197.2L150.4 195.2L144 192L137.4 186.9L132 180.5L128.2 173.7L125.9 166.3L125 158L125.8 150.3L128 142.8L131.6 136L136.5 129.9L142 125.3L149.3 121.2L156.1 119L164.4 118L172.7 118.8L179.6 120.8L186 124L192.6 129.1L198 135.5L201.8 142.3L204.1 149.7Z"/><path d="M446 189.6L446 400.2M400 400.2L400 189.6"/><path d="M403.2 65.4L404.1 60.2L405.5 55.8L407.5 51.9L410 48.5L412.9 45.7L416.1 43.7L419.5 42.4L423 42L426.5 42.4L429.9 43.7L433.1 45.7L436 48.5L438.5 51.9L440.5 55.8L441.9 60.2L442.8 65.4"/><path d="M433.9 87.8L434.4 81.4L436 75.9L438.7 70.6L442.6 65.3L447.3 60.9L452.1 57.9L457 55.9L463 55.1L467.6 55.7L472.4 58L475.5 61.2L478.1 66.1L479.1 70.9L478.8 77.3L477.4 82.8L474.6 88.6"/><path d="M454.2 101.5L458.1 97L463 93.1L468.2 90.4L473.9 88.6L480.9 87.6L486.5 88L492.7 89.7L497 92.1L500.9 96.1L502.9 100L503.6 104.4L502.8 109.9L500.5 114.9L496.8 119.4L492.4 123L486.7 126.1"/><path d="M462.7 124.5L468.4 123.1L474.7 122.9L480.5 123.8L487.3 126.1L492.4 129L496.8 132.6L500.5 137.1L502.8 142.1L503.6 147.6L502.9 152L500.9 155.9L497 159.9L492.7 162.3L486.5 164L480.9 164.4L474.5 163.6"/><path d="M456 148.1L461.4 150.4L466.6 153.9L470.8 158L474.6 163.4L477.4 169.2L478.8 174.7L479.1 181.1L478.1 185.9L475.5 190.8L472.4 194L467.6 196.3L463 196.9L458 196.4L452.1 194.1L447.3 191.1L442.6 186.7"/><path d="M436.7 163.3L439.8 168.3L441.9 174.2L442.9 180L442.9 186L441.9 191.8L439.5 198.2L436 203.5L432.4 206.9L427.8 209.2L423 210L417.8 209.1L413.6 206.9L410 203.5L406.5 198.2L404.4 192.9L403.2 186.6"/><path d="M412.1 164.2L411.7 170.1L410 176.1L407.3 181.4L403.8 186.2L399.6 190.3L393.9 194.1L389 196.1L383 196.9L378.4 196.3L373.6 194L370.5 190.8L367.9 185.9L366.9 181.1L367.2 174.7L368.6 169.2L371.4 163.4"/><path d="M391.8 150.5L387.9 155L383 158.9L377.8 161.6L371.5 163.6L365.1 164.4L359.5 164L353.3 162.3L349 159.9L345.1 155.9L343.1 152L342.4 147.6L343.2 142.1L345.5 137.1L349.2 132.6L353.6 129L359.3 125.9"/><path d="M383.3 127.5L377.6 128.9L371.3 129.1L365.5 128.2L359.3 126.1L353.6 123L349.2 119.4L345.5 114.9L343.2 109.9L342.4 104.4L343.1 100L345.1 96.1L349 92.1L353.3 89.7L359.5 88L365.1 87.6L371.5 88.4"/><path d="M390 103.9L383.1 100.8L377.2 96.1L372.3 90.2L368.6 82.8L366.9 75.1L367.2 68.9L369.4 62.7L371 60.5L373.6 58L378.4 55.7L385 55.2L392 57L398.7 60.9L403.8 65.8L408.5 72.7L411.4 80.3L412.1 87.8"/><path d="M463 126L462.4 133.1L460 141.2L456.4 148L451.5 154.1L445.5 159L438.7 162.8L431.9 165L423.6 166L415.3 165.2L408.4 163.2L401 159.4L394.9 154.5L390 148.5L386 141.2L383.6 133.1L383 126L383.6 118.9L386 110.8L389.6 104L394.5 97.9L400.5 93L407.3 89.2L414.1 87L422.4 86L430.7 86.8L437.6 88.8L444 92L450.6 97.1L456 103.5L460 110.8L462.4 118.9Z"/><path d="M20 973L20 973.7M21.2 400L768.2 400M822.8 400L823.4 400M878.6 400L879.2 400"/><path d="M768 336L805 336L805 373.2L768 373.2Z"/><path d="M805 336L842 336L842 373.2L805 373.2Z"/><path d="M842 336L879 336L879 373.2L842 373.2Z"/><path d="M936 372.6L936 373.2L879 373.2L879 336L936 336"/><path d="M768 373.2L823 373.2L823 410.4L768 410.4Z"/><path d="M823 373.2L879 373.2L879 410.4L823 410.4Z"/><path d="M916.4 410.4L879 410.4L879 373.2L936 373.2L936 373.8"/><path d="M768 410.4L805 410.4L805 447.6L768 447.6Z"/><path d="M805 410.4L842 410.4L842 447.6L805 447.6Z"/><path d="M842 410.4L879 410.4L879 447.6L842 447.6Z"/><path d="M916.4 447.6L879 447.6L879 410.4L916.4 410.4"/><path d="M768 447.6L823 447.6L823 484.8L768 484.8Z"/><path d="M823 447.6L879 447.6L879 484.8L823 484.8Z"/><path d="M916.4 484.8L879 484.8L879 447.6L916.4 447.6"/><path d="M768 484.8L805 484.8L805 522L768 522Z"/><path d="M805 484.8L842 484.8L842 522L805 522Z"/><path d="M842 484.8L879 484.8L879 522L842 522Z"/><path d="M916.4 522L879 522L879 484.8L916.4 484.8"/><path d="M916 336L960 336L960 373.2L916 373.2Z"/><path d="M1002.4 373.2L960 373.2L960 336L1002.4 336"/><path d="M1002.6 532L916 532L916 373.2L1002.6 373.2"/><path d="M985 423.2L984.5 427.9L983.3 431.9L981.3 435.6L978.4 439.4L974.7 442.4L971.6 444.1L967 445.6L962.3 446.2L957.5 445.8L953 444.4L948.8 442.1L946.1 439.8L943.7 437.1L941.2 433L939.6 428.5L939 423.8L939.4 419L940.7 414.5L943 410.3L945.6 407L948.8 404.3L953 402L957.5 400.6L962.3 400.2L967 400.8L970.5 401.8L974.7 404L978.4 407L981.3 410.8L983.3 414.5L984.5 418.5Z"/><path d="M868 228L908 228L908 264L828 264Z"/><path d="M908 228L948 228L948 264L908 264Z"/><path d="M1002.6 264L948 264L948 228L1002.6 228"/><path d="M828 264L862 264L862 300L788 300Z"/><path d="M862 264L898 264L898 300L862 300Z"/><path d="M898 264L934 264L934 300L898 300Z"/><path d="M934 264L968 264L968 300L934 300Z"/><path d="M1002.6 300L968 300L968 264L1002.6 264"/><path d="M788 300L824 300L824 336L748 336Z"/><path d="M824 300L860 300L860 336L824 336Z"/><path d="M860 300L896 300L896 336L860 336Z"/><path d="M896 300L932 300L932 336L896 336Z"/><path d="M932 300L968 300L968 336L932 336Z"/><path d="M1002.6 336L968 336L968 300L1002.6 300"/><path d="M21.4 650L85.5 650M120.8 650L125 650M174.8 650L177.2 650M254.5 650L283.3 650"/><path d="M121 474.9L121 497.7M121 531.9L121 539M121 577.4L121 619.3M121 645.7L121 690.6M85 690.6L85 646.3M85 605.5L85 574.4M85 540.2L85 533.1M85 463.6L85.1 440.9L86.5 436.7L88.8 434.2L91.7 432.6L93.9 432.1L112.1 432.1L116.3 433.5L118.1 434.9L120 437.7"/><path d="M59 496.5L52 492L45.4 485L39.7 475.9L35.2 465.7L44.2 461.2L51.8 458.4L59 456.8L65.8 456.4L70.5 456.8L75.1 457.9L80.1 460L84.1 462.5L87.9 465.7L91.4 469.5L97.8 479.2L102.8 490.3L94.8 494.4L88 497"/><path d="M103.2 524.3L108.7 512.3L114.6 503.5L121.2 497L125.2 494.4L129.5 492.4L133.9 491.1L138.6 490.4L148.3 491L158.9 494L170.8 499.7L165.8 510.8L159.4 520.5L155.9 524.3L152.1 527.5L148.1 530L143.8 531.9L135.4 533.6L130.4 533.6L125.3 532.9L114.2 529.6Z"/><path d="M102.8 547.7L97.8 558.8L91.4 568.5L87.9 572.3L84.1 575.5L80.1 578L75.8 579.9L67.4 581.6L62.4 581.6L57.3 580.9L46.2 577.6L35.2 572.3L40.2 561.2L46.6 551.5L50.1 547.7L53.9 544.5L57.9 542L62.2 540.1L70.6 538.4L75.6 538.4L80.7 539.1L90.9 542Z"/><path d="M110.1 623.4L122.4 618.5L132.7 616.3L138 616L142.9 616.4L147.5 617.4L151.9 619L156 621.2L159.5 623.9L166 631.1L171.2 640.2L175.9 652.6L163.6 657.5L152.4 659.8L147.2 660L142.3 659.5L134.1 657L130 654.8L126.5 652.1L120 644.9L114.8 635.8Z"/><path d="M156 456L155.6 460.2L154.5 464.2L152.3 468.4L149.4 472.2L145.7 475.2L141.5 477.4L137.4 478.6L133.3 479L128.5 478.6L124.5 477.4L120.8 475.5L117.1 472.6L114 468.9L112 465.3L110.6 461.3L110 456.6L110.2 453L111.3 448.4L113.3 444.1L116.2 440.3L119.8 437.1L124 434.8L128.5 433.4L133.3 433L137.4 433.4L141.5 434.6L145.7 436.8L149.4 439.8L152.3 443.6L154.5 447.8L155.6 451.8Z"/><path d="M156 558L155.6 562.2L154.5 566.2L152.3 570.4L149.4 574.2L145.7 577.2L141.5 579.4L136.9 580.7L133.3 581L129.7 580.8L125.1 579.6L120.8 577.5L117.1 574.6L114 570.9L111.7 566.7L110.4 562.2L110 558.6L110.4 553.8L111.7 549.3L114 545.1L117.1 541.4L120.8 538.5L125.1 536.4L129.7 535.2L133.3 535L136.9 535.3L141.5 536.6L145.7 538.8L149.4 541.8L151.7 544.6L154 548.7L155.5 553.3Z"/><path d="M96 514L95.5 518.7L94 523.3L91.7 527.4L89.4 530.2L85.7 533.2L81.5 535.4L76.9 536.7L73.3 537L69.7 536.8L65.1 535.6L60.8 533.5L57.1 530.6L54 526.9L51.7 522.7L50.4 518.2L50 514.6L50.3 510.4L51.3 506.4L53.3 502.1L56.2 498.3L59.8 495.1L64 492.8L68.5 491.4L73.3 491L77.4 491.4L81.5 492.6L85.7 494.8L89.4 497.8L92.3 501.6L94.3 505.3L95.5 509.3Z"/><path d="M98 626L97.5 630.7L96 635.3L93.7 639.4L91.4 642.2L87.7 645.2L83.5 647.4L78.9 648.7L75.3 649L71.7 648.8L67.1 647.6L62.8 645.5L59.1 642.6L56 638.9L53.7 634.7L52.4 630.2L52 626.6L52.4 621.8L53.7 617.3L56 613.1L59.1 609.4L62.8 606.5L67.1 604.4L71.7 603.2L75.3 603L78.9 603.3L83.5 604.6L87.7 606.8L91.4 609.8L94 613.1L96 616.7L97.5 621.3Z"/><path d="M205.8 442.5L205.1 436.6L205.6 431.8L207.5 426.2L209.9 422.2L213 418.9L216.6 416.3L220.6 414.6L226 413.8L231.4 414.6L235.4 416.3L239 418.9L242.1 422.2L244.5 426.2L246.4 431.8L246.9 436.6L246.2 442.5"/><path d="M235.9 454L238.9 448.5L243 444.3L248 441.1L253.6 439.2L259.6 438.7L265.3 439.6L270.6 441.8L275.7 446.1L278.6 450.6L280.1 455.8L280.1 461.8L278.2 467.6L275 472.4L269.6 477L264.2 479.5L258.4 480.8"/><path d="M244.3 474.5L250.5 475.7L255.7 478.2L260.3 482L263.8 486.8L266.2 492.2L267.1 498L266.6 503.7L264.1 509.9L260.7 514.1L255.7 517.3L249.9 519L244.4 518.9L238.8 517.3L233.3 514L228.8 509.3L225.8 504.1"/><path d="M227.4 488.8L228.2 495L227.4 500.8L225.2 506.3L221.7 511.2L217.3 515.1L211.5 517.9L205.4 519.1L199.9 518.6L194.8 516.6L190.2 512.9L186.8 507.9L185.2 502.6L185 496.3L186.6 490L189.5 484.8L193.5 480.3"/><path d="M208.5 477.1L205 479L201.8 480.1L194.8 480.8L187.8 479.5L181.4 476.3L176.3 471.5L172.9 465.6L171.7 459.1L172.6 452.6L175.6 446.9L180.5 442.4L186.7 439.6L193.6 438.7L200.7 439.8L207.1 442.9L212.3 447.6L214.3 450.4L216.1 454"/><path d="M245.4 470L245.1 473.6L244.1 477L242.5 480.2L239.9 483.5L236.7 486.2L233.6 487.9L230.2 489L226.6 489.4L223 489.2L219 488.1L215.3 486.2L212.5 484L210.1 481.2L208.3 478.1L207 474.2L206.6 470L206.9 466.4L207.9 463L209.5 459.8L212.1 456.5L215.3 453.8L218.4 452.1L221.8 451L225.4 450.6L229 450.8L232.5 451.7L236.2 453.5L239.5 456L241.9 458.8L243.7 461.9L245 465.8Z"/><path d="M349.8 457.9L352.4 453.2L355.9 449.1L359.7 446.3L365 443.9L369.5 443L375 443.2L379.2 444.4L383 446.6L386.2 449.5L389.2 454.1L390.8 459.4L391.1 464L390.5 468.6L388.7 473.6L385.8 478.2L382.5 481.7"/><path d="M367.5 484.9L373.1 482.2L378.9 481.2L384.8 481.6L390.5 483.3L396.5 487.1L400.4 491.4L403.1 496.4L404.3 501.8L404 507.3L402.1 512.3L398.5 517.2L393.6 520.8L388.2 522.7L382.4 523.3L375.9 522.3L369.9 519.8"/><path d="M362.2 506.4L366.5 511L369.2 516.1L370.7 521.8L370.7 527.8L369.4 533.6L366.5 539.3L362.2 543.8L357.4 546.7L352.2 548L346.2 547.8L340.6 545.7L336.1 542.3L332.6 537.8L329.9 531.3L329.1 525.4L329.8 519.5"/><path d="M340.1 508L337.1 513.5L333 517.7L328 520.9L322.4 522.8L316.4 523.3L310.7 522.4L305.4 520.2L300.3 515.9L297.4 511.4L295.9 506.2L295.9 500.2L297.8 494.4L301 489.6L306.4 485L311.8 482.5L317.6 481.2"/><path d="M331.7 487.5L327.7 487L324.4 485.9L318.4 482.4L313.5 477.2L310.2 470.9L308.9 464L309.7 457.2L312.5 451.2L317 446.6L322.8 443.7L329.4 442.9L336.1 444.3L342.2 447.6L347.2 452.7L350.7 459L352.1 465.8L352.1 469.3L351.4 473.2"/><path d="M369.4 492L369.1 495.6L368.1 499L366.5 502.2L363.9 505.5L360.7 508.2L357.6 509.9L354.2 511L350.6 511.4L347 511.2L343 510.1L339.3 508.2L336.5 506L334.1 503.2L332.1 499.6L330.9 495.6L330.6 492L330.9 488.4L331.9 485L333.5 481.8L336.1 478.5L339.3 475.8L342.4 474.1L345.8 473L349.4 472.6L353 472.8L356.5 473.7L359.7 475.2L363.5 478L365.9 480.8L367.9 484.4L369.1 488.4Z"/><path d="M195 610.7L195.5 605.6L196.6 600.5L200.6 590.4L207.1 580.2L216 570L224.9 580.2L231.4 590.4L235.4 600.5L236.5 605.6L237 610.7"/><path d="M193.4 660.8L185.5 656.9L178.8 651.9L173.6 645.8L170.4 639.5L168.3 631.5L167.8 622.5L169 612.5L171.4 602.6L181.3 604.8L189.9 607.7L197.2 611.5L203.2 616.1L207.9 621.6L211.3 627.8L213.4 634.8L214.2 642.3"/><path d="M217.8 642.3L218.6 634.8L220.7 627.8L224.1 621.6L228.8 616.1L234.8 611.5L242.1 607.7L250.7 604.8L260.6 602.6L263.2 613.5L264.2 623.4L263.6 632.3L261.6 639.5L258.4 645.8L253.2 651.9L246.5 656.9L238.6 660.8"/><path d="M188.1 690.3L189 679.1L190.5 669.4L193 660.7L196.3 653.7L200.1 648.6L204.7 644.9L210 642.7L216 642L222 642.7L227.9 645.3L232.4 649.1L236.2 654.4L239.2 661.2L241.5 669.4L243 679.1L243.9 690.3"/><path d="M301 610.7L301.5 605.6L302.6 600.5L306.6 590.4L313.1 580.2L322 570L330.9 580.2L337.4 590.4L341.4 600.5L342.5 605.6L343 610.7"/><path d="M299.4 660.8L291.5 656.9L284.8 651.9L279.6 645.8L276.4 639.5L274.3 631.5L273.8 622.5L275 612.5L277.4 602.6L287.3 604.8L295.9 607.7L303.2 611.5L309.2 616.1L313.9 621.6L317.3 627.8L319.4 634.8L320.2 642.3"/><path d="M323.8 642.3L324.6 634.8L326.7 627.8L330.1 621.6L334.8 616.1L340.8 611.5L348.1 607.7L356.7 604.8L366.6 602.6L369.2 613.5L370.2 623.4L369.6 632.3L367.6 639.5L364.4 645.8L359.2 651.9L352.5 656.9L344.6 660.8"/><path d="M294.1 690.3L295 679.1L296.6 668.9L299.1 660.3L302.3 653.7L306.1 648.6L310.7 644.9L316 642.7L322 642L328 642.7L333.3 644.9L337.9 648.6L341.7 653.7L344.9 660.3L347.2 668.3L349 678.5L349.9 690.3"/><path d="M21.3 690L368 690L368 727L21.3 727"/><path d="M21.3 727L368 727L368 764L21.3 764"/><path d="M58 690L58 727"/><path d="M96 690L96 727"/><path d="M134 690L134 727"/><path d="M172 690L172 727"/><path d="M210 690L210 727"/><path d="M248 690L248 727"/><path d="M286 690L286 727"/><path d="M324 690L324 727"/><path d="M77 727L77 764"/><path d="M115 727L115 764"/><path d="M153 727L153 764"/><path d="M191 727L191 764"/><path d="M229 727L229 764"/><path d="M267 727L267 764"/><path d="M305 727L305 764"/><path d="M79.5 941.4L60.1 946.2L57.8 946.1L55.6 945.4L53.8 944.1L52.4 942.3L51.3 939.2L50.3 934L50.9 931.3L52.5 928.9L55.3 926.9L68.4 923.6"/><path d="M126 951.8L126 980L125.7 982.3L124.7 984.3L123.2 986L120.3 987.7L118 988L109.7 987.7L106.8 986L104.7 983.3L104 980L104 951.8"/><path d="M102.1 820.3L105 790L110.1 787.4L115.2 785.6L120.4 784.4L126 784L131.6 784.4L136.8 785.6L141.9 787.4L147 790L149.9 820.3"/><path d="M57.4 834L53.4 830.7L50 827.1L47.1 823L44.1 817.6L40.2 806.7L37.6 792.5L48.8 790.8L58.9 790.5L67.9 791.6L75.9 794.2L82.9 798.2L89.2 803.9L94.2 811.2L98 819.6"/><path d="M49.3 862.8L49 857.4L49.5 852L50.8 846.2L53 840.6L55.7 836L58.9 831.7L62.3 828.3L67 824.6L71.1 822.2L76.7 820L82.5 818.5L87.8 818L93.2 818.2L99.1 819.3L104.2 821L109 823.4"/><path d="M143 823.4L147.8 821L152.9 819.3L158.8 818.2L164.2 818L169.5 818.5L175.3 820L180.9 822.2L185 824.6L189.7 828.3L193.1 831.7L196.3 836L199 840.6L201 845.6L202.3 850.9L202.9 856.8L202.7 862.2"/><path d="M93.6 862.2L93.7 853.2L95.1 845L97.8 837.4L101.7 830.6L106.6 825L112.2 820.7L119 817.8L126 816.8L133 817.8L139.8 820.7L145.4 825L150.3 830.6L154.2 837.4L156.9 845L158.3 853.2L158.4 862.2"/><path d="M254.2 823.2L257 794L262.1 791.4L267.2 789.6L272.4 788.4L277.5 788L282.6 788.3L287.7 789.3L293.9 791.4L299 794L301.8 823.2"/><path d="M306.9 822.3L310.4 814.5L315.2 807.7L321.1 802.2L328 798.1L336.1 795.4L345.2 794.1L355.4 794.1L365.5 795.4L364.3 805.5L362.4 813.5L359.9 820.7L356.7 827L352.8 832.3L348.2 836.8L342.9 840.4L336.5 843.3"/><path d="M215.7 862.4L216.3 852.3L217.4 847.6L219.4 842.1L221.5 838.1L224.5 833.9L227.9 830.2L231.2 827.5L234.8 825.3L239.7 823.3L243.7 822.3L248.3 822L252.8 822.4L256.8 823.4L260.7 825L265.2 827.8"/><path d="M290.8 827.8L295.8 824.8L301.6 822.7L307.2 822L312.8 822.4L317.8 823.8L323.5 826.6L328.5 830.6L332.9 835.7L336.1 841.1L338.5 847.1L340 854L340.4 861.2L339.6 868.3L338.1 874.1L335.3 880.5L331.5 886.1"/><path d="M255.2 862.4L255.4 854.6L256.6 846.5L258.4 840L261.3 833.3L265 827.8L269.3 823.8L273.3 821.7L278.2 820.9L282.3 821.6L287 824L290.7 827.5L294.4 832.9L297.4 839.5L299.4 846.5L300.5 854L300.8 862.4"/><path d="M318.7 899.7L305 921.5M282.4 952L86 952L53.3 899.7"/><path d="M106.4 899.8L126 952M159.5 899.9L166 952M212.5 899.9L206 952M265.6 899.8L246 952"/><path d="M52 862L321.2 862.1L324.6 862.9L327.1 864.4L329.3 866.4L331.1 869.4L332 874L331.9 889.2L330.6 893.7L327.6 897.3L323.5 899.5L320 900L50.8 899.9L47.4 899.1L44.9 897.6L42.7 895.6L40.9 892.6L40.1 889.2L40 874L40.9 869.4L43.5 865.5L47.4 862.9Z"/><path d="M98 862L98 900M157 862L157 900M215 862L215 900M274 862L274 900"/><path d="M346 952L345.2 959.1L343.3 964.8L340.4 970L336.6 974.6L332 978.4L326.8 981.3L319.9 983.4L314 984L308.1 983.4L301.2 981.3L296 978.4L291.4 974.6L287.6 970L284.7 964.8L282.8 959.1L282 952L282.8 944.9L284.7 939.2L287.6 934L291.4 929.4L296 925.6L301.2 922.7L308.1 920.6L314 920L319.9 920.6L326.8 922.7L332 925.6L336.6 929.4L340.4 934L343.3 939.2L345.4 946.1Z"/><path d="M282 952L282 952" stroke-width="10"/><path d="M650 414L650 417.6M650 467.9L650 474.5M650 561.4L650 657.3M650 698.6L650 716M724 447L724 498.5M724 548.8L724 562.6M724 649.5L724 660.9M724 702.2L724 716M634 474L740 474M634 562L740 562M634 650L740 650" stroke-width="7"/><path d="M662 471.2L649.7 468L639.6 463.6L635.2 460.7L631.4 457.6L628.2 454L625.6 450.2L623.7 445.9L622.3 441.4L621.4 432.1L622.5 421.6L626 408.8L638.8 412.1L648.4 416.4L652.8 419.3L656.6 422.4L659.8 426L662.4 429.8L664.3 434.1L665.6 438.2L666.6 447.9L665.3 459.4Z"/><path d="M726.4 446.9L721.6 446.9M703.2 429L703 424.8L703.9 420.1L705.7 415.7L707.7 412.7L711.2 409.4L715.3 406.9L719.2 405.6L723.4 405L728.2 405.4L732.7 406.9L735.9 408.7L739.5 411.8L742.3 415.7L744.1 420.1L745 424.8L744.8 429M722.2 446.6L721 449.5L719.1 451.9L716.6 453.8L712.5 455.3L708.5 455.5L704.5 454.6L701.2 453.1L698.4 451L695.5 447.3L694.1 444.3L693.5 441L693.7 437.9L695.3 434.1L697.3 431.7L699.9 429.9L703.6 428.7M744.5 428.7L748.6 430.2L751.1 432.1L753 434.5L754.2 437.4L754.5 440.5L753.9 444.3L752.2 447.8L750 450.6L746.2 453.4L743 454.8L739.5 455.5L736.1 455.4L732.9 454.5L729.3 452.3L727.3 449.9L725.9 446.6"/><path d="M633.8 496.3L633 492.2L633.2 488.6L634 485.2L636.2 481L638.6 478.4L642 476L645.9 474.5L649.4 474L653 474.3L657.5 475.7L661.4 478.4L663.8 481L666 485.2L666.8 488.6L667 492.2L666.2 496.3M631.2 518.3L629.3 512.6L629.1 506.6L630.7 500.8L634.1 495.3M665.9 495.3L669.3 500.8L670.9 506.6L670.7 512.6L668.8 518.3M634.1 540.7L630.7 535.2L629.1 529.4L629.3 523.4L631.2 517.7M668.8 517.7L670.7 523.4L670.9 529.4L669.3 535.2L665.9 540.7M666.2 539.7L667 543.8L666.8 547.4L666 550.8L663.8 555L661.4 557.6L658 560L654.1 561.5L650.6 562L645.9 561.5L642.5 560.3L638.6 557.6L636.2 555L634 550.8L633.2 547.4L633 543.8L633.8 539.7"/><path d="M710 553.2L706.5 540.4L705.4 529.9L705.6 524.7L706.5 519.9L707.9 515.3L709.8 511.5L712.2 508L715.4 504.4L719.2 501.3L723.6 498.4L733.7 494L746 490.8L749.3 502.6L750.6 514.1L749.6 523.8L748.3 527.9L746.4 532.2L743.8 536L740.6 539.6L732.8 545.4L722.8 549.9Z"/><path d="M707.8 584.3L707 580.2L707.2 576.6L708 573.2L710.2 569L712.6 566.4L716 564L719.9 562.5L723.4 562L728.1 562.5L731.5 563.7L735.4 566.4L737.8 569L740 573.2L740.8 576.6L741 580.2L740.2 584.3M705.2 606.3L703.3 600.6L703.1 594.6L704.7 588.8L708.1 583.3M739.9 583.3L743.3 588.8L744.9 594.6L744.7 600.6L742.8 606.3M708.1 628.7L704.7 623.2L703.1 617.4L703.3 611.4L705.2 605.7M742.8 605.7L744.7 611.4L744.9 617.4L743.3 623.2L739.9 628.7M740.2 627.7L741 631.8L740.8 635.4L740 638.8L737.8 643L735.4 645.6L732 648L728.1 649.5L724.6 650L719.9 649.5L716.5 648.3L712.6 645.6L710.2 643L708 638.8L707.2 635.4L707 631.8L707.8 627.7"/><path d="M652.4 698.9L647.6 698.9M629.2 681L629 676.8L629.9 672.1L631.7 667.7L633.7 664.7L636.2 662.1L640.2 659.4L644.7 657.7L649.4 657L653.6 657.3L657.6 658.4L661.9 660.7L665.5 663.8L668.3 667.7L670.1 672.1L671 676.8L670.8 681M648.2 698.6L647 701.5L645.1 703.9L642.6 705.8L638.5 707.3L635.1 707.5L631.6 707L627.2 705.1L624.4 703L621.5 699.3L620.1 696.3L619.5 693L619.7 689.9L621.3 686.1L623.3 683.7L625.9 681.9L629.6 680.7M670.5 680.7L674.6 682.2L677.1 684.1L679 686.5L680.2 689.4L680.5 692.5L679.9 696.3L678.2 699.8L676 702.6L673.3 704.8L670.1 706.4L666.1 707.4L662.1 707.4L657.9 706.1L655.3 704.3L653.3 701.9L651.9 698.6"/><path d="M704 701.9L704.8 689.7L707.3 679.4L711.4 671.1L713.8 667.9L717.1 664.7L720.6 662.2L724.5 660.2L733.4 657.6L743.9 656.9L756 658.1L755.2 670.3L752.7 680.6L748.6 688.9L745.6 692.6L742.9 695.3L739.4 697.8L735.5 699.8L726.6 702.4L716.1 703.1Z"/><path d="M971 630L1002.7 630"/><path d="M832.5 579.1L832 574.5L832.2 570.7L834.1 563.4L837.8 556.5L843.3 550.3L850.3 545.2L859.1 541.2L868.8 538.7L878.3 538L889 539L898 541.6L906.1 545.5L913.1 550.7L918.5 556.9L922.1 563.8L923.9 571.2L923.5 579.1"/><path d="M795.9 645.7L790.6 640.5L786.2 633.8L783.7 627.5L782.3 619.7L782.7 611.7L784.5 604.4L787.8 597.6L792.7 591L799 585.6L806.2 581.4L813 579.1L821.3 577.8L829.5 578.2L836.4 579.9L843.8 583.3L849.8 587.8"/><path d="M906.2 587.8L912.2 583.3L919.6 579.9L927.6 578.1L934.7 577.8L943 579.1L949.8 581.4L957 585.6L963.3 591L968.2 597.6L971.5 604.4L973.3 611.7L973.7 619.7L972.3 627.5L969.8 633.8L965.4 640.5L960.1 645.7"/><path d="M832.9 632.9L832 623.4L832.4 618L833.4 612.7L837 603.2L842.5 594.7L849.9 587.6L858.5 582.3L867.6 579.2L872.9 578.3L878.3 578L887.8 579.1L892.4 580.3L898 582.6L903.2 585.5L907.1 588.4L913.8 595.2L916.6 599L919.6 604.3L922.7 613.3L924 622.8L923.1 632.9"/><path d="M786.4 668.2L788.7 659.7L791.9 651.9L795.2 646.1L799.6 640.7L804.7 636.5L809.7 633.9L816 632.1L822.1 631.6L829.7 632.2L838 634L846.9 640.7L854.2 647.5L860 654.3L864.2 661.3L866.9 668.3"/><path d="M969.6 668.2L967.3 659.7L964.1 651.9L960.6 645.8L956.4 640.7L951.7 636.8L946.3 633.9L940 632.1L933.9 631.6L926.3 632.2L918 634L909.1 640.7L901.8 647.5L896 654.3L891.8 661.3L889.1 668.3"/><path d="M1002.6 705L768 705L768 668L1002.6 668"/><path d="M1002.6 742L768 742L768 705L1002.6 705"/><path d="M808 668L808 705"/><path d="M848 668L848 705"/><path d="M888 668L888 705"/><path d="M928 668L928 705"/><path d="M968 668L968 705"/><path d="M828 705L828 742"/><path d="M868 705L868 742"/><path d="M908 705L908 742"/><path d="M948 705L948 742"/><path d="M764.1 915.1L767 880L772.1 877.4L777.2 875.6L782.4 874.4L787.5 874L792.6 874.3L797.7 875.3L802.9 877L809 880L811.9 915.1"/><path d="M773.7 981.2L766.1 984.7L761.7 985.6L757.3 986L752.8 985.7L748.5 984.8L744.3 983.3L740.3 981.2L736.6 978.5L733.2 975.3L728.1 968.3L724.8 960L723.5 950.6L724.6 941.1L727.9 932.3L730.3 928.3L733.2 924.7L736.6 921.5L740.3 918.8L744.3 916.7L748.5 915.2L752.8 914.3L757.3 914L761.7 914.4L766.1 915.3L773.7 918.8"/><path d="M802.3 918.8L806.3 916.7L810.5 915.2L814.8 914.3L819.3 914L823.7 914.4L828.1 915.3L835.7 918.8L842.4 924.2L845.3 927.8L847.9 931.7L851.3 940.5L852.5 950L851.3 959.5L847.9 968.3L845.3 972.2L842.4 975.8L835.7 981.2L828.1 984.7L823.7 985.6L819.3 986L814.8 985.7L810.5 984.8L806.3 983.3L802.3 981.2"/><path d="M815.3 950L814.8 957.1L813.3 964L810.8 970.3L807.5 975.9L802.8 981.2L798.1 984.5L793 986.4L787.8 987.1L782.5 986.3L777.5 984.2L772.9 980.9L768.8 976.3L765.4 970.8L762.9 964.5L761.3 957.7L760.7 950.6L761.1 943.5L762.6 936.6L764.9 930.2L768.2 924.5L772.1 919.8L776.7 916.2L782.5 913.7L787.8 912.9L793 913.6L798.1 915.5L803.5 919.5L807.5 924.1L810.8 929.7L813.3 936L814.8 942.9Z"/><path d="M925.1 1002.9L920.3 998.3L915.8 992.7L912.3 987.2L909.4 981.3M909.6 981.7L905.5 982.2L901.9 982.1L897.2 981.1L893.9 979.7L889.8 977.2L887.2 974.8L884.2 971L882.5 967.9L881.3 964.5L880.5 959.8L880.5 955.6L881.3 951.5L882.5 948.1L884.9 944L887.2 941.2L890.8 938.1M890.7 938.7L889 933.6L888.4 927.7L889.2 921.8L891.6 916.3L895.1 911.5L899.8 907.8L905.2 905.2L910.5 904.2M910.2 904.8L911.3 898.9L913.9 893.5L917.7 888.9L922 885.7L926.9 883.5L932.8 882.4L938.8 882.8L944.5 884.6M944.3 884.6L948.3 880.2L953.3 876.9L957.8 875.2L963.7 874.4L969.6 875.1L975.2 877.2L980.1 880.6L983.7 884.6M983.6 884.6L988.6 882.9L993.4 882.4L998.2 882.8L1002.8 884.1"/><path d="M926.5 1002.7L920.1 996.4L915.1 989.7L910.5 981.3L908.5 975.8L908.7 975.5M949.5 956.8L950 956.7M978 956.7L978.5 956.8M912.8 985.1L912.4 985.1L910.5 981.3L907.8 973.4L906.3 966.4L905.7 958.9L909.7 957L913.2 956.5L918 957.2L921.7 959.1M921.3 959.2L922.3 954.5L924.7 950.4L929.5 946.8L934.1 945.6L938.8 945.9L944.2 948.4L947.5 951.9L949.5 956.8M949.8 957L950.3 951.7L953.2 946.5L957.9 942.9L963.7 941.5L969.5 942.6L974.4 946L977.5 951.1L978.2 957M978.5 956.8L979.6 953.4L981.6 950.4L984.3 948L988.6 946L992.1 945.5L996.3 946L1000.1 947.7L1002.9 950"/><path d="M934.2 831.3L931.7 835L928.7 837.7L925.1 839.8L919.9 841.6L915.4 842.1L910.1 841.8L904.9 840.6L900.5 838.8L896 835.9L892.1 832.4L889.3 828.9L886.9 824L885.8 818.9L885.9 814.9L886.8 811.1L888.6 807.6M914.5 799.3L919.6 801L923.9 803.3L927.6 806.1L930.8 809.4"/><path d="M970.7 796L974.7 801L976 804.2L976.8 807.7L976.9 810.8L976.3 815.1L973.4 822.4L968.7 828.5L962.6 833.3L955 836.5L947.2 837.4L940.5 836L934.9 832.7L932.8 830.6L930.7 827.3L929.5 824.6L928.8 820.6L928.8 816.4L929.4 813.1L931.9 806.9L936.9 800.3L943.5 795.2"/><path d="M926.9 780.8L925.5 785.4L923 790.4L919.9 794.6L916.2 798.4L912 801.7L907.3 804.4L901.8 806.6L897.3 807.7L892.8 808.1L887.4 807.8L882.3 806.5L878.3 804.5L874.8 801.9L871.7 798.3L869.6 794L868.7 790.2L868.5 785.2L869.1 781.1L870.8 776L873.5 771.1L877.2 766.5L880.6 763.2L885.5 759.7L889.7 757.5L894.1 755.8L899.7 754.6L905.3 754.3L910.6 755L914.5 756.3L918.9 758.7L921.8 761.2L924.7 765"/><path d="M984.4 782.4L982.4 786.8L979.5 790.6L975.6 793.9L970.5 796.5L964.6 798.2L958.9 798.7L953 798.3L947.2 797L941.6 794.9L936.5 791.9L932.1 788.2L928.2 783.6L925.4 778.5L924 773.7L923.7 768.8L924.5 764.1L926.5 759.8L929.4 755.9L933.3 752.7L938.4 750L944.3 748.4L950 747.8L955.9 748.2L961.7 749.5L967.3 751.7L972.4 754.7L976.8 758.3L980.7 762.9L983.5 768L984.9 772.9L985.2 777.7Z"/><path d="M920.8 765L917.9 760.5L914 757L909.2 754.5L902.3 752.7M928.1 764L929.7 758.9L932.7 754L937.2 750L942.4 747.1" stroke-width="4"/><path d="M438.8 544.4L433.9 534.1L429.8 523.4L426.3 512.2L423.6 500.5L421.5 488.7L420.3 477.1L419.8 465.8L420.2 455L421.4 445.1L423.3 436.1L426 428.3L429.4 421.9L433.5 416.9L438 413.5L443.1 411.7L448.4 411.6L454 413.2L459.7 416.5L465.4 421.3L471.1 427.6L476.4 435.2L481.5 444L486.1 453.9L490.2 464.6L493.7 475.8L496.4 487.5L498.5 499.3L499.7 510.9L500.2 522.2L499.8 533L498.6 542.9L496.5 552.3"/><path d="M464.3 557.3L462.3 555.5M458.7 551.1L455.1 545.6L451.4 538.7L448 530.8L445 522.2L440.5 503.7L438.4 486.3L438.5 470.7L439.5 463.5L441.1 457.5L443.3 452.7L446 449.4L449.1 447.5L452.6 447.2L456.3 448.4L460.2 451.1L463.6 454.7L467.5 460L471.3 466.6L474.7 474.2L480.4 490.9L484.2 509L485.3 518.3L485.8 527.2L485.6 535.4L484.9 542.3L483.5 548.4L481.6 553.6"/><path d="M503.5 552.3L501.4 542.9L500.2 533L499.8 522.2L500.3 510.9L501.5 499.3L503.6 487.5L506.3 475.8L509.8 464.6L513.9 453.9L518.5 444L523.6 435.2L528.9 427.6L534.6 421.3L540.3 416.5L546 413.2L551.6 411.6L556.9 411.7L562 413.5L566.5 416.9L570.6 421.9L574 428.3L576.7 436.1L578.6 445.1L579.8 455L580.2 465.8L579.7 477.1L578.5 488.7L576.4 500.5L573.7 512.2L570.2 523.4L566.1 534.1L561.2 544.4"/><path d="M537.7 555.5L535.7 557.3M518.4 553.6L516.5 548.4L515.1 541.9L514.4 535.4L514.2 527.2L514.7 518.3L515.8 509L519.6 490.9L525.3 474.2L528.7 466.6L532.5 460L536.4 454.7L540.3 450.7L543.7 448.4L547.4 447.2L550.9 447.5L554 449.4L556.7 452.7L558.9 457.5L560.4 463.1L561.4 469.7L561.8 477.7L561.6 486.3L559.2 504.8L555 522.2L552 530.8L548.6 538.7L544.9 545.6L541.3 551.1"/><path d="M500.4 976L493.3 980.6L484.5 984.5L474.9 987.4L464.5 989.4L453.7 990.4L443.2 990.4L433.4 989.3L424.7 987.2L417.5 984.3L412.3 980.6L409.1 976.3L408.2 971.6L409.7 966.8L413.3 962L419.1 957.5L426.6 953.5"/><path d="M573.4 953.5L583 959L586.7 962L589.4 965.2L591.1 968.4L591.7 971.1L591.6 974.3L590.4 977.3L588.6 979.7L585.6 982.3L581.8 984.7L577 986.7L565.6 989.5L552.2 990.5L537.9 989.7L524.6 987.2L512.5 983.3L502.3 978L498.4 975L495.4 971.9L493.4 968.7L492.4 965.4L492.3 962.3L493.4 959.2L495.4 956.3L498.4 953.7"/><path d="M582.1 845.1L576.6 855.4M423.4 855.4L422.5 853.9M464 742L470 742M530 742L536 742M590.3 780.9L591.6 791M576.5 855L579.7 857.5M586 877.3L585.9 912.3L584.4 917.9L581.3 922.9M418.7 922.9L415.6 917.9L414.1 912.3L414 870.8M422.5 855.6L423.5 855"/><path d="M457 918.4L457 852L543 852L543 918.4"/><path d="M428 918L574.3 918.2L576.6 918.9L579.6 920.7L581.6 922.9L583.1 925.4L584 930L583.8 944.3L582.3 948.2L579.6 951.3L576.6 953.1L573.2 953.9L425.7 953.8L423.4 953.1L420.4 951.3L418.7 949.6L416.9 946.6L416 942L416.1 928.8L417.4 924.3L420.4 920.7L424.5 918.5Z"/><path d="M500 780L500 954M422.6 852L581 852"/><path d="M428.5 779.5L416.5 835.4M375.6 841.3L373.8 838.3L372.3 833.9L371.7 830.5L371.7 825.8L384.6 764.6"/><path d="M464.5 734.9L464.4 740.2L463.3 746.7L461.1 753L458.1 758.5L454.4 763.7L449.4 768.8L443.8 773.2L438.6 776.2L432 779L426.3 780.6L420.6 781.4L413.7 781.5L407 780.5L401.7 778.9L396.8 776.6L391.6 773.1L387.5 769.1L384.2 764.4L381.7 759.3L380.1 753.8L379.5 748.6L379.7 742.2L381 736.3L383.1 730.5L386.5 724.5L390 719.8L394.6 715.2L399.7 711.2L405.9 707.5L411.4 705.2L418.2 703.3L424.6 702.5"/><path d="M591.9 780.7L586.9 781.4L581.2 781.5L570.8 779.9L560.8 775.9L552.4 770.3L545.3 763.3L539.6 754.5L537.7 749.8L536.3 745L535.5 739.7L535.5 734.9M575.4 702.5L583.5 703.7L591.4 706.3L598.8 710.2L605.4 715.2L611.1 721.2L615.3 727.5L618.3 734.2L620.2 741.6"/><path d="M423 852L422.5 856.8L421.2 861.4L419 865.6L416 869.4L412.4 872.5L408.2 874.8L403.6 876.4L398.9 877L394.1 876.7L389.5 875.5L385.2 873.4L380.9 870.2L377.4 866.1L375 861.9L373.6 857.4L373 852.6L373.4 847.8L374.6 843.2L376.7 838.9L380 834.6L384.1 831.2L388.4 828.9L392.9 827.5L397.7 827L402.5 827.4L407.1 828.7L411.4 830.9L415.6 834.2L419 838.4L421.2 842.6L422.5 847.2Z"/><path d="M451.5 718.6L436.6 711.3L430 707L423 701.7L416.6 695.9L411.5 690.5L407 684.7L402.5 677.8L398.7 670.6L396.1 664.1L394.1 657.5L392.7 649.7L392 642L392.2 635.1L393.1 627.3L394.7 620.6M413.6 587.2L424.3 577.3M463 557.3L472.1 555L481.5 553.3L490.4 552.3L499.4 552L509 552.3L518.5 553.3L527.9 555L537 557.3M575.7 577.3L586.4 587.2M605.3 620.6L607 628.3L607.8 635.1L607.9 642.9L607.3 649.7L606 657L603.9 664.1L600.8 671.5L597.5 677.8L593.3 684.3L588.5 690.5L583.4 695.9L577 701.7L570.9 706.4L563.4 711.3L548.5 718.6"/><path d="M392.9 587.4L394.4 584.2L396.1 582.5L399.2 580.8L401.5 580.3L404.5 580.6L407.2 581.8L409.8 584.2L411.3 587.4M411 587.1L414 586.8L417.4 587.7L419.4 589L421.7 591.7L422.6 593.9L422.8 597.5L421.7 600.9L419.9 603.2M419.9 602.4L421.7 604.7L422.8 608.1L422.6 611.7L421.7 613.9L419.4 616.6L417.4 617.9L414 618.8L411 618.5M411.3 618.2L409.8 621.4L408.2 623.1L405.1 624.8L402.7 625.3L399.8 625L397 623.8L394.4 621.4L392.9 618.2M393.2 618.5L390.3 618.8L386.8 617.9L384.8 616.6L382.5 613.9L381.7 611.7L381.4 608.1L382.5 604.7L384.4 602.4M384.4 603.2L382.5 600.9L381.4 597.5L381.5 594.5L382.5 591.7L384.8 589L386.8 587.7L390.3 586.8L393.2 587.1"/><path d="M433.6 550L435.1 546.8L436.7 545.1L439.8 543.3L442.2 542.9L444.5 543L447.9 544.4L450.5 546.8L452 550M451.7 549.7L454.6 549.4L458.1 550.3L460.1 551.6L462.4 554.3L463.2 556.5L463.5 560.1L462.4 563.4L460.5 565.8M460.5 565L462.4 567.3L463.5 570.7L463.2 574.2L462.4 576.4L460.1 579.2L458.1 580.5L454.6 581.4L451.7 581.1M452 580.7L450.5 584L448.8 585.7L445.7 587.4L443.4 587.9L441 587.7L437.7 586.4L435.1 584L433.6 580.7M433.9 581.1L430.9 581.4L427.5 580.5L425.5 579.2L423.2 576.4L422.3 574.2L422.1 570.7L423.2 567.3L425 565M425 565.8L423.2 563.4L422.1 560.1L422.2 557.1L423.2 554.3L425.5 551.6L427.5 550.3L430.9 549.4L433.9 549.7"/><path d="M548 550L548.9 547.8L551.2 545.1L554.3 543.3L556.6 542.9L559 543L562.3 544.4L564.9 546.8L566.4 550M566.1 549.7L569.1 549.4L572.5 550.3L574.5 551.6L576.8 554.3L577.9 557.7L577.9 560.1L576.8 563.4L575 565.8M575 565L576.8 567.3L577.9 570.7L577.9 573.1L576.8 576.4L574.5 579.2L572.5 580.5L569.1 581.4L566.1 581.1M566.4 580.7L564.9 584L563.3 585.7L560.2 587.4L557.8 587.9L555.5 587.7L552.1 586.4L549.5 584L548 580.7M548.3 581.1L545.4 581.4L541.9 580.5L539.9 579.2L537.6 576.4L536.5 573.1L536.5 570.7L537.6 567.3L539.5 565M539.5 565.8L537.6 563.4L536.5 560.1L536.5 557.7L537.6 554.3L539.9 551.6L541.9 550.3L545.4 549.4L548.3 549.7"/><path d="M588.7 587.4L589.6 585.2L591.8 582.5L594.9 580.8L597.3 580.3L600.8 580.8L603.5 582.1L605.6 584.2L607.1 587.4M606.8 587.1L609.7 586.8L613.2 587.7L615.6 589.4L617.5 591.7L618.6 595.1L618.6 597.5L617.5 600.9L615.6 603.2M615.6 602.4L617.5 604.7L618.6 608.1L618.6 610.5L617.5 613.9L615.6 616.2L613.2 617.9L609.7 618.8L606.8 618.5M607.1 618.2L605.6 621.4L603.9 623.1L600.8 624.8L598.5 625.3L594.9 624.8L592.3 623.5L590.2 621.4L588.7 618.2M589 618.5L586 618.8L582.6 617.9L580.1 616.2L578.3 613.9L577.2 610.5L577.2 608.1L578.3 604.7L580.1 602.4M580.1 603.2L578.3 600.9L577.2 597.5L577.2 595.1L578.3 591.7L580.1 589.4L582.6 587.7L586 586.8L589 587.1"/><path d="M500.4 707.1L495.5 710.5M468.5 710.5L464.1 707.5L459.9 703.2L456.8 698.1L454.8 692.5L454 686.6L454.5 680.6L456.3 674.9L459.2 669.7L463.2 665.3L468 661.8L473.5 659.3L478.7 658.2L484.1 658.1L490 659.2L495.5 661.5L500.4 664.9M504.5 710.5L499.6 707.1M499.6 664.9L504 661.8L509.5 659.3L515.3 658.1L521.3 658.2L527.1 659.5L532.5 662.1L537.3 665.7L541.1 670.2L544 675.5L545.6 681.2L546 687.2L545.2 692.5L543.5 697.6L540.4 702.7L536.4 707.1L531.5 710.5"/><path d="M454 662L453.5 666.7L452.4 670.1L450.2 674.3L447.6 677.6L444.3 680.2L440.1 682.4L436.7 683.5L432 684L427.3 683.5L423.9 682.4L419.7 680.2L416.4 677.6L413.8 674.3L411.6 670.1L410.5 666.7L410 662L410.5 657.3L411.6 653.9L413.8 649.7L416.4 646.4L419.7 643.8L423.9 641.6L427.3 640.5L432 640L436.7 640.5L440.1 641.6L444.3 643.8L447.6 646.4L450.2 649.7L452.4 653.9L453.5 657.3Z"/><path d="M590 662L589.5 666.7L588.4 670.1L586.2 674.3L583.6 677.6L580.3 680.2L576.1 682.4L572.7 683.5L568 684L563.3 683.5L559.9 682.4L555.7 680.2L552.4 677.6L549.8 674.3L547.6 670.1L546.5 666.7L546 662L546.5 657.3L547.6 653.9L549.8 649.7L552.4 646.4L555.7 643.8L559.9 641.6L563.3 640.5L568 640L572.7 640.5L576.1 641.6L580.3 643.8L583.6 646.4L586.2 649.7L588.4 653.9L589.5 657.3Z"/><path d="M500 669L500 676M490 684L492.6 685.8L494.8 686.6L496.4 686.6L497.7 685.8L499.4 682.3L500 676L500.6 682.3L502.3 685.8L503.6 686.6L505.2 686.6L507.4 685.8L510 684" stroke-width="4"/><path d="M444 710L556 710L500 780Z"/><path d="M500 712L500 778"/><path d="M738.8 863.8L816.7 829.6L814.5 822.3M802.6 782.3L801.2 777.8L748.4 804.8"/><path d="M843.7 783.5L845.3 787.6L845.9 791.2L845.6 795.9L844.1 800.7L841.7 805.4L838.3 809.9L834.1 813.9L829.2 817.3L823.9 820L818.3 821.8L812.7 822.7L807.4 822.7L802.4 821.7L798 819.8L794.4 817L791.7 813.5L790.2 809.9L789.5 805.9L789.8 801.2L791.2 796.4L793.7 791.7L797.1 787.2L801.3 783.2L806.2 779.8L811.5 777.1L817 775.3L822.6 774.4L828 774.4L833 775.4L837.4 777.3L841 780.1Z"/><path d="M634.7 766.3L730 783.1L734.5 784.6L738.6 787L742.2 790.1L745.1 793.8L747.3 798.1L748.3 801.5L748.9 806.2L748.7 809.7L735.3 885.7L733.3 891.3L730 896.2L725.6 900.2L720.3 903L714.6 904.4L708.6 904.4L599.1 885.1L592.4 882.9L586.6 878.8L582.9 874.2L580.7 869.9L579.3 864.2L579.2 859.4L592.9 781.7"/><path d="M584.2 876.1L580.7 869.9L579.2 863L579.3 858.3L582.2 841.9L738.2 869.4L735 886.9L733.8 890.2L731.4 894.4L727.4 898.7L722.5 902L718.1 903.7L712.2 904.6L707.5 904.2L597.9 884.9L593.5 883.4L590.3 881.7L587.5 879.6Z"/><path d="M631.2 751.2L638.5 742.7L645.3 736L651.8 730.5L658.1 726.4L664.1 723.7L670 722.3L675.5 722.2L680.9 723.4L686 726L690.9 730L695.5 735.2L699.9 741.8L704.3 750.2L708.4 760L712.1 770.7L715.5 782.8" stroke-width="11"/><path d="M635 764L634.5 768.8L633.2 773.4L631 777.6L628 781.4L624.4 784.5L620.2 786.8L615.6 788.4L610.9 789L606.1 788.7L601.5 787.5L597.2 785.4L593.3 782.6L590.1 779.1L587.3 774.5L585.6 769.4L585 764.6L585.4 759.8L586.6 755.2L588.7 750.9L592 746.6L596.1 743.2L600.4 740.9L604.9 739.5L609.7 739L614.5 739.4L619.1 740.7L623.4 742.9L627.6 746.2L631 750.4L633.2 754.6L634.5 759.2Z"/><path d="M850 816L859.1 828.4L865.7 839L869.5 847.4L870.6 851.3L871 854.8L870.7 859.6L869.8 863.1L867.7 867.4L865.5 870.2L862.3 873L858.7 875.1L854.2 876.6L850.6 877L846.4 876.7L842.4 875.6L838.7 873.7L835.4 871.1L832.3 867.4L830.7 864.2L829.3 859.6L829 854.8L829.4 851.3L830.5 847.4L834.3 839L841.3 827.8Z"/><path d="M608.8 959L600 944M626.8 954.6L624 938" stroke-width="4"/><path d="M648.4 988L658 988M694 988L702.4 988.2L705.8 989.1L709 990.8L711.7 993.1L713.9 996L715.3 999.3L716 1002.8M649.9 982.4L648.7 988.2M611.7 1002.9L607.7 1000.3L603.5 996L601 992L598.8 986.5L598.1 981.8L598.2 977L599.1 972.4L601.5 966.9L604.3 963L608.2 959.4L612.8 956.6L617.2 954.9L621.9 954.1L627.9 954.3L632.5 955.4L637.3 957.7"/><path d="M715 954L714.3 961.1L711.9 969.1L708.6 975.4L704.1 981L698.2 986.1L691.4 989.8L684.6 992L676.3 993L668 992.2L661.1 990.1L654.8 986.7L648.3 981.5L643.8 975.9L640.3 969.7L637.8 961.7L637 954.6L637.6 947.5L639.8 939.4L643.4 932.6L648.3 926.5L654.8 921.3L661.1 917.9L668 915.8L676.3 915L684.6 916L691.4 918.2L698.2 921.9L704.1 927L708.6 932.6L711.9 938.9L714.3 946.9Z"/><path d="M666 962L667.8 961.6L670 963.3L670.5 965L670.3 967L669.1 968.8L667.2 970.2L664.7 970.8L662 970.2L659.4 968.6L657.3 964.9L657 962.6L657.7 959L659.8 955.8L663.2 953.5L666 952.8L670.4 953.1L673.2 954.3L676.8 957.4L678.5 960.2L679.6 965.3L679.2 968.8" stroke-width="5"/><path d="M610 996L613.4 998L616 998.5L618.6 998L622 996" stroke-width="4"/><g fill="#1F1F1F" stroke="none"><ellipse cx="868" cy="118" rx="5" ry="7"/><ellipse cx="900" cy="118" rx="5" ry="7"/><polygon points="701.6,218.8 684.4,225.7 701.6,232.6"/><circle cx="713.6" cy="222.2" r="5"/><circle cx="357.4" cy="180.7" r="4"/><circle cx="323.3" cy="202.7" r="4.5"/><polygon points="662,134.6 687.9,146.5 662,158.4"/><ellipse cx="640.4" cy="139" rx="7" ry="8"/><circle cx="932" cy="470" r="7"/><path d="M120 437 L 133 427 L 146 437 L 133 444 Z"/><path d="M120 539 L 133 529 L 146 539 L 133 546 Z"/><path d="M60 495 L 73 485 L 86 495 L 73 502 Z"/><path d="M62 607 L 75 597 L 88 607 L 75 614 Z"/><ellipse cx="928.5" cy="793.6" rx="8" ry="33.1" transform="rotate(-8 928.5 793.6)"/><path fill-rule="evenodd" d="M452.5 624A12.5 16 0 1 0 477.5 624A12.5 16 0 1 0 452.5 624ZM457.5 622.2A6.3 6.3 0 1 0 470.1 622.2A6.3 6.3 0 1 0 457.5 622.2Z"/><path fill-rule="evenodd" d="M522.5 624A12.5 16 0 1 0 547.5 624A12.5 16 0 1 0 522.5 624ZM527.5 622.2A6.3 6.3 0 1 0 540.1 622.2A6.3 6.3 0 1 0 527.5 622.2Z"/><path d="M487 656 Q 500 648 513 656 Q 511 667 500 669 Q 489 667 487 656 Z"/><circle cx="600" cy="942" r="6"/><circle cx="624" cy="936" r="6"/><circle cx="618" cy="980" r="5"/></g></g></svg>
